<svg width="200" height="48" viewBox="0 0 200 48" fill="none" xmlns="http://www.w3.org/2000/svg">
<rect width="200" height="48" rx="24" fill="#FFFA00"/>
<path d="M46.0996 24.0001L37.6996 28.8499L37.6996 19.1504L46.0996 24.0001Z" fill="#191919"/>
<circle cx="40.5" cy="24" r="13" stroke="#191919" stroke-width="2"/>
<path d="M69.0235 16.416H71.5675V18.912C71.5675 20.192 71.4315 21.448 71.1595 22.68C70.9035 23.912 70.5115 25.072 69.9835 26.16C69.4715 27.232 68.8235 28.184 68.0395 29.016C67.2555 29.832 66.3435 30.48 65.3035 30.96L63.4795 28.44C64.4075 28.008 65.2155 27.448 65.9035 26.76C66.6075 26.072 67.1835 25.304 67.6315 24.456C68.0955 23.592 68.4395 22.688 68.6635 21.744C68.9035 20.784 69.0235 19.84 69.0235 18.912V16.416ZM69.7195 16.416H72.2395V18.912C72.2395 19.792 72.3515 20.688 72.5755 21.6C72.8155 22.496 73.1595 23.352 73.6075 24.168C74.0555 24.968 74.6235 25.688 75.3115 26.328C75.9995 26.968 76.8155 27.48 77.7595 27.864L76.0075 30.408C74.9515 29.944 74.0315 29.32 73.2475 28.536C72.4635 27.752 71.8075 26.848 71.2795 25.824C70.7515 24.8 70.3595 23.704 70.1035 22.536C69.8475 21.352 69.7195 20.144 69.7195 18.912V16.416ZM64.3675 15.024H76.8475V17.664H64.3675V15.024ZM78.9115 12.912H82.1035V35.136H78.9115V12.912ZM87.0216 13.896H101.086V16.416H87.0216V13.896ZM84.5496 21.888H104.686V24.408H84.5496V21.888ZM99.1656 13.896H102.31V15.672C102.31 16.616 102.286 17.632 102.238 18.72C102.19 19.808 101.998 21.072 101.662 22.512L98.4696 22.488C98.8216 21.032 99.0216 19.768 99.0696 18.696C99.1336 17.624 99.1656 16.616 99.1656 15.672V13.896ZM86.9016 26.736H102.214V34.896H86.9016V26.736ZM99.0936 29.232H90.0456V32.376H99.0936V29.232ZM112.19 13.488H128.774V15.888H112.19V13.488ZM112.358 18.696H128.582V21.096H112.358V18.696ZM115.022 14.424H118.214V20.232H115.022V14.424ZM122.75 14.424H125.942V20.232H122.75V14.424ZM110.438 22.224H130.55V24.72H110.438V22.224ZM112.742 25.944H128.102V31.488H115.934V33.552H112.766V29.352H124.958V28.224H112.742V25.944ZM112.766 32.664H128.702V34.992H112.766V32.664ZM131.94 27.336H133.524C134.868 27.336 136.156 27.304 137.388 27.24C138.636 27.16 139.948 27.008 141.324 26.784L141.588 29.352C140.18 29.608 138.828 29.768 137.532 29.832C136.252 29.896 134.916 29.928 133.524 29.928H131.94V27.336ZM131.892 15.096H139.764V23.592H135.036V28.32H131.94V21.072H136.692V17.616H131.892V15.096ZM147.372 12.888H150.42V35.112H147.372V12.888ZM140.676 20.448H144.108V23.064H140.676V20.448ZM142.86 13.296H145.812V34.056H142.86V13.296ZM167.458 12.864H170.65V35.16H167.458V12.864ZM158.674 14.424C159.81 14.424 160.818 14.752 161.698 15.408C162.578 16.048 163.266 16.968 163.762 18.168C164.274 19.352 164.53 20.752 164.53 22.368C164.53 24 164.274 25.416 163.762 26.616C163.266 27.8 162.578 28.72 161.698 29.376C160.818 30.016 159.81 30.336 158.674 30.336C157.554 30.336 156.554 30.016 155.674 29.376C154.794 28.72 154.098 27.8 153.586 26.616C153.09 25.416 152.842 24 152.842 22.368C152.842 20.752 153.09 19.352 153.586 18.168C154.098 16.968 154.794 16.048 155.674 15.408C156.554 14.752 157.554 14.424 158.674 14.424ZM158.674 17.328C158.13 17.328 157.65 17.52 157.234 17.904C156.818 18.288 156.49 18.856 156.25 19.608C156.026 20.344 155.914 21.264 155.914 22.368C155.914 23.456 156.026 24.384 156.25 25.152C156.49 25.904 156.818 26.472 157.234 26.856C157.65 27.24 158.13 27.432 158.674 27.432C159.234 27.432 159.722 27.24 160.138 26.856C160.554 26.472 160.874 25.904 161.098 25.152C161.338 24.384 161.458 23.456 161.458 22.368C161.458 21.264 161.338 20.344 161.098 19.608C160.874 18.856 160.554 18.288 160.138 17.904C159.722 17.52 159.234 17.328 158.674 17.328Z" fill="#191919"/>
</svg>
