<svg width="400" height="90" viewBox="0 0 400 90" fill="none" xmlns="http://www.w3.org/2000/svg">
<rect width="400" height="90" rx="45" fill="#FFFA00"/>
<path d="M92.2002 45L78.4002 52.9675L78.4002 37.0326L92.2002 45Z" fill="#191919"/>
<circle cx="83" cy="45" r="22" stroke="#191919" stroke-width="2"/>
<path d="M131.047 30.832H136.135V35.824C136.135 38.384 135.863 40.896 135.319 43.36C134.807 45.824 134.023 48.144 132.967 50.32C131.943 52.464 130.647 54.368 129.079 56.032C127.511 57.664 125.687 58.96 123.607 59.92L119.959 54.88C121.815 54.016 123.431 52.896 124.807 51.52C126.215 50.144 127.367 48.608 128.263 46.912C129.191 45.184 129.879 43.376 130.327 41.488C130.807 39.568 131.047 37.68 131.047 35.824V30.832ZM132.439 30.832H137.479V35.824C137.479 37.584 137.703 39.376 138.151 41.2C138.631 42.992 139.319 44.704 140.215 46.336C141.111 47.936 142.247 49.376 143.623 50.656C144.999 51.936 146.631 52.96 148.519 53.728L145.015 58.816C142.903 57.888 141.063 56.64 139.495 55.072C137.927 53.504 136.615 51.696 135.559 49.648C134.503 47.6 133.719 45.408 133.207 43.072C132.695 40.704 132.439 38.288 132.439 35.824V30.832ZM121.735 28.048H146.695V33.328H121.735V28.048ZM150.823 23.824H157.207V68.272H150.823V23.824ZM167.043 25.792H195.171V30.832H167.043V25.792ZM162.099 41.776H202.371V46.816H162.099V41.776ZM191.331 25.792H197.619V29.344C197.619 31.232 197.571 33.264 197.475 35.44C197.379 37.616 196.995 40.144 196.323 43.024L189.939 42.976C190.643 40.064 191.043 37.536 191.139 35.392C191.267 33.248 191.331 31.232 191.331 29.344V25.792ZM166.803 51.472H197.427V67.792H166.803V51.472ZM191.187 56.464H173.091V62.752H191.187V56.464ZM217.38 24.976H250.548V29.776H217.38V24.976ZM217.716 35.392H250.164V40.192H217.716V35.392ZM223.044 26.848H229.428V38.464H223.044V26.848ZM238.5 26.848H244.884V38.464H238.5V26.848ZM213.876 42.448H254.1V47.44H213.876V42.448ZM218.484 49.888H249.204V60.976H224.868V65.104H218.532V56.704H242.916V54.448H218.484V49.888ZM218.532 63.328H250.404V67.984H218.532V63.328ZM256.88 52.672H260.048C262.736 52.672 265.312 52.608 267.776 52.48C270.272 52.32 272.896 52.016 275.648 51.568L276.176 56.704C273.36 57.216 270.656 57.536 268.064 57.664C265.504 57.792 262.832 57.856 260.048 57.856H256.88V52.672ZM256.784 28.192H272.528V45.184H263.072V54.64H256.88V40.144H266.384V33.232H256.784V28.192ZM287.744 23.776H293.84V68.224H287.744V23.776ZM274.352 38.896H281.216V44.128H274.352V38.896ZM278.72 24.592H284.624V66.112H278.72V24.592ZM327.917 23.728H334.301V68.32H327.917V23.728ZM310.349 26.848C312.621 26.848 314.637 27.504 316.397 28.816C318.157 30.096 319.533 31.936 320.525 34.336C321.549 36.704 322.061 39.504 322.061 42.736C322.061 46 321.549 48.832 320.525 51.232C319.533 53.6 318.157 55.44 316.397 56.752C314.637 58.032 312.621 58.672 310.349 58.672C308.109 58.672 306.109 58.032 304.349 56.752C302.589 55.44 301.197 53.6 300.173 51.232C299.181 48.832 298.685 46 298.685 42.736C298.685 39.504 299.181 36.704 300.173 34.336C301.197 31.936 302.589 30.096 304.349 28.816C306.109 27.504 308.109 26.848 310.349 26.848ZM310.349 32.656C309.261 32.656 308.301 33.04 307.469 33.808C306.637 34.576 305.981 35.712 305.501 37.216C305.053 38.688 304.829 40.528 304.829 42.736C304.829 44.912 305.053 46.768 305.501 48.304C305.981 49.808 306.637 50.944 307.469 51.712C308.301 52.48 309.261 52.864 310.349 52.864C311.469 52.864 312.445 52.48 313.277 51.712C314.109 50.944 314.749 49.808 315.197 48.304C315.677 46.768 315.917 44.912 315.917 42.736C315.917 40.528 315.677 38.688 315.197 37.216C314.749 35.712 314.109 34.576 313.277 33.808C312.445 33.04 311.469 32.656 310.349 32.656Z" fill="#191919"/>
</svg>
