<svg width="110" height="7" viewBox="0 0 110 7" fill="none" xmlns="http://www.w3.org/2000/svg">
<g clip-path="url(#clip0_2254_15819)">
<path d="M8.78 0H0V2.26H8.78V0Z" fill="#7C7C7C"/>
<path d="M30.73 0H10.97V2.26H30.73V0Z" fill="#7C7C7C"/>
<path d="M30.73 4.52002H0V6.78002H30.73V4.52002Z" fill="#7C7C7C"/>
<path d="M39.5099 4.52002H37.3199V6.78002H39.5099V4.52002Z" fill="#7C7C7C"/>
<path d="M46.1 4.52002H41.71V6.78002H46.1V4.52002Z" fill="#7C7C7C"/>
<path d="M50.49 4.52002H48.29V6.78002H50.49V4.52002Z" fill="#7C7C7C"/>
<path d="M54.8701 4.52002H52.6801V6.78002H54.8701V4.52002Z" fill="#7C7C7C"/>
<path d="M59.2699 4.52002H57.0699V6.78002H59.2699V4.52002Z" fill="#7C7C7C"/>
<path d="M46.1 0H41.71V2.26H46.1V0Z" fill="#7C7C7C"/>
<path d="M37.3201 0H32.9301V2.26H37.3201V0Z" fill="#7C7C7C"/>
<path d="M72.44 0H63.66V2.26H72.44V0Z" fill="#7C7C7C"/>
<path d="M94.39 0H74.63V2.26H94.39V0Z" fill="#7C7C7C"/>
<path d="M94.39 4.52002H63.66V6.78002H94.39V4.52002Z" fill="#7C7C7C"/>
<path d="M61.47 4.52002H59.27V6.78002H61.47V4.52002Z" fill="#7C7C7C"/>
<path d="M61.47 0H59.27V2.26H61.47V0Z" fill="#7C7C7C"/>
<path d="M103.17 4.52002H100.97V6.78002H103.17V4.52002Z" fill="#7C7C7C"/>
<path d="M109.76 4.52002H105.37V6.78002H109.76V4.52002Z" fill="#7C7C7C"/>
<path d="M109.76 0H105.37V2.26H109.76V0Z" fill="#7C7C7C"/>
<path d="M100.98 0H96.59V2.26H100.98V0Z" fill="#7C7C7C"/>
</g>
<defs>
<clipPath id="clip0_2254_15819">
<rect width="109.76" height="6.78" fill="white"/>
</clipPath>
</defs>
</svg>
