<svg width="39" height="113" viewBox="0 0 39 113" fill="none" xmlns="http://www.w3.org/2000/svg">
<g clip-path="url(#clip0_2254_15785)">
<path d="M34.55 1.84C34.55 2.8562 35.3738 3.68 36.39 3.68C37.4062 3.68 38.23 2.8562 38.23 1.84C38.23 0.823796 37.4062 0 36.39 0C35.3738 0 34.55 0.823796 34.55 1.84Z" fill="#7C7C7C"/>
<path d="M34.55 19.9501C34.55 20.9663 35.3738 21.7901 36.39 21.7901C37.4062 21.7901 38.23 20.9663 38.23 19.9501C38.23 18.9339 37.4062 18.1101 36.39 18.1101C35.3738 18.1101 34.55 18.9339 34.55 19.9501Z" fill="#7C7C7C"/>
<path d="M34.55 38.05C34.55 39.0662 35.3738 39.89 36.39 39.89C37.4062 39.89 38.23 39.0662 38.23 38.05C38.23 37.0338 37.4062 36.21 36.39 36.21C35.3738 36.21 34.55 37.0338 34.55 38.05Z" fill="#7C7C7C"/>
<path d="M34.55 56.1601C34.55 57.1763 35.3738 58.0001 36.39 58.0001C37.4062 58.0001 38.23 57.1763 38.23 56.1601C38.23 55.1439 37.4062 54.3201 36.39 54.3201C35.3738 54.3201 34.55 55.1439 34.55 56.1601Z" fill="#7C7C7C"/>
<path d="M34.55 74.2699C34.55 75.2861 35.3738 76.1099 36.39 76.1099C37.4062 76.1099 38.23 75.2861 38.23 74.2699C38.23 73.2537 37.4062 72.4299 36.39 72.4299C35.3738 72.4299 34.55 73.2537 34.55 74.2699Z" fill="#7C7C7C"/>
<path d="M34.55 92.38C34.55 93.3962 35.3738 94.22 36.39 94.22C37.4062 94.22 38.23 93.3962 38.23 92.38C38.23 91.3638 37.4062 90.54 36.39 90.54C35.3738 90.54 34.55 91.3638 34.55 92.38Z" fill="#7C7C7C"/>
<path d="M34.55 110.49C34.55 111.506 35.3738 112.33 36.39 112.33C37.4062 112.33 38.23 111.506 38.23 110.49C38.23 109.474 37.4062 108.65 36.39 108.65C35.3738 108.65 34.55 109.474 34.55 110.49Z" fill="#7C7C7C"/>
<path d="M17.27 1.84C17.27 2.8562 18.0938 3.68 19.11 3.68C20.1262 3.68 20.95 2.8562 20.95 1.84C20.95 0.823796 20.1262 0 19.11 0C18.0938 0 17.27 0.823796 17.27 1.84Z" fill="#7C7C7C"/>
<path d="M17.27 19.9501C17.27 20.9663 18.0938 21.7901 19.11 21.7901C20.1262 21.7901 20.95 20.9663 20.95 19.9501C20.95 18.9339 20.1262 18.1101 19.11 18.1101C18.0938 18.1101 17.27 18.9339 17.27 19.9501Z" fill="#7C7C7C"/>
<path d="M17.27 38.05C17.27 39.0662 18.0938 39.89 19.11 39.89C20.1262 39.89 20.95 39.0662 20.95 38.05C20.95 37.0338 20.1262 36.21 19.11 36.21C18.0938 36.21 17.27 37.0338 17.27 38.05Z" fill="#7C7C7C"/>
<path d="M17.27 56.1601C17.27 57.1763 18.0938 58.0001 19.11 58.0001C20.1262 58.0001 20.95 57.1763 20.95 56.1601C20.95 55.1439 20.1262 54.3201 19.11 54.3201C18.0938 54.3201 17.27 55.1439 17.27 56.1601Z" fill="#7C7C7C"/>
<path d="M17.27 74.2699C17.27 75.2861 18.0938 76.1099 19.11 76.1099C20.1262 76.1099 20.95 75.2861 20.95 74.2699C20.95 73.2537 20.1262 72.4299 19.11 72.4299C18.0938 72.4299 17.27 73.2537 17.27 74.2699Z" fill="#7C7C7C"/>
<path d="M17.27 92.38C17.27 93.3962 18.0938 94.22 19.11 94.22C20.1262 94.22 20.95 93.3962 20.95 92.38C20.95 91.3638 20.1262 90.54 19.11 90.54C18.0938 90.54 17.27 91.3638 17.27 92.38Z" fill="#7C7C7C"/>
<path d="M17.27 110.49C17.27 111.506 18.0938 112.33 19.11 112.33C20.1262 112.33 20.95 111.506 20.95 110.49C20.95 109.474 20.1262 108.65 19.11 108.65C18.0938 108.65 17.27 109.474 17.27 110.49Z" fill="#7C7C7C"/>
<path d="M-0.0100594 1.84C-0.0100594 2.8562 0.813737 3.68 1.82994 3.68C2.84614 3.68 3.66994 2.8562 3.66994 1.84C3.66994 0.823796 2.84614 0 1.82994 0C0.813737 0 -0.0100594 0.823796 -0.0100594 1.84Z" fill="#7C7C7C"/>
<path d="M-0.0100594 19.9501C-0.0100594 20.9663 0.813737 21.7901 1.82994 21.7901C2.84614 21.7901 3.66994 20.9663 3.66994 19.9501C3.66994 18.9339 2.84614 18.1101 1.82994 18.1101C0.813737 18.1101 -0.0100594 18.9339 -0.0100594 19.9501Z" fill="#7C7C7C"/>
<path d="M-0.0100594 38.05C-0.0100594 39.0662 0.813737 39.89 1.82994 39.89C2.84614 39.89 3.66994 39.0662 3.66994 38.05C3.66994 37.0338 2.84614 36.21 1.82994 36.21C0.813737 36.21 -0.0100594 37.0338 -0.0100594 38.05Z" fill="#7C7C7C"/>
<path d="M-0.0100594 56.1601C-0.0100594 57.1763 0.813737 58.0001 1.82994 58.0001C2.84614 58.0001 3.66994 57.1763 3.66994 56.1601C3.66994 55.1439 2.84614 54.3201 1.82994 54.3201C0.813737 54.3201 -0.0100594 55.1439 -0.0100594 56.1601Z" fill="#7C7C7C"/>
<path d="M-0.0100594 74.2699C-0.0100594 75.2861 0.813737 76.1099 1.82994 76.1099C2.84614 76.1099 3.66994 75.2861 3.66994 74.2699C3.66994 73.2537 2.84614 72.4299 1.82994 72.4299C0.813737 72.4299 -0.0100594 73.2537 -0.0100594 74.2699Z" fill="#7C7C7C"/>
<path d="M-0.0100594 92.38C-0.0100594 93.3962 0.813737 94.22 1.82994 94.22C2.84614 94.22 3.66994 93.3962 3.66994 92.38C3.66994 91.3638 2.84614 90.54 1.82994 90.54C0.813737 90.54 -0.0100594 91.3638 -0.0100594 92.38Z" fill="#7C7C7C"/>
<path d="M-0.0100594 110.49C-0.0100594 111.506 0.813737 112.33 1.82994 112.33C2.84614 112.33 3.66994 111.506 3.66994 110.49C3.66994 109.474 2.84614 108.65 1.82994 108.65C0.813737 108.65 -0.0100594 109.474 -0.0100594 110.49Z" fill="#7C7C7C"/>
</g>
<defs>
<clipPath id="clip0_2254_15785">
<rect width="112.33" height="38.23" fill="white" transform="matrix(0 1 -1 0 38.23 0)"/>
</clipPath>
</defs>
</svg>
