<svg width="216" height="16" viewBox="0 0 216 16" fill="none" xmlns="http://www.w3.org/2000/svg">
<g clip-path="url(#clip0_2070_7679)">
<path d="M3.5471 0H0V16H3.5471V0Z" fill="#7C7C7C"/>
<path d="M16.3451 0H11.9502V16H16.3451V0Z" fill="#7C7C7C"/>
<path d="M46.6142 0H43.5283V16H46.6142V0Z" fill="#7C7C7C"/>
<path d="M54.1426 0H51.0566V16H54.1426V0Z" fill="#7C7C7C"/>
<path d="M74.2041 0H71.1182V16H74.2041V0Z" fill="#7C7C7C"/>
<path d="M92.5166 0H89.4307V16H92.5166V0Z" fill="#7C7C7C"/>
<path d="M124.047 0H120.961V16H124.047V0Z" fill="#7C7C7C"/>
<path d="M132.694 0H129.608V16H132.694V0Z" fill="#7C7C7C"/>
<path d="M182.727 0H179.641V16H182.727V0Z" fill="#7C7C7C"/>
<path d="M191.909 0H188.823V16H191.909V0Z" fill="#7C7C7C"/>
<path d="M201.093 0H198.007V16H201.093V0Z" fill="#7C7C7C"/>
<path d="M101.699 0H98.6133V16H101.699V0Z" fill="#7C7C7C"/>
<path d="M83.9709 0H80.1797V16H83.9709V0Z" fill="#7C7C7C"/>
<path d="M115.738 0H108.936V16H115.738V0Z" fill="#7C7C7C"/>
<path d="M171.8 0H165.581V16H171.8V0Z" fill="#7C7C7C"/>
<path d="M216.007 0H207.163V16H216.007V0Z" fill="#7C7C7C"/>
<path d="M149.067 0H138.134V16H149.067V0Z" fill="#7C7C7C"/>
<path d="M162.956 0H152.023V16H162.956V0Z" fill="#7C7C7C"/>
<path d="M25.1348 0H21.4453V16H25.1348V0Z" fill="#7C7C7C"/>
<path d="M40.5844 0H29.5361V16H40.5844V0Z" fill="#7C7C7C"/>
<path d="M68.8529 0H57.8047V16H68.8529V0Z" fill="#7C7C7C"/>
</g>
<defs>
<clipPath id="clip0_2070_7679">
<rect width="216" height="16" fill="white"/>
</clipPath>
</defs>
</svg>
