<svg width="40" height="40" viewBox="0 0 40 40" fill="none" xmlns="http://www.w3.org/2000/svg">
<g clip-path="url(#clip0_2286_14608)">
<path opacity="0.7" d="M4.81051 20.0001C4.81051 18.2063 5.11875 16.4478 5.73017 14.7803L1.21273 13.1279C0.409298 15.326 0 17.6403 0 20.0001C0 21.1471 0.101061 22.3043 0.293077 23.4311L5.03284 22.6125C4.88631 21.7535 4.81051 20.8793 4.81051 20.0051V20.0001Z" fill="#D9D9D9"/>
<path opacity="0.8" d="M12.4204 6.83169L10.0151 2.66797C6.98328 4.41633 4.44665 6.94285 2.69324 9.97469L6.8519 12.3901C8.19096 10.0859 10.1162 8.16569 12.4204 6.83674V6.83169Z" fill="#D9D9D9"/>
<path d="M22.6528 5.0379L23.4866 0.303183C22.3446 0.101061 21.1672 0 20 0C17.6604 0 15.3663 0.399191 13.1783 1.19252L14.8206 5.71501C17.3067 4.81556 20.0455 4.57807 22.6528 5.0379Z" fill="#D9D9D9"/>
<path opacity="0.1" d="M31.6423 10.2424L35.3259 7.14991C33.0672 4.46169 30.1415 2.40509 26.857 1.20752L25.2097 5.72495C27.7009 6.6345 29.9293 8.1959 31.6423 10.2424Z" fill="#D9D9D9"/>
<path opacity="0.6" d="M5.70999 25.1641L1.1875 26.8013C2.37497 30.0908 4.42146 33.0216 7.10463 35.2904L10.2072 31.6168C8.16577 29.8937 6.61448 27.6653 5.70999 25.1691V25.1641Z" fill="#D9D9D9"/>
<path opacity="0.2" d="M37.3219 10L33.1582 12.4053C34.4872 14.6993 35.1895 17.3269 35.1895 19.9949V20.0657H40V19.9949C40 16.4831 39.0753 13.0217 37.327 10H37.3219Z" fill="#D9D9D9"/>
<path opacity="0.3" d="M31.6018 29.8028L35.2754 32.9105C37.5442 30.2273 39.0702 26.9933 39.6867 23.5472L34.952 22.6982C34.482 25.3107 33.3249 27.7665 31.6018 29.8028Z" fill="#D9D9D9"/>
<path opacity="0.4" d="M22.5922 34.972L23.4058 39.7118C26.857 39.1206 30.1011 37.6148 32.7994 35.3661L29.717 31.6724C27.6705 33.3803 25.2046 34.5223 22.5872 34.972H22.5922Z" fill="#D9D9D9"/>
<path opacity="0.5" d="M9.94946 37.2915C12.9712 39.0499 16.4275 39.9848 19.9394 39.9949L19.9545 35.1844C17.2865 35.1793 14.664 34.4668 12.3749 33.1328L9.95452 37.2915H9.94946Z" fill="#D9D9D9"/>
<path d="M15.1339 24.7449C14.5225 24.3608 14.0424 23.8 13.6988 23.0673C13.3552 22.3346 13.1783 21.4604 13.1783 20.4447C13.1783 19.4291 13.3501 18.5549 13.6988 17.8222C14.0424 17.0895 14.5225 16.5286 15.1339 16.1446C15.7453 15.7605 16.4426 15.5635 17.2208 15.5635C17.999 15.5635 18.6963 15.7555 19.3077 16.1446C19.9191 16.5286 20.3992 17.0895 20.7428 17.8222C21.0864 18.5549 21.2632 19.4291 21.2632 20.4447C21.2632 21.4604 21.0914 22.3346 20.7428 23.0673C20.3992 23.8 19.9191 24.3608 19.3077 24.7449C18.6963 25.1289 17.999 25.326 17.2208 25.326C16.4426 25.326 15.7453 25.134 15.1339 24.7449ZM18.575 22.7388C18.9035 22.2436 19.0652 21.4806 19.0652 20.4498C19.0652 19.419 18.9035 18.6509 18.575 18.1607C18.2466 17.6655 17.7968 17.4179 17.2208 17.4179C16.6447 17.4179 16.2102 17.6655 15.8817 18.1607C15.5533 18.6559 15.3916 19.419 15.3916 20.4498C15.3916 21.4806 15.5533 22.2487 15.8817 22.7388C16.2102 23.234 16.6548 23.4816 17.2208 23.4816C17.7867 23.4816 18.2466 23.234 18.575 22.7388Z" fill="#D9D9D9"/>
<path d="M26.8266 25.1645H24.6437V17.4839H22.7589V15.7305H26.8266V25.1645Z" fill="#D9D9D9"/>
</g>
<defs>
<clipPath id="clip0_2286_14608">
<rect width="40" height="40" fill="white"/>
</clipPath>
</defs>
</svg>
