<svg width="40" height="40" viewBox="0 0 40 40" fill="none" xmlns="http://www.w3.org/2000/svg">
<g clip-path="url(#clip0_2286_14642)">
<path opacity="0.7" d="M4.81051 20.0001C4.81051 18.2063 5.11875 16.4478 5.73017 14.7803L1.21273 13.1279C0.409298 15.326 0 17.6403 0 20.0001C0 21.1471 0.101061 22.3043 0.293077 23.4311L5.03284 22.6125C4.88631 21.7535 4.81051 20.8793 4.81051 20.0051V20.0001Z" fill="#D9D9D9"/>
<path opacity="0.8" d="M12.4204 6.83169L10.0151 2.66797C6.98328 4.41633 4.44665 6.94285 2.69324 9.97469L6.8519 12.3901C8.19096 10.0859 10.1162 8.16569 12.4204 6.83674V6.83169Z" fill="#D9D9D9"/>
<path d="M22.6528 5.0379L23.4866 0.303183C22.3446 0.101061 21.1672 0 20 0C17.6604 0 15.3663 0.399191 13.1783 1.19252L14.8206 5.71501C17.3067 4.81556 20.0455 4.57807 22.6528 5.0379Z" fill="#D9D9D9"/>
<path opacity="0.1" d="M31.6423 10.2424L35.3259 7.14991C33.0672 4.46169 30.1415 2.40509 26.857 1.20752L25.2097 5.72495C27.7009 6.6345 29.9293 8.1959 31.6423 10.2424Z" fill="#D9D9D9"/>
<path opacity="0.6" d="M5.70999 25.1641L1.1875 26.8013C2.37497 30.0908 4.42146 33.0216 7.10463 35.2904L10.2072 31.6168C8.16577 29.8937 6.61448 27.6653 5.70999 25.1691V25.1641Z" fill="#D9D9D9"/>
<path opacity="0.2" d="M37.3219 10L33.1582 12.4053C34.4872 14.6993 35.1895 17.3269 35.1895 19.9949V20.0657H40V19.9949C40 16.4831 39.0753 13.0217 37.327 10H37.3219Z" fill="#D9D9D9"/>
<path opacity="0.3" d="M31.6018 29.8028L35.2754 32.9105C37.5442 30.2273 39.0702 26.9933 39.6867 23.5472L34.952 22.6982C34.482 25.3107 33.3249 27.7665 31.6018 29.8028Z" fill="#D9D9D9"/>
<path opacity="0.4" d="M22.5922 34.972L23.4058 39.7118C26.857 39.1206 30.1011 37.6148 32.7994 35.3661L29.717 31.6724C27.6705 33.3803 25.2046 34.5223 22.5872 34.972H22.5922Z" fill="#D9D9D9"/>
<path opacity="0.5" d="M9.94946 37.2915C12.9712 39.0499 16.4275 39.9848 19.9394 39.9949L19.9545 35.1844C17.2865 35.1793 14.664 34.4668 12.3749 33.1328L9.95452 37.2915H9.94946Z" fill="#D9D9D9"/>
<path d="M14.1384 24.2952C13.527 23.9111 13.0469 23.3503 12.7033 22.6176C12.3597 21.8849 12.1829 21.0107 12.1829 19.995C12.1829 18.9794 12.3547 18.1052 12.7033 17.3725C13.0469 16.6398 13.527 16.0789 14.1384 15.6949C14.7498 15.3108 15.4471 15.1138 16.2253 15.1138C17.0035 15.1138 17.7008 15.3058 18.3122 15.6949C18.9236 16.0789 19.4037 16.6398 19.7473 17.3725C20.0909 18.1052 20.2678 18.9794 20.2678 19.995C20.2678 21.0107 20.0959 21.8849 19.7473 22.6176C19.4037 23.3503 18.9236 23.9111 18.3122 24.2952C17.7008 24.6792 17.0035 24.8763 16.2253 24.8763C15.4471 24.8763 14.7498 24.6843 14.1384 24.2952ZM17.5795 22.2891C17.908 21.7939 18.0697 21.0309 18.0697 20.0001C18.0697 18.9693 17.908 18.2012 17.5795 17.711C17.2511 17.2158 16.8014 16.9682 16.2253 16.9682C15.6493 16.9682 15.2147 17.2158 14.8862 17.711C14.5578 18.2062 14.3961 18.9693 14.3961 20.0001C14.3961 21.0309 14.5578 21.799 14.8862 22.2891C15.2147 22.7843 15.6594 23.0319 16.2253 23.0319C16.7912 23.0319 17.2511 22.7843 17.5795 22.2891Z" fill="#D9D9D9"/>
<path d="M27.1551 20.0458C27.5947 20.5258 27.817 21.1221 27.817 21.8295C27.817 22.3753 27.6705 22.8806 27.3875 23.3454C27.0995 23.8103 26.6599 24.1792 26.0737 24.4571C25.4825 24.735 24.765 24.8765 23.911 24.8765C23.244 24.8765 22.5922 24.7906 21.9504 24.6138C21.3087 24.4369 20.763 24.1893 20.3132 23.8659L21.1621 22.1933C21.5209 22.4612 21.9353 22.6734 22.4102 22.8199C22.8802 22.9665 23.3653 23.0423 23.8605 23.0423C24.4062 23.0423 24.8408 22.9361 25.1541 22.7239C25.4673 22.5117 25.624 22.2136 25.624 21.8295C25.624 21.0564 25.0328 20.6724 23.8605 20.6724H22.865V19.2323L24.8054 17.0342H20.7882V15.2808H27.3926V16.6956L25.2652 19.1211C26.0939 19.2575 26.7256 19.5658 27.1652 20.0458H27.1551Z" fill="#D9D9D9"/>
</g>
<defs>
<clipPath id="clip0_2286_14642">
<rect width="40" height="40" fill="white"/>
</clipPath>
</defs>
</svg>
