<svg width="40" height="40" viewBox="0 0 40 40" fill="none" xmlns="http://www.w3.org/2000/svg">
<g clip-path="url(#clip0_2286_14659)">
<path opacity="0.7" d="M4.81051 20.0001C4.81051 18.2063 5.11875 16.4478 5.73017 14.7803L1.21273 13.1279C0.409298 15.326 0 17.6403 0 20.0001C0 21.1471 0.101061 22.3043 0.293077 23.4311L5.03284 22.6125C4.88631 21.7535 4.81051 20.8793 4.81051 20.0051V20.0001Z" fill="#D9D9D9"/>
<path opacity="0.8" d="M12.4204 6.83169L10.0151 2.66797C6.98328 4.41633 4.44665 6.94285 2.69324 9.97469L6.8519 12.3901C8.19096 10.0859 10.1162 8.16569 12.4204 6.83674V6.83169Z" fill="#D9D9D9"/>
<path d="M22.6528 5.0379L23.4866 0.303183C22.3446 0.101061 21.1672 0 20 0C17.6604 0 15.3663 0.399191 13.1783 1.19252L14.8206 5.71501C17.3067 4.81556 20.0455 4.57807 22.6528 5.0379Z" fill="#D9D9D9"/>
<path opacity="0.1" d="M31.6423 10.2424L35.3259 7.14991C33.0672 4.46169 30.1415 2.40509 26.857 1.20752L25.2097 5.72495C27.7009 6.6345 29.9293 8.1959 31.6423 10.2424Z" fill="#D9D9D9"/>
<path opacity="0.6" d="M5.70999 25.1641L1.1875 26.8013C2.37497 30.0908 4.42146 33.0216 7.10463 35.2904L10.2072 31.6168C8.16577 29.8937 6.61448 27.6653 5.70999 25.1691V25.1641Z" fill="#D9D9D9"/>
<path opacity="0.2" d="M37.3219 10L33.1582 12.4053C34.4872 14.6993 35.1895 17.3269 35.1895 19.9949V20.0657H40V19.9949C40 16.4831 39.0753 13.0217 37.327 10H37.3219Z" fill="#D9D9D9"/>
<path opacity="0.3" d="M31.6018 29.8028L35.2754 32.9105C37.5442 30.2273 39.0702 26.9933 39.6867 23.5472L34.952 22.6982C34.482 25.3107 33.3249 27.7665 31.6018 29.8028Z" fill="#D9D9D9"/>
<path opacity="0.4" d="M22.5922 34.972L23.4058 39.7118C26.857 39.1206 30.1011 37.6148 32.7994 35.3661L29.717 31.6724C27.6705 33.3803 25.2046 34.5223 22.5872 34.972H22.5922Z" fill="#D9D9D9"/>
<path opacity="0.5" d="M9.94946 37.2915C12.9712 39.0499 16.4275 39.9848 19.9394 39.9949L19.9545 35.1844C17.2865 35.1793 14.664 34.4668 12.3749 33.1328L9.95452 37.2915H9.94946Z" fill="#D9D9D9"/>
<path d="M13.6281 24.2952C13.0167 23.9111 12.5367 23.3503 12.1931 22.6176C11.8495 21.8849 11.6726 21.0107 11.6726 19.995C11.6726 18.9794 11.8444 18.1052 12.1931 17.3725C12.5367 16.6398 13.0167 16.0789 13.6281 15.6949C14.2396 15.3108 14.9369 15.1138 15.7151 15.1138C16.4932 15.1138 17.1905 15.3058 17.802 15.6949C18.4134 16.0789 18.8934 16.6398 19.237 17.3725C19.5806 18.1052 19.7575 18.9794 19.7575 19.995C19.7575 21.0107 19.5857 21.8849 19.237 22.6176C18.8934 23.3503 18.4134 23.9111 17.802 24.2952C17.1905 24.6792 16.4932 24.8763 15.7151 24.8763C14.9369 24.8763 14.2396 24.6843 13.6281 24.2952ZM17.0693 22.2891C17.3977 21.7939 17.5594 21.0309 17.5594 20.0001C17.5594 18.9693 17.3977 18.2012 17.0693 17.711C16.7408 17.2158 16.2911 16.9682 15.7151 16.9682C15.139 16.9682 14.7044 17.2158 14.376 17.711C14.0475 18.2062 13.8858 18.9693 13.8858 20.0001C13.8858 21.0309 14.0475 21.799 14.376 22.2891C14.7044 22.7843 15.1491 23.0319 15.7151 23.0319C16.281 23.0319 16.7408 22.7843 17.0693 22.2891Z" fill="#D9D9D9"/>
<path d="M26.7914 22.734V24.7148H24.664V22.734H19.5857V21.2636L24.0324 15.2808H26.3214L22.1981 20.9553H24.7297V19.1918H26.7914V20.9553H28.3275V22.734H26.7914Z" fill="#D9D9D9"/>
</g>
<defs>
<clipPath id="clip0_2286_14659">
<rect width="40" height="40" fill="white"/>
</clipPath>
</defs>
</svg>
