<svg width="40" height="40" viewBox="0 0 40 40" fill="none" xmlns="http://www.w3.org/2000/svg">
<g clip-path="url(#clip0_2286_14625)">
<path opacity="0.7" d="M4.81051 20.0001C4.81051 18.2063 5.11875 16.4478 5.73017 14.7803L1.21273 13.1279C0.409298 15.326 0 17.6403 0 20.0001C0 21.1471 0.101061 22.3043 0.293077 23.4311L5.03284 22.6125C4.88631 21.7535 4.81051 20.8793 4.81051 20.0051V20.0001Z" fill="#D9D9D9"/>
<path opacity="0.8" d="M12.4204 6.83169L10.0151 2.66797C6.98328 4.41633 4.44665 6.94285 2.69324 9.97469L6.8519 12.3901C8.19096 10.0859 10.1162 8.16569 12.4204 6.83674V6.83169Z" fill="#D9D9D9"/>
<path d="M22.6528 5.0379L23.4866 0.303183C22.3446 0.101061 21.1672 0 20 0C17.6604 0 15.3663 0.399191 13.1783 1.19252L14.8206 5.71501C17.3067 4.81556 20.0455 4.57807 22.6528 5.0379Z" fill="#D9D9D9"/>
<path opacity="0.1" d="M31.6423 10.2424L35.3259 7.14991C33.0672 4.46169 30.1415 2.40509 26.857 1.20752L25.2097 5.72495C27.7009 6.6345 29.9293 8.1959 31.6423 10.2424Z" fill="#D9D9D9"/>
<path opacity="0.6" d="M5.70999 25.1641L1.1875 26.8013C2.37497 30.0908 4.42146 33.0216 7.10463 35.2904L10.2072 31.6168C8.16577 29.8937 6.61448 27.6653 5.70999 25.1691V25.1641Z" fill="#D9D9D9"/>
<path opacity="0.2" d="M37.3219 10L33.1582 12.4053C34.4872 14.6993 35.1895 17.3269 35.1895 19.9949V20.0657H40V19.9949C40 16.4831 39.0753 13.0217 37.327 10H37.3219Z" fill="#D9D9D9"/>
<path opacity="0.3" d="M31.6018 29.8028L35.2754 32.9105C37.5442 30.2273 39.0702 26.9933 39.6867 23.5472L34.952 22.6982C34.482 25.3107 33.3249 27.7665 31.6018 29.8028Z" fill="#D9D9D9"/>
<path opacity="0.4" d="M22.5922 34.972L23.4058 39.7118C26.857 39.1206 30.1011 37.6148 32.7994 35.3661L29.717 31.6724C27.6705 33.3803 25.2046 34.5223 22.5872 34.972H22.5922Z" fill="#D9D9D9"/>
<path opacity="0.5" d="M9.94946 37.2915C12.9712 39.0499 16.4275 39.9848 19.9394 39.9949L19.9545 35.1844C17.2865 35.1793 14.664 34.4668 12.3749 33.1328L9.95452 37.2915H9.94946Z" fill="#D9D9D9"/>
<path d="M14.093 24.2952C13.4816 23.9111 13.0015 23.3503 12.6579 22.6176C12.3143 21.8849 12.1375 21.0107 12.1375 19.995C12.1375 18.9794 12.3093 18.1052 12.6579 17.3725C13.0015 16.6398 13.4816 16.0789 14.093 15.6949C14.7044 15.3108 15.4017 15.1138 16.1799 15.1138C16.9581 15.1138 17.6554 15.3058 18.2668 15.6949C18.8782 16.0789 19.3583 16.6398 19.7019 17.3725C20.0455 18.1052 20.2223 18.9794 20.2223 19.995C20.2223 21.0107 20.0505 21.8849 19.7019 22.6176C19.3583 23.3503 18.8782 23.9111 18.2668 24.2952C17.6554 24.6792 16.9581 24.8763 16.1799 24.8763C15.4017 24.8763 14.7044 24.6843 14.093 24.2952ZM17.5341 22.2891C17.8626 21.7939 18.0243 21.0309 18.0243 20.0001C18.0243 18.9693 17.8626 18.2012 17.5341 17.711C17.2057 17.2158 16.7559 16.9682 16.1799 16.9682C15.6038 16.9682 15.1693 17.2158 14.8408 17.711C14.5124 18.2062 14.3507 18.9693 14.3507 20.0001C14.3507 21.0309 14.5124 21.799 14.8408 22.2891C15.1693 22.7843 15.614 23.0319 16.1799 23.0319C16.7458 23.0319 17.2057 22.7843 17.5341 22.2891Z" fill="#D9D9D9"/>
<path d="M27.8626 24.7144H20.7327V23.2996L24.3709 19.8635C24.755 19.4946 25.0177 19.1763 25.1542 18.9135C25.2906 18.6507 25.3563 18.388 25.3563 18.1252C25.3563 17.7462 25.23 17.4582 24.9722 17.2561C24.7145 17.054 24.3406 16.9529 23.8454 16.9529C23.4311 16.9529 23.0571 17.0338 22.7287 17.1904C22.3952 17.3471 22.1173 17.5845 21.8949 17.8978L20.3032 16.8721C20.6721 16.3263 21.1774 15.8968 21.8242 15.5835C22.471 15.2753 23.2138 15.1187 24.0475 15.1187C24.7499 15.1187 25.3613 15.2349 25.8869 15.4623C26.4124 15.6896 26.8217 16.013 27.1147 16.4324C27.4078 16.8519 27.5544 17.342 27.5544 17.9079C27.5544 18.4183 27.4482 18.8983 27.231 19.3481C27.0137 19.7978 26.5993 20.3081 25.9778 20.8842L23.81 22.9307H27.8676V24.7094L27.8626 24.7144Z" fill="#D9D9D9"/>
</g>
<defs>
<clipPath id="clip0_2286_14625">
<rect width="40" height="40" fill="white"/>
</clipPath>
</defs>
</svg>
