<?xml version="1.0" encoding="UTF-8"?>
<svg id="Layer_2" data-name="Layer 2" xmlns="http://www.w3.org/2000/svg" xmlns:xlink="http://www.w3.org/1999/xlink" viewBox="0 0 1551.26 70">
  <defs>
    <clipPath id="clippath">
      <rect width="1551.26" height="70" fill="none"/>
    </clipPath>
  </defs>
  <g id="_图层_1" data-name="图层 1">
    <g opacity=".1">
      <g clip-path="url(#clippath)">
        <g>
          <polygon points="-50.6 75.08 -51.49 70.58 4.17 -5.08 5.06 -.58 -50.6 75.08" fill="#fff"/>
          <polygon points="-39.96 75.08 -40.85 70.58 14.82 -5.08 15.71 -.58 -39.96 75.08" fill="#fff"/>
          <polygon points="-29.31 75.08 -30.2 70.58 25.46 -5.08 26.35 -.58 -29.31 75.08" fill="#fff"/>
          <polygon points="-18.67 75.08 -19.56 70.58 36.11 -5.08 37 -.58 -18.67 75.08" fill="#fff"/>
          <polygon points="-8.02 75.08 -8.91 70.58 46.75 -5.08 47.64 -.58 -8.02 75.08" fill="#fff"/>
          <polygon points="2.62 75.08 1.73 70.58 57.4 -5.08 58.29 -.58 2.62 75.08" fill="#fff"/>
          <polygon points="13.27 75.08 12.38 70.58 68.04 -5.08 68.94 -.58 13.27 75.08" fill="#fff"/>
          <polygon points="23.92 75.08 23.03 70.58 78.69 -5.08 79.58 -.58 23.92 75.08" fill="#fff"/>
          <polygon points="34.56 75.08 33.67 70.58 89.34 -5.08 90.23 -.58 34.56 75.08" fill="#fff"/>
          <polygon points="45.21 75.08 44.32 70.58 99.98 -5.08 100.87 -.58 45.21 75.08" fill="#fff"/>
          <polygon points="55.85 75.08 54.96 70.58 110.63 -5.08 111.52 -.58 55.85 75.08" fill="#fff"/>
          <polygon points="66.5 75.08 65.61 70.58 121.27 -5.08 122.16 -.58 66.5 75.08" fill="#fff"/>
          <polygon points="77.14 75.08 76.25 70.58 131.92 -5.08 132.81 -.58 77.14 75.08" fill="#fff"/>
          <polygon points="87.79 75.08 86.9 70.58 142.56 -5.08 143.45 -.58 87.79 75.08" fill="#fff"/>
          <polygon points="98.43 75.08 97.54 70.58 153.21 -5.08 154.1 -.58 98.43 75.08" fill="#fff"/>
          <polygon points="109.08 75.08 108.19 70.58 163.85 -5.08 164.74 -.58 109.08 75.08" fill="#fff"/>
          <polygon points="119.72 75.08 118.83 70.58 174.5 -5.08 175.39 -.58 119.72 75.08" fill="#fff"/>
          <polygon points="130.37 75.08 129.48 70.58 185.15 -5.08 186.04 -.58 130.37 75.08" fill="#fff"/>
          <polygon points="141.02 75.08 140.13 70.58 195.79 -5.08 196.68 -.58 141.02 75.08" fill="#fff"/>
          <polygon points="151.66 75.08 150.77 70.58 206.44 -5.08 207.33 -.58 151.66 75.08" fill="#fff"/>
          <polygon points="162.31 75.08 161.42 70.58 217.08 -5.08 217.97 -.58 162.31 75.08" fill="#fff"/>
          <polygon points="172.95 75.08 172.06 70.58 227.73 -5.08 228.62 -.58 172.95 75.08" fill="#fff"/>
          <polygon points="183.6 75.08 182.71 70.58 238.37 -5.08 239.26 -.58 183.6 75.08" fill="#fff"/>
          <polygon points="194.24 75.08 193.35 70.58 249.02 -5.08 249.91 -.58 194.24 75.08" fill="#fff"/>
          <polygon points="204.89 75.08 204 70.58 259.66 -5.08 260.55 -.58 204.89 75.08" fill="#fff"/>
          <polygon points="215.53 75.08 214.64 70.58 270.31 -5.08 271.2 -.58 215.53 75.08" fill="#fff"/>
          <polygon points="226.18 75.08 225.29 70.58 280.95 -5.08 281.84 -.58 226.18 75.08" fill="#fff"/>
          <polygon points="236.82 75.08 235.94 70.58 291.6 -5.08 292.49 -.58 236.82 75.08" fill="#fff"/>
          <polygon points="247.47 75.08 246.58 70.58 302.25 -5.08 303.14 -.58 247.47 75.08" fill="#fff"/>
          <polygon points="258.12 75.08 257.23 70.58 312.89 -5.08 313.78 -.58 258.12 75.08" fill="#fff"/>
          <polygon points="268.76 75.08 267.87 70.58 323.54 -5.08 324.43 -.58 268.76 75.08" fill="#fff"/>
          <polygon points="279.41 75.08 278.52 70.58 334.18 -5.08 335.07 -.58 279.41 75.08" fill="#fff"/>
          <polygon points="290.05 75.08 289.16 70.58 344.83 -5.08 345.72 -.58 290.05 75.08" fill="#fff"/>
          <polygon points="300.7 75.08 299.81 70.58 355.47 -5.08 356.36 -.58 300.7 75.08" fill="#fff"/>
          <polygon points="311.34 75.08 310.45 70.58 366.12 -5.08 367.01 -.58 311.34 75.08" fill="#fff"/>
          <polygon points="321.99 75.08 321.1 70.58 376.76 -5.08 377.65 -.58 321.99 75.08" fill="#fff"/>
          <polygon points="332.63 75.08 331.74 70.58 387.41 -5.08 388.3 -.58 332.63 75.08" fill="#fff"/>
          <polygon points="343.28 75.08 342.39 70.58 398.05 -5.08 398.94 -.58 343.28 75.08" fill="#fff"/>
          <polygon points="353.93 75.08 353.04 70.58 408.7 -5.08 409.59 -.58 353.93 75.08" fill="#fff"/>
          <polygon points="364.57 75.08 363.68 70.58 419.35 -5.08 420.24 -.58 364.57 75.08" fill="#fff"/>
          <polygon points="375.22 75.08 374.33 70.58 429.99 -5.08 430.88 -.58 375.22 75.08" fill="#fff"/>
          <polygon points="385.86 75.08 384.97 70.58 440.64 -5.08 441.53 -.58 385.86 75.08" fill="#fff"/>
          <polygon points="396.51 75.08 395.62 70.58 451.28 -5.08 452.17 -.58 396.51 75.08" fill="#fff"/>
          <polygon points="407.15 75.08 406.26 70.58 461.93 -5.08 462.82 -.58 407.15 75.08" fill="#fff"/>
          <polygon points="417.8 75.08 416.91 70.58 472.57 -5.08 473.46 -.58 417.8 75.08" fill="#fff"/>
          <polygon points="428.44 75.08 427.55 70.58 483.22 -5.08 484.11 -.58 428.44 75.08" fill="#fff"/>
          <polygon points="439.09 75.08 438.2 70.58 493.86 -5.08 494.75 -.58 439.09 75.08" fill="#fff"/>
          <polygon points="449.73 75.08 448.84 70.58 504.51 -5.08 505.4 -.58 449.73 75.08" fill="#fff"/>
          <polygon points="460.38 75.08 459.49 70.58 515.15 -5.08 516.04 -.58 460.38 75.08" fill="#fff"/>
          <polygon points="471.03 75.08 470.14 70.58 525.8 -5.08 526.69 -.58 471.03 75.08" fill="#fff"/>
          <polygon points="481.67 75.08 480.78 70.58 536.45 -5.08 537.34 -.58 481.67 75.08" fill="#fff"/>
          <polygon points="492.32 75.08 491.43 70.58 547.09 -5.08 547.98 -.58 492.32 75.08" fill="#fff"/>
          <polygon points="502.96 75.08 502.07 70.58 557.74 -5.08 558.63 -.58 502.96 75.08" fill="#fff"/>
          <polygon points="513.61 75.08 512.72 70.58 568.38 -5.08 569.27 -.58 513.61 75.08" fill="#fff"/>
          <polygon points="524.25 75.08 523.36 70.58 579.03 -5.08 579.92 -.58 524.25 75.08" fill="#fff"/>
          <polygon points="534.9 75.08 534.01 70.58 589.67 -5.08 590.56 -.58 534.9 75.08" fill="#fff"/>
          <polygon points="545.54 75.08 544.65 70.58 600.32 -5.08 601.21 -.58 545.54 75.08" fill="#fff"/>
          <polygon points="556.19 75.08 555.3 70.58 610.96 -5.08 611.85 -.58 556.19 75.08" fill="#fff"/>
          <polygon points="566.83 75.08 565.94 70.58 621.61 -5.08 622.5 -.58 566.83 75.08" fill="#fff"/>
          <polygon points="577.48 75.08 576.59 70.58 632.26 -5.08 633.15 -.58 577.48 75.08" fill="#fff"/>
          <polygon points="588.13 75.08 587.24 70.58 642.9 -5.08 643.79 -.58 588.13 75.08" fill="#fff"/>
          <polygon points="598.77 75.08 597.88 70.58 653.55 -5.08 654.44 -.58 598.77 75.08" fill="#fff"/>
          <polygon points="609.42 75.08 608.53 70.58 664.19 -5.08 665.08 -.58 609.42 75.08" fill="#fff"/>
          <polygon points="620.06 75.08 619.17 70.58 674.84 -5.08 675.73 -.58 620.06 75.08" fill="#fff"/>
          <polygon points="630.71 75.08 629.82 70.58 685.48 -5.08 686.37 -.58 630.71 75.08" fill="#fff"/>
          <polygon points="641.35 75.08 640.46 70.58 696.13 -5.08 697.02 -.58 641.35 75.08" fill="#fff"/>
          <polygon points="652 75.08 651.11 70.58 706.77 -5.08 707.66 -.58 652 75.08" fill="#fff"/>
          <polygon points="662.64 75.08 661.75 70.58 717.42 -5.08 718.31 -.58 662.64 75.08" fill="#fff"/>
          <polygon points="673.29 75.08 672.4 70.58 728.06 -5.08 728.95 -.58 673.29 75.08" fill="#fff"/>
          <polygon points="683.93 75.08 683.04 70.58 738.71 -5.08 739.6 -.58 683.93 75.08" fill="#fff"/>
          <polygon points="694.58 75.08 693.69 70.58 749.36 -5.08 750.25 -.58 694.58 75.08" fill="#fff"/>
          <polygon points="705.23 75.08 704.34 70.58 760 -5.08 760.89 -.58 705.23 75.08" fill="#fff"/>
          <polygon points="715.87 75.08 714.98 70.58 770.65 -5.08 771.54 -.58 715.87 75.08" fill="#fff"/>
          <polygon points="726.52 75.08 725.63 70.58 781.29 -5.08 782.18 -.58 726.52 75.08" fill="#fff"/>
          <polygon points="737.16 75.08 736.27 70.58 791.94 -5.08 792.83 -.58 737.16 75.08" fill="#fff"/>
          <polygon points="747.81 75.08 746.92 70.58 802.58 -5.08 803.47 -.58 747.81 75.08" fill="#fff"/>
          <polygon points="758.45 75.08 757.56 70.58 813.23 -5.08 814.12 -.58 758.45 75.08" fill="#fff"/>
          <polygon points="769.1 75.08 768.21 70.58 823.87 -5.08 824.76 -.58 769.1 75.08" fill="#fff"/>
          <polygon points="779.74 75.08 778.85 70.58 834.52 -5.08 835.41 -.58 779.74 75.08" fill="#fff"/>
          <polygon points="790.39 75.08 789.5 70.58 845.16 -5.08 846.05 -.58 790.39 75.08" fill="#fff"/>
          <polygon points="801.03 75.08 800.15 70.58 855.81 -5.08 856.7 -.58 801.03 75.08" fill="#fff"/>
          <polygon points="811.68 75.08 810.79 70.58 866.46 -5.08 867.35 -.58 811.68 75.08" fill="#fff"/>
          <polygon points="822.33 75.08 821.44 70.58 877.1 -5.08 877.99 -.58 822.33 75.08" fill="#fff"/>
          <polygon points="832.97 75.08 832.08 70.58 887.75 -5.08 888.64 -.58 832.97 75.08" fill="#fff"/>
          <polygon points="843.62 75.08 842.73 70.58 898.39 -5.08 899.28 -.58 843.62 75.08" fill="#fff"/>
          <polygon points="854.26 75.08 853.37 70.58 909.04 -5.08 909.93 -.58 854.26 75.08" fill="#fff"/>
          <polygon points="864.91 75.08 864.02 70.58 919.68 -5.08 920.57 -.58 864.91 75.08" fill="#fff"/>
          <polygon points="875.55 75.08 874.66 70.58 930.33 -5.08 931.22 -.58 875.55 75.08" fill="#fff"/>
          <polygon points="886.2 75.08 885.31 70.58 940.97 -5.08 941.86 -.58 886.2 75.08" fill="#fff"/>
          <polygon points="896.84 75.08 895.95 70.58 951.62 -5.08 952.51 -.58 896.84 75.08" fill="#fff"/>
          <polygon points="907.49 75.08 906.6 70.58 962.26 -5.08 963.15 -.58 907.49 75.08" fill="#fff"/>
          <polygon points="918.14 75.08 917.25 70.58 972.91 -5.08 973.8 -.58 918.14 75.08" fill="#fff"/>
          <polygon points="928.78 75.08 927.89 70.58 983.56 -5.08 984.45 -.58 928.78 75.08" fill="#fff"/>
          <polygon points="939.43 75.08 938.54 70.58 994.2 -5.08 995.09 -.58 939.43 75.08" fill="#fff"/>
          <polygon points="950.07 75.08 949.18 70.58 1004.85 -5.08 1005.74 -.58 950.07 75.08" fill="#fff"/>
          <polygon points="960.72 75.08 959.83 70.58 1015.49 -5.08 1016.38 -.58 960.72 75.08" fill="#fff"/>
          <polygon points="971.36 75.08 970.47 70.58 1026.14 -5.08 1027.03 -.58 971.36 75.08" fill="#fff"/>
          <polygon points="982.01 75.08 981.12 70.58 1036.78 -5.08 1037.67 -.58 982.01 75.08" fill="#fff"/>
          <polygon points="992.65 75.08 991.76 70.58 1047.43 -5.08 1048.32 -.58 992.65 75.08" fill="#fff"/>
          <polygon points="1003.3 75.08 1002.41 70.58 1058.07 -5.08 1058.96 -.58 1003.3 75.08" fill="#fff"/>
          <polygon points="1013.94 75.08 1013.05 70.58 1068.72 -5.08 1069.61 -.58 1013.94 75.08" fill="#fff"/>
          <polygon points="1024.59 75.08 1023.7 70.58 1079.36 -5.08 1080.25 -.58 1024.59 75.08" fill="#fff"/>
          <polygon points="1035.24 75.08 1034.35 70.58 1090.01 -5.08 1090.9 -.58 1035.24 75.08" fill="#fff"/>
          <polygon points="1045.88 75.08 1044.99 70.58 1100.66 -5.08 1101.55 -.58 1045.88 75.08" fill="#fff"/>
          <polygon points="1056.53 75.08 1055.64 70.58 1111.3 -5.08 1112.19 -.58 1056.53 75.08" fill="#fff"/>
          <polygon points="1067.17 75.08 1066.28 70.58 1121.95 -5.08 1122.84 -.58 1067.17 75.08" fill="#fff"/>
          <polygon points="1077.82 75.08 1076.93 70.58 1132.59 -5.08 1133.48 -.58 1077.82 75.08" fill="#fff"/>
          <polygon points="1088.46 75.08 1087.57 70.58 1143.24 -5.08 1144.13 -.58 1088.46 75.08" fill="#fff"/>
          <polygon points="1099.11 75.08 1098.22 70.58 1153.88 -5.08 1154.77 -.58 1099.11 75.08" fill="#fff"/>
          <polygon points="1109.75 75.08 1108.86 70.58 1164.53 -5.08 1165.42 -.58 1109.75 75.08" fill="#fff"/>
          <polygon points="1120.4 75.08 1119.51 70.58 1175.17 -5.08 1176.06 -.58 1120.4 75.08" fill="#fff"/>
          <polygon points="1131.04 75.08 1130.15 70.58 1185.82 -5.08 1186.71 -.58 1131.04 75.08" fill="#fff"/>
          <polygon points="1141.69 75.08 1140.8 70.58 1196.46 -5.08 1197.36 -.58 1141.69 75.08" fill="#fff"/>
          <polygon points="1152.34 75.08 1151.45 70.58 1207.11 -5.08 1208 -.58 1152.34 75.08" fill="#fff"/>
          <polygon points="1162.98 75.08 1162.09 70.58 1217.76 -5.08 1218.65 -.58 1162.98 75.08" fill="#fff"/>
          <polygon points="1173.63 75.08 1172.74 70.58 1228.4 -5.08 1229.29 -.58 1173.63 75.08" fill="#fff"/>
          <polygon points="1184.27 75.08 1183.38 70.58 1239.05 -5.08 1239.94 -.58 1184.27 75.08" fill="#fff"/>
          <polygon points="1194.92 75.08 1194.03 70.58 1249.69 -5.08 1250.58 -.58 1194.92 75.08" fill="#fff"/>
          <polygon points="1205.56 75.08 1204.67 70.58 1260.34 -5.08 1261.23 -.58 1205.56 75.08" fill="#fff"/>
          <polygon points="1216.21 75.08 1215.32 70.58 1270.98 -5.08 1271.87 -.58 1216.21 75.08" fill="#fff"/>
          <polygon points="1226.85 75.08 1225.96 70.58 1281.63 -5.08 1282.52 -.58 1226.85 75.08" fill="#fff"/>
          <polygon points="1237.5 75.08 1236.61 70.58 1292.27 -5.08 1293.16 -.58 1237.5 75.08" fill="#fff"/>
          <polygon points="1248.14 75.08 1247.25 70.58 1302.92 -5.08 1303.81 -.58 1248.14 75.08" fill="#fff"/>
          <polygon points="1258.79 75.08 1257.9 70.58 1313.57 -5.08 1314.46 -.58 1258.79 75.08" fill="#fff"/>
          <polygon points="1269.44 75.08 1268.55 70.58 1324.21 -5.08 1325.1 -.58 1269.44 75.08" fill="#fff"/>
          <polygon points="1280.08 75.08 1279.19 70.58 1334.86 -5.08 1335.75 -.58 1280.08 75.08" fill="#fff"/>
          <polygon points="1290.73 75.08 1289.84 70.58 1345.5 -5.08 1346.39 -.58 1290.73 75.08" fill="#fff"/>
          <polygon points="1301.37 75.08 1300.48 70.58 1356.15 -5.08 1357.04 -.58 1301.37 75.08" fill="#fff"/>
          <polygon points="1312.02 75.08 1311.13 70.58 1366.79 -5.08 1367.68 -.58 1312.02 75.08" fill="#fff"/>
          <polygon points="1322.66 75.08 1321.77 70.58 1377.44 -5.08 1378.33 -.58 1322.66 75.08" fill="#fff"/>
          <polygon points="1333.31 75.08 1332.42 70.58 1388.08 -5.08 1388.97 -.58 1333.31 75.08" fill="#fff"/>
          <polygon points="1343.95 75.08 1343.06 70.58 1398.73 -5.08 1399.62 -.58 1343.95 75.08" fill="#fff"/>
          <polygon points="1354.6 75.08 1353.71 70.58 1409.37 -5.08 1410.26 -.58 1354.6 75.08" fill="#fff"/>
          <polygon points="1365.24 75.08 1364.36 70.58 1420.02 -5.08 1420.91 -.58 1365.24 75.08" fill="#fff"/>
          <polygon points="1375.89 75.08 1375 70.58 1430.67 -5.08 1431.56 -.58 1375.89 75.08" fill="#fff"/>
          <polygon points="1386.54 75.08 1385.65 70.58 1441.31 -5.08 1442.2 -.58 1386.54 75.08" fill="#fff"/>
          <polygon points="1397.18 75.08 1396.29 70.58 1451.96 -5.08 1452.85 -.58 1397.18 75.08" fill="#fff"/>
          <polygon points="1407.83 75.08 1406.94 70.58 1462.6 -5.08 1463.49 -.58 1407.83 75.08" fill="#fff"/>
          <polygon points="1418.47 75.08 1417.58 70.58 1473.25 -5.08 1474.14 -.58 1418.47 75.08" fill="#fff"/>
          <polygon points="1429.12 75.08 1428.23 70.58 1483.89 -5.08 1484.78 -.58 1429.12 75.08" fill="#fff"/>
          <polygon points="1439.76 75.08 1438.87 70.58 1494.54 -5.08 1495.43 -.58 1439.76 75.08" fill="#fff"/>
          <polygon points="1450.41 75.08 1449.52 70.58 1505.18 -5.08 1506.07 -.58 1450.41 75.08" fill="#fff"/>
          <polygon points="1461.05 75.08 1460.16 70.58 1515.83 -5.08 1516.72 -.58 1461.05 75.08" fill="#fff"/>
          <polygon points="1471.7 75.08 1470.81 70.58 1526.47 -5.08 1527.36 -.58 1471.7 75.08" fill="#fff"/>
          <polygon points="1482.35 75.08 1481.46 70.58 1537.12 -5.08 1538.01 -.58 1482.35 75.08" fill="#fff"/>
          <polygon points="1492.99 75.08 1492.1 70.58 1547.77 -5.08 1548.66 -.58 1492.99 75.08" fill="#fff"/>
          <polygon points="1503.64 75.08 1502.75 70.58 1558.41 -5.08 1559.3 -.58 1503.64 75.08" fill="#fff"/>
          <polygon points="1514.28 75.08 1513.39 70.58 1569.06 -5.08 1569.95 -.58 1514.28 75.08" fill="#fff"/>
          <polygon points="1524.93 75.08 1524.04 70.58 1579.7 -5.08 1580.59 -.58 1524.93 75.08" fill="#fff"/>
          <polygon points="1535.57 75.08 1534.68 70.58 1590.35 -5.08 1591.24 -.58 1535.57 75.08" fill="#fff"/>
          <polygon points="1546.22 75.08 1545.33 70.58 1600.99 -5.08 1601.88 -.58 1546.22 75.08" fill="#fff"/>
        </g>
      </g>
    </g>
  </g>
</svg>