<svg width="76" height="1121" viewBox="0 0 76 1121" fill="none" xmlns="http://www.w3.org/2000/svg">
<rect width="36" height="1121" fill="#FFFA00"/>
<rect x="13.5" y="155.566" width="9" height="9" fill="#7C7C7C" stroke="#7C7C7C"/>
<rect x="13.5" y="217.566" width="9" height="9" stroke="#7C7C7C"/>
<rect x="13.5" y="279.566" width="9" height="9" fill="#7C7C7C" stroke="#7C7C7C"/>
<line x1="48" y1="-4.37114e-08" x2="48" y2="1121" stroke="#B2B2B2" stroke-width="2"/>
<g clip-path="url(#clip0_2092_38105)">
<rect x="58" width="4" height="4" fill="#B2B2B2"/>
<rect x="58" y="64" width="4" height="4" fill="#B2B2B2"/>
<rect x="58" y="128" width="4" height="4" fill="#B2B2B2"/>
<rect x="58" y="192" width="4" height="4" fill="#B2B2B2"/>
<rect x="58" y="256" width="4" height="4" fill="#B2B2B2"/>
<rect x="58" y="320" width="4" height="4" fill="#B2B2B2"/>
<rect x="58" y="384" width="4" height="4" fill="#B2B2B2"/>
<rect x="58" y="448" width="4" height="4" fill="#B2B2B2"/>
<rect x="58" y="512" width="4" height="4" fill="#B2B2B2"/>
<rect x="58" y="576" width="4" height="4" fill="#B2B2B2"/>
<rect x="58" y="640" width="4" height="4" fill="#B2B2B2"/>
<rect x="58" y="704" width="4" height="4" fill="#B2B2B2"/>
<rect x="58" y="768" width="4" height="4" fill="#B2B2B2"/>
<rect x="58" y="832" width="4" height="4" fill="#B2B2B2"/>
<rect x="58" y="896" width="4" height="4" fill="#B2B2B2"/>
<rect x="58" y="960" width="4" height="4" fill="#B2B2B2"/>
<rect x="58" y="1024" width="4" height="4" fill="#B2B2B2"/>
<rect x="58" y="1088" width="4" height="4" fill="#B2B2B2"/>
</g>
<line x1="64.5" y1="-2.18557e-08" x2="64.5" y2="1121" stroke="#D9D9D9"/>
<g clip-path="url(#clip1_2092_38105)">
<rect x="72.0002" width="4" height="4" fill="#D9D9D9"/>
<rect x="72.0002" y="64" width="4" height="4" fill="#D9D9D9"/>
<rect x="72.0002" y="128" width="4" height="4" fill="#D9D9D9"/>
<rect x="72.0002" y="192" width="4" height="4" fill="#D9D9D9"/>
<rect x="72.0002" y="256" width="4" height="4" fill="#D9D9D9"/>
<rect x="72.0002" y="320" width="4" height="4" fill="#D9D9D9"/>
<rect x="72.0002" y="384" width="4" height="4" fill="#D9D9D9"/>
<rect x="72.0002" y="448" width="4" height="4" fill="#D9D9D9"/>
<rect x="72.0002" y="512" width="4" height="4" fill="#D9D9D9"/>
<rect x="72.0002" y="576" width="4" height="4" fill="#D9D9D9"/>
<rect x="72.0002" y="640" width="4" height="4" fill="#D9D9D9"/>
<rect x="72.0002" y="704" width="4" height="4" fill="#D9D9D9"/>
<rect x="72.0002" y="768" width="4" height="4" fill="#D9D9D9"/>
<rect x="72.0002" y="832" width="4" height="4" fill="#D9D9D9"/>
<rect x="72.0002" y="896" width="4" height="4" fill="#D9D9D9"/>
<rect x="72.0002" y="960" width="4" height="4" fill="#D9D9D9"/>
<rect x="72.0002" y="1024" width="4" height="4" fill="#D9D9D9"/>
<rect x="72.0002" y="1088" width="4" height="4" fill="#D9D9D9"/>
</g>
<defs>
<clipPath id="clip0_2092_38105">
<rect width="4" height="1121" fill="white" transform="translate(58)"/>
</clipPath>
<clipPath id="clip1_2092_38105">
<rect width="4" height="1121" fill="white" transform="translate(72.0002)"/>
</clipPath>
</defs>
</svg>
