<?xml version="1.0" encoding="UTF-8"?>
<svg id="_레이어_1" data-name="레이어_1" xmlns="http://www.w3.org/2000/svg" xmlns:xlink="http://www.w3.org/1999/xlink" version="1.1" viewBox="0 0 191 70">
  <!-- Generator: Adobe Illustrator 30.4.0, SVG Export Plug-In . SVG Version: 2.1.4 Build 226)  -->
  <defs>
    <style>
      .st0 {
        fill: none;
      }

      .st1 {
        mask: url(#mask);
      }

      .st2 {
        fill: #fff;
      }

      .st3 {
        fill: #ff4723;
      }

      .st4 {
        opacity: .2;
      }

      .st5 {
        clip-path: url(#clippath);
      }
    </style>
    <clipPath id="clippath">
      <rect class="st0" x="48" width="95" height="70"/>
    </clipPath>
    <mask id="mask" x="-80.54" y="-31.75" width="368.02" height="174.96" maskUnits="userSpaceOnUse">
      <g id="mask0_2061_6103">
        <path class="st2" d="M48,14.73h17.81v8.28h-9.52v38.72h9.52v8.28h-17.81V14.73ZM56.52,0h-8.52v8.52h8.52V0ZM60.37,8.52h8.52V0h-8.52v8.52ZM143,14.73h-72.35v55.27h72.36V14.73h-.01Z"/>
      </g>
    </mask>
  </defs>
  <g class="st5">
    <g>
      <path class="st3" d="M48,14.73h17.81v8.28h-9.52v38.72h9.52v8.28h-17.81V14.73ZM56.52,0h-8.52v8.52h8.52V0ZM60.37,8.52h8.52V0h-8.52v8.52ZM143,14.73h-72.35v55.27h72.36V14.73h-.01Z"/>
      <g class="st1">
        <g class="st4">
          <path class="st2" d="M128.68,143.21h-.86L272.89-31.57c.23.06.68.19.68.19,0,0-.21.31-.31.43l-144.51,173.89-.07.26h-.01Z"/>
          <path class="st2" d="M110.06,143.21h-.86L253.79-31c.35-.43.86-.63,1.13-.34L110.06,143.21Z"/>
          <path class="st2" d="M-76.12,143.21h-.86L67.6-31c.35-.43.86-.63,1.13-.34L-76.12,143.21Z"/>
          <path class="st2" d="M54.21,143.21h-.86L197.94-31c.35-.43.86-.63,1.13-.34L54.21,143.21Z"/>
          <path class="st2" d="M91.44,143.21h-.86L235.37-31.23c.45-.54.78-.14.87-.22.04-.04.02.03-.04.25L91.44,143.21Z"/>
          <path class="st2" d="M-57.51,143.21h-.86L86.23-31c.35-.43.86-.63,1.13-.34L-57.51,143.21Z"/>
          <path class="st2" d="M-38.88,143.21h-.86L104.84-31c.35-.43.86-.63,1.13-.34L-38.88,143.21Z"/>
          <path class="st2" d="M-20.27,143.21h-.86L123.46-31c.35-.43.86-.63,1.13-.34L-20.27,143.21Z"/>
          <path class="st2" d="M-1.66,143.21h-.86L142.08-31c.35-.43.86-.63,1.13-.34L-1.66,143.21Z"/>
          <path class="st2" d="M16.97,143.21h-.86L160.7-31c.35-.43.86-.63,1.13-.34L16.97,143.21Z"/>
          <path class="st2" d="M35.58,143.21h-.86L179.8-31.57c.22.05.59.15.68.17.06.02-.15.19-.24.31L35.58,143.21Z"/>
          <path class="st2" d="M72.82,143.21h-.86L216.56-31c.35-.43.86-.63,1.13-.34L72.82,143.21Z"/>
          <path class="st2" d="M77.48,143.21h-.86L221.21-31c.36-.43.85-.64,1.13-.34L77.48,143.21Z"/>
          <path class="st2" d="M142.64,143.21h-.86L286.65-31.33c.16-.19.89-.16.84,0l-144.85,174.54Z"/>
          <path class="st2" d="M137.99,143.21h-.86L281.82-31.11c.39-.46.48-.36.87-.46l.07.38-115.54,139.06-29.22,35.33h0Z"/>
          <path class="st2" d="M133.34,143.21h-.86L277.26-31.22c.43-.52.77-.18.87-.23.05-.03.04.02-.04.26l-144.75,174.4Z"/>
          <path class="st2" d="M124.03,143.21h-.86L267.75-31c.36-.43.85-.64,1.13-.34L124.03,143.21Z"/>
          <path class="st2" d="M119.37,143.21h-.86L263.1-31c.36-.43.85-.64,1.13-.34L119.37,143.21Z"/>
          <path class="st2" d="M114.71,143.21h-.86L258.95-31.6c.37-.44.69.19.63.26l-.22.26L114.71,143.21Z"/>
          <path class="st2" d="M105.41,143.21h-.86L249.14-31c.36-.43.85-.64,1.13-.34L105.41,143.21Z"/>
          <path class="st2" d="M100.75,143.21h-.86L244.49-31c.22-.27.49-.41.84-.63.2.26.24.29.18.42L100.75,143.21Z"/>
          <path class="st2" d="M96.1,143.21h-.86L240.3-31.55l.69.15c.1.02-.2.31-.3.44L96.17,142.94l-.07.26h0Z"/>
          <path class="st2" d="M86.79,143.21h-.86L230.52-31c.36-.43.85-.64,1.13-.34L86.79,143.21Z"/>
          <path class="st2" d="M82.14,143.21h-.86L225.86-31c.36-.43.85-.64,1.13-.34L82.14,143.21Z"/>
          <path class="st2" d="M-71.47,143.21h-.86L72.35-31.11c.31-.37.85-.49,1.03-.22L-71.47,143.21Z"/>
          <path class="st2" d="M-62.16,143.21h-.86L81.57-31c.36-.43.85-.64,1.13-.34L-62.16,143.21Z"/>
          <path class="st2" d="M-52.85,143.21h-.86L90.88-31c.36-.43.85-.64,1.13-.34L-52.85,143.21Z"/>
          <path class="st2" d="M-48.2,143.21h-.86L95.53-31c.36-.43.85-.64,1.13-.34L-48.2,143.21Z"/>
          <path class="st2" d="M-43.55,143.21h-.86L100.19-31c.36-.43.85-.64,1.13-.34L-43.55,143.21Z"/>
          <path class="st2" d="M-34.23,143.21h-.86L109.49-31c.36-.43.85-.64,1.13-.34L-34.23,143.21Z"/>
          <path class="st2" d="M-29.58,143.21h-.86L114.15-31c.36-.43.85-.64,1.13-.34L-29.58,143.21Z"/>
          <path class="st2" d="M-24.92,143.21h-.86L118.9-31.11c.31-.37.85-.49,1.03-.22L-24.92,143.21Z"/>
          <path class="st2" d="M-15.61,143.21h-.86L128.12-31c.36-.43.85-.64,1.13-.34L-15.61,143.21Z"/>
          <path class="st2" d="M-10.96,143.21h-.86L132.77-31c.36-.43.85-.64,1.13-.34L-10.96,143.21Z"/>
          <path class="st2" d="M-6.31,143.21h-.86L137.43-31c.36-.43.85-.64,1.13-.34L-6.31,143.21Z"/>
          <path class="st2" d="M3.01,143.21h-.86L147.01-31.33c.16-.19.89-.16.85,0L3.01,143.21Z"/>
          <path class="st2" d="M7.66,143.21h-.86L151.39-31c.36-.43.85-.64,1.13-.34L7.66,143.21Z"/>
          <path class="st2" d="M12.31,143.21h-.86L156.32-31.33c.16-.19.89-.16.84,0L12.31,143.21Z"/>
          <path class="st2" d="M21.62,143.21h-.86L165.36-31c.36-.43.85-.64,1.13-.34L21.62,143.21Z"/>
          <path class="st2" d="M26.27,143.21h-.86L170.01-31c.36-.43.85-.64,1.13-.34L26.27,143.21Z"/>
          <path class="st2" d="M30.93,143.21h-.86L174.66-31c.36-.43.85-.64,1.13-.34L30.93,143.21Z"/>
          <path class="st2" d="M40.25,143.21h-.86L184.48-31.6c.37-.44.7.2.64.27-.04.05-.05.08-.21.27L40.77,142.39c-.26.31-.41.58-.53.81h0Z"/>
          <path class="st2" d="M44.9,143.21h-.86L188.62-31c.36-.43.85-.64,1.13-.34L44.9,143.21Z"/>
          <path class="st2" d="M49.55,143.21h-.86L193.38-31.11c.31-.37.85-.49,1.03-.22L49.55,143.21Z"/>
          <path class="st2" d="M-66.82,143.21h-.86L76.92-31c.36-.43.85-.64,1.13-.34L-66.82,143.21Z"/>
          <path class="st2" d="M58.86,143.21h-.86L202.59-31c.36-.43.85-.64,1.13-.34L58.86,143.21Z"/>
          <path class="st2" d="M63.51,143.21h-.86L207.52-31.33c.16-.19.89-.16.85,0L63.51,143.21Z"/>
          <path class="st2" d="M68.17,143.21h-.86L211.9-31c.36-.43.85-.64,1.13-.34L68.17,143.21Z"/>
          <path class="st2" d="M-80.53,142.4v-1.01c.23-.08.47-.24.73-.55L62.97-30.98c.31-.46.85-.68,1.13-.33L-79.8,141.85c-.25.3-.51.46-.73.55Z"/>
          <path class="st2" d="M-80.53,136.74v-1.01c.12.02.09.25.78-.58L58.18-30.81c.62-.74.75-.77,1.31-.56L-79.86,136.32c-.2.25-.49.39-.67.42Z"/>
          <path class="st2" d="M-80.53,131.29v-1.01c.07-.04.38-.23.5-.38L53.66-30.98c.35-.42.65-.61,1.17-.39L-79.85,130.7c-.24.29-.49.47-.69.6h0Z"/>
          <path class="st2" d="M-80.53,125.64v-1.01c.16-.07.42-.23.62-.47L49.01-30.98c.34-.41.67-.6,1.17-.39L-79.91,125.17c-.2.24-.46.4-.62.46h0Z"/>
        </g>
      </g>
      <path class="st2" d="M94.74,38.31c1.78,0,3.34.34,4.71,1.02,1.37.68,2.43,1.63,3.18,2.84.76,1.21,1.13,2.58,1.13,4.11s-.38,3.03-1.13,4.29c-.76,1.26-1.81,2.24-3.16,2.94-1.36.71-2.89,1.06-4.62,1.06s-3.25-.35-4.6-1.06c-1.34-.71-2.39-1.68-3.14-2.93-.76-1.25-1.13-2.67-1.13-4.27h6.11c0,.81.26,1.48.77,1.99.52.52,1.18.77,2,.77s1.44-.26,1.94-.79c.5-.53.76-1.2.76-2.01,0-.86-.27-1.56-.81-2.08-.54-.53-1.25-.79-2.14-.79h-7.44l-.61-.79,1.33-12.46h14.19v5.46h-9.23l-.32,2.69h2.23,0Z"/>
      <path class="st2" d="M120.05,39.77v-8.07h6.23v22.34h-6.23v-8.58h-6.71v8.58h-6.2v-22.34h6.2v8.07h6.71Z"/>
    </g>
  </g>
</svg>