<svg width="95" height="70" viewBox="0 0 95 70" fill="none" xmlns="http://www.w3.org/2000/svg">
<g clip-path="url(#clip0_2061_6103)">
<path d="M0 14.73H17.8063V23.01H8.2843V61.73H17.8063V70.01H0V14.73ZM8.52385 0H0V8.52H8.52385V0ZM12.3666 8.52H20.8904V0H12.3666V8.52ZM95 14.73H22.6471V70H95.01V14.73H95Z" fill="#FF4723"/>
<mask id="mask0_2061_6103" style="mask-type:luminance" maskUnits="userSpaceOnUse" x="0" y="0" width="96" height="71">
<path d="M0 14.73H17.8063V23.01H8.2843V61.73H17.8063V70.01H0V14.73ZM8.52385 0H0V8.52H8.52385V0ZM12.3666 8.52H20.8904V0H12.3666V8.52ZM95 14.73H22.6471V70H95.01V14.73H95Z" fill="white"/>
</mask>
<g mask="url(#mask0_2061_6103)">
<g opacity="0.2">
<path d="M80.6777 143.21H79.8193L224.894 -31.5703C225.124 -31.5103 225.573 -31.3803 225.573 -31.3803C225.573 -31.3803 225.364 -31.0703 225.264 -30.9503L80.7576 142.94L80.6877 143.2L80.6777 143.21Z" fill="white"/>
<path d="M62.0625 143.21H61.2041L205.79 -31.0002C206.139 -31.4302 206.649 -31.6302 206.918 -31.3402L62.0625 143.21Z" fill="white"/>
<path d="M-124.124 143.21H-124.982L19.6036 -31.0002C19.953 -31.4302 20.462 -31.6302 20.7315 -31.3402L-124.124 143.21Z" fill="white"/>
<path d="M6.20896 143.21H5.35059L149.937 -31.0002C150.286 -31.4302 150.795 -31.6302 151.064 -31.3402L6.20896 143.21Z" fill="white"/>
<path d="M43.4385 143.21H42.5801L187.366 -31.2304C187.815 -31.7704 188.144 -31.3704 188.234 -31.4504C188.274 -31.4904 188.254 -31.4204 188.194 -31.2004L43.4385 143.21Z" fill="white"/>
<path d="M-105.51 143.21H-106.368L38.2279 -31.0002C38.5772 -31.4302 39.0862 -31.6302 39.3557 -31.3402L-105.51 143.21Z" fill="white"/>
<path d="M-86.8848 143.21H-87.7432L56.8429 -31.0002C57.1922 -31.4302 57.7013 -31.6302 57.9707 -31.3402L-86.8848 143.21Z" fill="white"/>
<path d="M-68.2705 143.21H-69.1289L75.4571 -31.0002C75.8065 -31.4302 76.3155 -31.6302 76.585 -31.3402L-68.2705 143.21Z" fill="white"/>
<path d="M-49.6553 143.21H-50.5137L94.0824 -31.0002C94.4317 -31.4302 94.9407 -31.6302 95.2102 -31.3402L-49.6553 143.21Z" fill="white"/>
<path d="M-31.0313 143.21H-31.8896L112.696 -31.0002C113.046 -31.4302 113.555 -31.6302 113.824 -31.3402L-31.0313 143.21Z" fill="white"/>
<path d="M-12.416 143.21H-13.2744L131.801 -31.5703C132.02 -31.5203 132.39 -31.4203 132.479 -31.4003C132.539 -31.3803 132.33 -31.2103 132.24 -31.0903L-12.416 143.21Z" fill="white"/>
<path d="M24.8232 143.21H23.9648L168.561 -31.0002C168.91 -31.4302 169.419 -31.6302 169.689 -31.3402L24.8232 143.21Z" fill="white"/>
<path d="M29.4844 143.21H28.626L173.212 -30.9996C173.571 -31.4296 174.06 -31.6396 174.34 -31.3396L29.4844 143.21Z" fill="white"/>
<path d="M94.6406 143.21H93.7822L238.648 -31.3304C238.807 -31.5204 239.536 -31.4904 239.486 -31.3304L94.6406 143.21Z" fill="white"/>
<path d="M89.9902 143.21H89.1318L233.818 -31.1103C234.207 -31.5703 234.297 -31.4703 234.686 -31.5703L234.756 -31.1903L119.215 107.87L89.9902 143.2V143.21Z" fill="white"/>
<path d="M85.3388 143.21H84.4805L229.256 -31.2202C229.685 -31.7402 230.025 -31.4002 230.125 -31.4502C230.174 -31.4802 230.164 -31.4302 230.085 -31.1902L85.3388 143.21Z" fill="white"/>
<path d="M76.0263 143.21H75.168L219.754 -30.9996C220.113 -31.4296 220.602 -31.6396 220.882 -31.3396L76.0263 143.21Z" fill="white"/>
<path d="M71.3652 143.21H70.5068L215.103 -30.9996C215.462 -31.4296 215.951 -31.6396 216.231 -31.3396L71.3652 143.21Z" fill="white"/>
<path d="M66.7138 143.21H65.8555L210.951 -31.6C211.32 -32.04 211.639 -31.41 211.579 -31.34L211.36 -31.08L66.7138 143.21Z" fill="white"/>
<path d="M57.4111 143.21H56.5527L201.139 -30.9996C201.498 -31.4296 201.987 -31.6396 202.267 -31.3396L57.4111 143.21Z" fill="white"/>
<path d="M52.75 143.21H51.8916L196.488 -30.9999C196.707 -31.2699 196.977 -31.4099 197.326 -31.6299C197.526 -31.3699 197.566 -31.3399 197.506 -31.2099L52.75 143.21Z" fill="white"/>
<path d="M48.0996 143.21H47.2412L192.296 -31.5498L192.985 -31.3998C193.085 -31.3798 192.785 -31.0898 192.686 -30.9598L48.1694 142.94L48.0996 143.2V143.21Z" fill="white"/>
<path d="M38.7871 143.21H37.9287L182.525 -30.9996C182.884 -31.4296 183.373 -31.6396 183.653 -31.3396L38.7871 143.21Z" fill="white"/>
<path d="M34.1357 143.21H33.2773L177.863 -30.9996C178.223 -31.4296 178.712 -31.6396 178.991 -31.3396L34.1357 143.21Z" fill="white"/>
<path d="M-119.474 143.21H-120.332L24.3538 -31.1099C24.6632 -31.4799 25.2022 -31.5999 25.3819 -31.3299L-119.474 143.21Z" fill="white"/>
<path d="M-110.161 143.21H-111.02L33.5665 -30.9996C33.9258 -31.4296 34.4149 -31.6396 34.6944 -31.3396L-110.161 143.21Z" fill="white"/>
<path d="M-100.849 143.21H-101.707L42.879 -30.9996C43.2383 -31.4296 43.7274 -31.6396 44.0069 -31.3396L-100.849 143.21Z" fill="white"/>
<path d="M-96.1973 143.21H-97.0557L47.5304 -30.9996C47.8897 -31.4296 48.3788 -31.6396 48.6582 -31.3396L-96.1973 143.21Z" fill="white"/>
<path d="M-91.5459 143.21H-92.4043L52.1917 -30.9996C52.551 -31.4296 53.0401 -31.6396 53.3196 -31.3396L-91.5459 143.21Z" fill="white"/>
<path d="M-82.2334 143.21H-83.0918L61.4942 -30.9996C61.8536 -31.4296 62.3426 -31.6396 62.6221 -31.3396L-82.2334 143.21Z" fill="white"/>
<path d="M-77.583 143.21H-78.4414L66.1546 -30.9996C66.5139 -31.4296 67.003 -31.6396 67.2825 -31.3396L-77.583 143.21Z" fill="white"/>
<path d="M-72.9219 143.21H-73.7803L70.8956 -31.1099C71.205 -31.4799 71.744 -31.5999 71.9236 -31.3299L-72.9219 143.21Z" fill="white"/>
<path d="M-63.6094 143.21H-64.4678L80.1183 -30.9996C80.4776 -31.4296 80.9667 -31.6396 81.2461 -31.3396L-63.6094 143.21Z" fill="white"/>
<path d="M-58.958 143.21H-59.8164L84.7696 -30.9996C85.129 -31.4296 85.618 -31.6396 85.8975 -31.3396L-58.958 143.21Z" fill="white"/>
<path d="M-54.3067 143.21H-55.165L89.431 -30.9996C89.7903 -31.4296 90.2794 -31.6396 90.5589 -31.3396L-54.3067 143.21Z" fill="white"/>
<path d="M-44.9942 143.21H-45.8525L99.013 -31.3304C99.1727 -31.5204 99.9013 -31.4904 99.8614 -31.3304L-44.9942 143.21Z" fill="white"/>
<path d="M-40.3428 143.21H-41.2012L103.395 -30.9996C103.754 -31.4296 104.243 -31.6396 104.523 -31.3396L-40.3428 143.21Z" fill="white"/>
<path d="M-35.6924 143.21H-36.5508L108.315 -31.3304C108.474 -31.5204 109.203 -31.4904 109.153 -31.3304L-35.6924 143.21Z" fill="white"/>
<path d="M-26.3799 143.21H-27.2383L117.358 -30.9996C117.717 -31.4296 118.206 -31.6396 118.486 -31.3396L-26.3799 143.21Z" fill="white"/>
<path d="M-21.7285 143.21H-22.5869L122.009 -30.9996C122.368 -31.4296 122.858 -31.6396 123.137 -31.3396L-21.7285 143.21Z" fill="white"/>
<path d="M-17.0674 143.21H-17.9258L126.66 -30.9996C127.02 -31.4296 127.509 -31.6396 127.788 -31.3396L-17.0674 143.21Z" fill="white"/>
<path d="M-7.75491 143.21H-8.61328L136.482 -31.5996C136.851 -32.0396 137.18 -31.3996 137.121 -31.3296C137.081 -31.2796 137.071 -31.2496 136.911 -31.0596L-7.22591 142.39C-7.48542 142.7 -7.63513 142.97 -7.75491 143.2V143.21Z" fill="white"/>
<path d="M-3.10354 143.21H-3.96191L140.624 -30.9996C140.983 -31.4296 141.473 -31.6396 141.752 -31.3396L-3.10354 143.21Z" fill="white"/>
<path d="M1.54783 143.21H0.689453L145.375 -31.1099C145.685 -31.4799 146.224 -31.5999 146.403 -31.3299L1.54783 143.21Z" fill="white"/>
<path d="M-114.822 143.21H-115.681L28.9154 -30.9996C29.2747 -31.4296 29.7638 -31.6396 30.0432 -31.3396L-114.822 143.21Z" fill="white"/>
<path d="M10.8593 143.21H10.001L154.587 -30.9996C154.946 -31.4296 155.435 -31.6396 155.715 -31.3396L10.8593 143.21Z" fill="white"/>
<path d="M15.5107 143.21H14.6523L159.518 -31.3304C159.678 -31.5204 160.406 -31.4904 160.366 -31.3304L15.5107 143.21Z" fill="white"/>
<path d="M20.1718 143.21H19.3135L163.9 -30.9996C164.259 -31.4296 164.748 -31.6396 165.027 -31.3396L20.1718 143.21Z" fill="white"/>
<path d="M-128.526 142.4V141.39C-128.297 141.31 -128.057 141.15 -127.798 140.84L14.9717 -30.9801C15.2812 -31.4401 15.8201 -31.6601 16.0996 -31.3101L-127.798 141.85C-128.047 142.15 -128.307 142.31 -128.526 142.4Z" fill="white"/>
<path d="M-128.526 136.74V135.73C-128.407 135.75 -128.437 135.98 -127.748 135.15L10.1808 -30.8098C10.7997 -31.5498 10.9294 -31.5798 11.4883 -31.3698L-127.858 136.32C-128.057 136.57 -128.347 136.71 -128.526 136.74Z" fill="white"/>
<path d="M-128.526 131.29V130.28C-128.456 130.24 -128.147 130.05 -128.027 129.9L5.65959 -30.9796C6.00893 -31.3996 6.30836 -31.5896 6.82738 -31.3696L-127.847 130.7C-128.087 130.99 -128.337 131.17 -128.536 131.3L-128.526 131.29Z" fill="white"/>
<path d="M-128.526 125.64V124.63C-128.367 124.56 -128.107 124.4 -127.908 124.16L1.00819 -30.9798C1.34755 -31.3898 1.67692 -31.5798 2.17598 -31.3698L-127.908 125.17C-128.107 125.41 -128.367 125.57 -128.526 125.63V125.64Z" fill="white"/>
</g>
</g>
<path d="M46.7419 38.3104C48.5185 38.3104 50.0856 38.6504 51.453 39.3304C52.8204 40.0104 53.8784 40.9604 54.637 42.1704C55.3955 43.3804 55.7648 44.7504 55.7648 46.2804C55.7648 47.8104 55.3855 49.3104 54.637 50.5704C53.8784 51.8304 52.8304 52.8104 51.4729 53.5104C50.1155 54.2204 48.5784 54.5704 46.8517 54.5704C45.125 54.5704 43.5979 54.2204 42.2504 53.5104C40.913 52.8004 39.8649 51.8304 39.1064 50.5804C38.3478 49.3304 37.9785 47.9104 37.9785 46.3104H44.0869C44.0869 47.1204 44.3464 47.7904 44.8555 48.3004C45.3745 48.8204 46.0333 49.0704 46.8517 49.0704C47.6702 49.0704 48.289 48.8104 48.788 48.2804C49.2871 47.7504 49.5466 47.0804 49.5466 46.2704C49.5466 45.4104 49.2771 44.7104 48.7381 44.1904C48.1992 43.6604 47.4905 43.4004 46.6022 43.4004H39.1663L38.5574 42.6104L39.8849 30.1504H54.078V35.6104H44.8455L44.5261 38.3004H46.7519L46.7419 38.3104Z" fill="white"/>
<path d="M72.054 39.7702V31.7002H78.2822V54.0402H72.054V45.4602H65.3467V54.0402H59.1484V31.7002H65.3467V39.7702H72.054Z" fill="white"/>
</g>
<defs>
<clipPath id="clip0_2061_6103">
<rect width="95" height="70" fill="white"/>
</clipPath>
</defs>
</svg>
