<svg width="95" height="70" viewBox="0 0 95 70" fill="none" xmlns="http://www.w3.org/2000/svg">
<g clip-path="url(#clip0_2061_6102)">
<path d="M0 14.73H17.8V23.01H8.28V61.73H17.8V70.01H0V14.73ZM8.53 0H0V8.52H8.53V0ZM12.37 8.52H20.9V0H12.37V8.52ZM95 14.73H22.64V70H95V14.73Z" fill="#FF4723"/>
<mask id="mask0_2061_6102" style="mask-type:luminance" maskUnits="userSpaceOnUse" x="0" y="0" width="95" height="71">
<path d="M0 14.73H17.8V23.01H8.28V61.73H17.8V70.01H0V14.73ZM8.53 0H0V8.52H8.53V0ZM12.37 8.52H20.9V0H12.37V8.52ZM95 14.73H22.64V70H95V14.73Z" fill="white"/>
</mask>
<g mask="url(#mask0_2061_6102)">
<g opacity="0.2">
<path d="M80.6793 143.21H79.8193L224.889 -31.5703C225.119 -31.5103 225.569 -31.3803 225.569 -31.3803C225.569 -31.3803 225.359 -31.0703 225.259 -30.9503L80.7493 142.94L80.6793 143.2V143.21Z" fill="white"/>
<path d="M62.0602 143.21H61.2002L205.79 -31.0002C206.14 -31.4302 206.65 -31.6302 206.92 -31.3402L62.0602 143.21Z" fill="white"/>
<path d="M-124.13 143.21H-124.99L19.5998 -31.0002C19.9498 -31.4302 20.4598 -31.6302 20.7298 -31.3402L-124.13 143.21Z" fill="white"/>
<path d="M6.19984 143.21H5.33984L149.94 -31.0002C150.29 -31.4302 150.8 -31.6302 151.07 -31.3402L6.19984 143.21Z" fill="white"/>
<path d="M43.4401 143.21H42.5801L187.36 -31.2304C187.8 -31.7704 188.14 -31.3704 188.23 -31.4504C188.27 -31.4904 188.25 -31.4204 188.19 -31.2004L43.4401 143.21Z" fill="white"/>
<path d="M-105.51 143.21H-106.37L38.2199 -31.0002C38.5699 -31.4302 39.0799 -31.6302 39.3499 -31.3402L-105.51 143.21Z" fill="white"/>
<path d="M-86.89 143.21H-87.75L56.84 -31.0002C57.19 -31.4302 57.7 -31.6302 57.97 -31.3402L-86.89 143.21Z" fill="white"/>
<path d="M-68.2699 143.21H-69.1299L75.4601 -31.0002C75.8101 -31.4302 76.3201 -31.6302 76.5901 -31.3402L-68.2699 143.21Z" fill="white"/>
<path d="M-49.6507 143.21H-50.5107L94.0793 -31.0002C94.4293 -31.4302 94.9393 -31.6302 95.2093 -31.3402L-49.6507 143.21Z" fill="white"/>
<path d="M-31.0306 143.21H-31.8906L112.699 -31.0002C113.049 -31.4302 113.559 -31.6302 113.829 -31.3402L-31.0306 143.21Z" fill="white"/>
<path d="M-12.4105 143.21H-13.2705L131.799 -31.5703C132.02 -31.5203 132.389 -31.4203 132.479 -31.4003C132.539 -31.3803 132.329 -31.2103 132.24 -31.0903L-12.4105 143.21Z" fill="white"/>
<path d="M24.82 143.21H23.96L168.55 -31.0002C168.9 -31.4302 169.41 -31.6302 169.68 -31.3402L24.82 143.21Z" fill="white"/>
<path d="M29.4801 143.21H28.6201L173.21 -30.9996C173.57 -31.4296 174.06 -31.6396 174.34 -31.3396L29.4801 143.21Z" fill="white"/>
<path d="M94.6393 143.21H93.7793L238.649 -31.3304C238.809 -31.5204 239.539 -31.4904 239.489 -31.3304L94.6393 143.21Z" fill="white"/>
<path d="M89.9896 143.21H89.1396L233.82 -31.1103C234.2 -31.5703 234.3 -31.4703 234.69 -31.5703L234.76 -31.1903L119.21 107.87L89.9797 143.2L89.9896 143.21Z" fill="white"/>
<path d="M85.3395 143.21H84.4795L229.249 -31.2202C229.679 -31.7402 230.019 -31.4002 230.119 -31.4502C230.169 -31.4802 230.16 -31.4302 230.079 -31.1902L85.3395 143.21Z" fill="white"/>
<path d="M76.0201 143.21H75.1602L219.76 -30.9996C220.12 -31.4296 220.61 -31.6396 220.89 -31.3396L76.0201 143.21Z" fill="white"/>
<path d="M71.3695 143.21H70.5195L215.1 -30.9996C215.46 -31.4296 215.95 -31.6396 216.23 -31.3396L71.3695 143.21Z" fill="white"/>
<path d="M66.7194 143.21H65.8594L210.949 -31.6C211.319 -32.04 211.639 -31.41 211.579 -31.34L211.359 -31.08L66.7194 143.21Z" fill="white"/>
<path d="M57.4098 143.21H56.5498L201.14 -30.9996C201.5 -31.4296 201.99 -31.6396 202.27 -31.3396L57.4098 143.21Z" fill="white"/>
<path d="M52.7494 143.21H51.8994L196.479 -30.9999C196.699 -31.2699 196.969 -31.4099 197.319 -31.6299C197.519 -31.3699 197.559 -31.3399 197.499 -31.2099L52.7494 143.21Z" fill="white"/>
<path d="M48.0993 143.21H47.2393L192.299 -31.5498L192.979 -31.3998C193.079 -31.3798 192.779 -31.0898 192.679 -30.9598L48.1693 142.94L48.0993 143.2V143.21Z" fill="white"/>
<path d="M38.7897 143.21H37.9297L182.52 -30.9996C182.88 -31.4296 183.37 -31.6396 183.65 -31.3396L38.7897 143.21Z" fill="white"/>
<path d="M34.1293 143.21H33.2793L177.859 -30.9996C178.219 -31.4296 178.709 -31.6396 178.989 -31.3396L34.1293 143.21Z" fill="white"/>
<path d="M-119.47 143.21H-120.33L24.3499 -31.1099C24.6599 -31.4799 25.1999 -31.5999 25.3799 -31.3299L-119.47 143.21Z" fill="white"/>
<path d="M-110.161 143.21H-111.021L33.5695 -30.9996C33.9295 -31.4296 34.4195 -31.6396 34.6995 -31.3396L-110.161 143.21Z" fill="white"/>
<path d="M-100.85 143.21H-101.71L42.88 -30.9996C43.24 -31.4296 43.73 -31.6396 44.01 -31.3396L-100.85 143.21Z" fill="white"/>
<path d="M-96.1998 143.21H-97.0498L47.5302 -30.9996C47.8902 -31.4296 48.3802 -31.6396 48.6602 -31.3396L-96.1998 143.21Z" fill="white"/>
<path d="M-91.5404 143.21H-92.4004L52.1896 -30.9996C52.5496 -31.4296 53.0396 -31.6396 53.3196 -31.3396L-91.5404 143.21Z" fill="white"/>
<path d="M-82.2299 143.21H-83.0898L61.5002 -30.9996C61.8602 -31.4296 62.3502 -31.6396 62.6302 -31.3396L-82.2299 143.21Z" fill="white"/>
<path d="M-77.5807 143.21H-78.4307L66.1493 -30.9996C66.5093 -31.4296 66.9993 -31.6396 67.2793 -31.3396L-77.5807 143.21Z" fill="white"/>
<path d="M-72.9203 143.21H-73.7803L70.8997 -31.1099C71.2097 -31.4799 71.7497 -31.5999 71.9297 -31.3299L-72.9203 143.21Z" fill="white"/>
<path d="M-63.6107 143.21H-64.4707L80.1093 -30.9996C80.4693 -31.4296 80.9593 -31.6396 81.2393 -31.3396L-63.6107 143.21Z" fill="white"/>
<path d="M-58.9605 143.21H-59.8105L84.7695 -30.9996C85.1295 -31.4296 85.6195 -31.6396 85.8995 -31.3396L-58.9605 143.21Z" fill="white"/>
<path d="M-54.3099 143.21H-55.1699L89.4201 -30.9996C89.7801 -31.4296 90.2701 -31.6396 90.5501 -31.3396L-54.3099 143.21Z" fill="white"/>
<path d="M-44.9906 143.21H-45.8506L99.0094 -31.3304C99.1694 -31.5204 99.8994 -31.4904 99.8494 -31.3304L-44.9906 143.21Z" fill="white"/>
<path d="M-40.3404 143.21H-41.1904L103.39 -30.9996C103.75 -31.4296 104.24 -31.6396 104.52 -31.3396L-40.3404 143.21Z" fill="white"/>
<path d="M-35.6898 143.21H-36.5498L108.32 -31.3304C108.48 -31.5204 109.21 -31.4904 109.16 -31.3304L-35.6898 143.21Z" fill="white"/>
<path d="M-26.3802 143.21H-27.2402L117.35 -30.9996C117.71 -31.4296 118.2 -31.6396 118.48 -31.3396L-26.3802 143.21Z" fill="white"/>
<path d="M-21.7203 143.21H-22.5703L122.01 -30.9996C122.37 -31.4296 122.86 -31.6396 123.14 -31.3396L-21.7203 143.21Z" fill="white"/>
<path d="M-17.0707 143.21H-17.9307L126.659 -30.9996C127.019 -31.4296 127.509 -31.6396 127.789 -31.3396L-17.0707 143.21Z" fill="white"/>
<path d="M-7.76012 143.21H-8.62012L136.48 -31.5996C136.85 -32.0396 137.18 -31.3996 137.12 -31.3296C137.08 -31.2796 137.07 -31.2496 136.91 -31.0596L-7.23012 142.39C-7.49012 142.7 -7.64012 142.97 -7.76012 143.2V143.21Z" fill="white"/>
<path d="M-3.10996 143.21H-3.95996L140.63 -30.9996C140.99 -31.4296 141.48 -31.6396 141.76 -31.3396L-3.10996 143.21Z" fill="white"/>
<path d="M1.54945 143.21H0.689453L145.369 -31.1099C145.679 -31.4799 146.219 -31.5999 146.399 -31.3299L1.54945 143.21Z" fill="white"/>
<path d="M-114.82 143.21H-115.67L28.9101 -30.9996C29.2701 -31.4296 29.7601 -31.6396 30.0401 -31.3396L-114.82 143.21Z" fill="white"/>
<path d="M10.86 143.21H10L154.59 -30.9996C154.95 -31.4296 155.44 -31.6396 155.72 -31.3396L10.86 143.21Z" fill="white"/>
<path d="M15.5102 143.21H14.6602L159.52 -31.3304C159.68 -31.5204 160.41 -31.4904 160.36 -31.3304L15.5102 143.21Z" fill="white"/>
<path d="M20.1696 143.21H19.3096L163.9 -30.9996C164.26 -31.4296 164.75 -31.6396 165.03 -31.3396L20.1696 143.21Z" fill="white"/>
<path d="M-128.53 142.4V141.39C-128.3 141.31 -128.07 141.15 -127.81 140.84L14.9697 -30.9801C15.2797 -31.4401 15.8197 -31.6601 16.0997 -31.3101L-127.8 141.85C-128.05 142.15 -128.3 142.31 -128.53 142.4Z" fill="white"/>
<path d="M-128.53 136.74V135.73C-128.41 135.75 -128.44 135.98 -127.75 135.15L10.1797 -30.8098C10.7997 -31.5498 10.9297 -31.5798 11.4897 -31.3698L-127.86 136.32C-128.06 136.57 -128.35 136.71 -128.53 136.74Z" fill="white"/>
<path d="M-128.53 131.29V130.28C-128.46 130.24 -128.15 130.05 -128.03 129.9L5.65973 -30.9796C6.00974 -31.3996 6.30972 -31.5896 6.82973 -31.3696L-127.84 130.7C-128.08 130.99 -128.33 131.17 -128.53 131.3V131.29Z" fill="white"/>
<path d="M-128.53 125.64V124.63C-128.37 124.56 -128.11 124.4 -127.91 124.16L1.00972 -30.9798C1.34972 -31.3898 1.66972 -31.5798 2.17972 -31.3698L-127.9 125.17C-128.1 125.41 -128.36 125.57 -128.52 125.63L-128.53 125.64Z" fill="white"/>
</g>
</g>
<path d="M50.0797 38.9196C51.7997 39.3496 53.1796 40.2196 54.1896 41.5196C55.2096 42.8196 55.7197 44.3997 55.7197 46.2397C55.7197 47.8397 55.3396 49.2796 54.5696 50.5496C53.7996 51.8196 52.7296 52.8096 51.3496 53.5096C49.9696 54.2196 48.4197 54.5696 46.6996 54.5696C44.9796 54.5696 43.4896 54.2196 42.1696 53.5296C40.8496 52.8396 39.8197 51.8596 39.0797 50.5996C38.3397 49.3396 37.9396 47.8996 37.8896 46.2696H43.9996C44.0196 47.1096 44.2896 47.7796 44.7896 48.2996C45.2896 48.8196 45.9296 49.0696 46.6896 49.0696C47.5296 49.0696 48.1996 48.7996 48.7197 48.2596C49.2297 47.7196 49.4897 47.0096 49.4897 46.1196C49.4897 45.2296 49.2096 44.5796 48.6596 44.0696C48.1096 43.5696 47.3696 43.3196 46.4296 43.3196H42.5896V41.9897L46.5096 35.5996H38.4596V30.1396H54.8797V31.2496L50.0696 38.8997L50.0797 38.9196Z" fill="white"/>
<path d="M72.1297 39.7692V31.6992H78.3597V54.0392H72.1297V45.4592H65.4197V54.0392H59.2197V31.6992H65.4197V39.7692H72.1297Z" fill="white"/>
</g>
<defs>
<clipPath id="clip0_2061_6102">
<rect width="95" height="70" fill="white"/>
</clipPath>
</defs>
</svg>
