<svg width="191" height="70" viewBox="0 0 191 70" fill="none" xmlns="http://www.w3.org/2000/svg">
<g clip-path="url(#clip0_2061_6104)">
<path d="M0 14.7279H17.8V23.0067H8.28V61.7212H17.8V70H0V14.7279ZM8.53 0H0V8.51878H8.53V0ZM12.37 8.51878H20.9V0H12.37V8.51878ZM191 14.7279H22.64V69.99H191V14.7279Z" fill="#FF4723"/>
<mask id="mask0_2061_6104" style="mask-type:luminance" maskUnits="userSpaceOnUse" x="0" y="0" width="191" height="70">
<path d="M0 14.7279H17.8V23.0067H8.28V61.7212H17.8V70H0V14.7279ZM8.53 0H0V8.51878H8.53V0ZM12.37 8.51878H20.9V0H12.37V8.51878ZM191 14.7279H22.64V69.99H191V14.7279Z" fill="white"/>
</mask>
<g mask="url(#mask0_2061_6104)">
<g opacity="0.2">
<path d="M80.6793 143.19H79.8193L224.899 -31.5654C225.129 -31.5054 225.579 -31.3755 225.579 -31.3755C225.579 -31.3755 225.369 -31.0655 225.269 -30.9455L80.7593 142.92L80.6893 143.18L80.6793 143.19Z" fill="white"/>
<path d="M99.2995 143.189H98.4395L243.039 -30.9959C243.369 -31.3958 243.749 -31.5558 244.209 -31.3858L99.2995 143.189Z" fill="white"/>
<path d="M117.92 143.189H117.06L261.84 -31.2159C262.04 -31.4559 262.56 -31.4959 262.82 -31.3759L117.92 143.189Z" fill="white"/>
<path d="M155.16 143.19H154.3L299.38 -31.5654L300.06 -31.3855C300.12 -31.3655 299.94 -31.1855 299.84 -31.0655L182.38 110.274L155.16 143.19Z" fill="white"/>
<path d="M62.0602 143.19H61.2002L205.8 -30.9953C206.15 -31.4253 206.66 -31.6252 206.93 -31.3353L62.0602 143.19Z" fill="white"/>
<path d="M-124.13 143.19H-124.99L19.6098 -30.9953C19.9598 -31.4253 20.4698 -31.6252 20.7398 -31.3353L-124.13 143.19Z" fill="white"/>
<path d="M6.20961 143.19H5.34961L149.94 -30.9953C150.29 -31.4253 150.8 -31.6252 151.07 -31.3353L6.20961 143.19Z" fill="white"/>
<path d="M136.54 143.19H135.68L280.56 -31.3253C280.71 -31.5053 281.46 -31.4753 281.4 -31.3153L136.55 143.19H136.54Z" fill="white"/>
<path d="M43.4401 143.19H42.5801L187.37 -31.2256C187.81 -31.7655 188.15 -31.3655 188.24 -31.4455C188.28 -31.4855 188.26 -31.4155 188.2 -31.1956L43.4401 143.19Z" fill="white"/>
<path d="M-105.51 143.19H-106.37L38.2199 -30.9953C38.5699 -31.4253 39.0799 -31.6252 39.3499 -31.3353L-105.51 143.19Z" fill="white"/>
<path d="M-86.89 143.19H-87.75L56.84 -30.9953C57.19 -31.4253 57.7 -31.6252 57.97 -31.3353L-86.89 143.19Z" fill="white"/>
<path d="M-68.2699 143.19H-69.1299L75.4601 -30.9953C75.8101 -31.4253 76.3201 -31.6252 76.5901 -31.3353L-68.2699 143.19Z" fill="white"/>
<path d="M-49.6507 143.19H-50.5107L94.0793 -30.9953C94.4293 -31.4253 94.9393 -31.6252 95.2093 -31.3353L-49.6507 143.19Z" fill="white"/>
<path d="M-31.0306 143.19H-31.8906L112.699 -30.9953C113.049 -31.4253 113.559 -31.6252 113.829 -31.3353L-31.0306 143.19Z" fill="white"/>
<path d="M-12.4105 143.19H-13.2705L131.799 -31.5654C132.019 -31.5154 132.389 -31.4155 132.479 -31.3955C132.539 -31.3755 132.33 -31.2055 132.24 -31.0855L-12.4105 143.19Z" fill="white"/>
<path d="M24.82 143.19H23.96L168.56 -30.9953C168.91 -31.4253 169.42 -31.6252 169.69 -31.3353L24.82 143.19Z" fill="white"/>
<path d="M173.78 143.19H172.92L317.71 -31.2256C318.15 -31.7655 318.49 -31.3655 318.57 -31.4455C318.61 -31.4855 318.59 -31.4155 318.53 -31.1956L173.78 143.18V143.19Z" fill="white"/>
<path d="M113.27 143.19H112.41L257.28 -31.3256C257.44 -31.5155 258.17 -31.4855 258.12 -31.3256L113.27 143.19Z" fill="white"/>
<path d="M108.61 143.19H107.76L252.85 -31.5951C253.22 -32.0351 253.54 -31.4052 253.49 -31.3352C253.45 -31.2852 253.42 -31.2252 253.31 -31.0952L245.23 -21.3666L109.14 142.37C108.88 142.69 108.73 142.95 108.61 143.18V143.19Z" fill="white"/>
<path d="M29.4801 143.189H28.6201L173.22 -30.9958C173.58 -31.4257 174.07 -31.6357 174.35 -31.3357L29.4801 143.189Z" fill="white"/>
<path d="M103.96 143.19H103.1L248.2 -31.5953C248.57 -32.0352 248.9 -31.4053 248.84 -31.3253C248.8 -31.2753 248.77 -31.2253 248.65 -31.0754L236.08 -15.9475L104.49 142.37C104.23 142.69 104.08 142.95 103.96 143.18V143.19Z" fill="white"/>
<path d="M94.65 143.19H93.79L238.66 -31.3256C238.82 -31.5155 239.55 -31.4855 239.5 -31.3256L94.65 143.19Z" fill="white"/>
<path d="M89.9896 143.19H89.1396L233.83 -31.1055C234.21 -31.5654 234.31 -31.4654 234.7 -31.5654L234.77 -31.1855L119.22 107.855L89.9896 143.18V143.19Z" fill="white"/>
<path d="M85.3395 143.19H84.4795L229.259 -31.2154C229.689 -31.7353 230.029 -31.3953 230.129 -31.4453C230.179 -31.4753 230.169 -31.4253 230.089 -31.1854L85.3395 143.19Z" fill="white"/>
<path d="M76.0299 143.189H75.1699L219.76 -30.9958C220.12 -31.4257 220.61 -31.6357 220.89 -31.3357L76.0299 143.189Z" fill="white"/>
<path d="M71.3695 143.189H70.5195L215.11 -30.9958C215.47 -31.4257 215.96 -31.6357 216.24 -31.3357L71.3695 143.189Z" fill="white"/>
<path d="M66.7194 143.19H65.8594L210.959 -31.5951C211.329 -32.0351 211.649 -31.4052 211.589 -31.3352L211.369 -31.0752L66.7194 143.19Z" fill="white"/>
<path d="M57.4098 143.189H56.5498L201.15 -30.9958C201.51 -31.4257 202 -31.6357 202.28 -31.3357L57.4098 143.189Z" fill="white"/>
<path d="M52.7494 143.19H51.8994L196.489 -30.9951C196.709 -31.2651 196.979 -31.405 197.329 -31.625C197.529 -31.365 197.569 -31.335 197.509 -31.2051L52.7494 143.19Z" fill="white"/>
<path d="M48.0993 143.189H47.2393L192.299 -31.5459L192.979 -31.3959C193.079 -31.3759 192.779 -31.086 192.679 -30.956L48.1693 142.919L48.0993 143.179V143.189Z" fill="white"/>
<path d="M38.7897 143.189H37.9297L182.53 -30.9958C182.89 -31.4257 183.38 -31.6357 183.66 -31.3357L38.7897 143.189Z" fill="white"/>
<path d="M34.1293 143.189H33.2793L177.869 -30.9958C178.229 -31.4257 178.719 -31.6357 178.999 -31.3357L34.1293 143.189Z" fill="white"/>
<path d="M-119.47 143.19H-120.33L24.3499 -31.1051C24.6599 -31.4751 25.1999 -31.595 25.3799 -31.3251L-119.47 143.19Z" fill="white"/>
<path d="M141.2 143.19H140.34L285.12 -31.2154C285.55 -31.7353 285.89 -31.3953 285.99 -31.4453C286.05 -31.4753 286.03 -31.4253 285.95 -31.1854L141.2 143.19Z" fill="white"/>
<path d="M-110.17 143.189H-111.03L33.5697 -30.9958C33.9297 -31.4257 34.4197 -31.6357 34.6997 -31.3357L-110.17 143.189Z" fill="white"/>
<path d="M169.13 143.19H168.27L312.95 -31.1052C313.07 -31.2552 313.42 -31.4552 313.55 -31.5052C313.68 -31.5552 314.12 -31.3752 313.89 -31.2152L169.12 143.18L169.13 143.19Z" fill="white"/>
<path d="M-100.861 143.189H-101.721L42.8793 -30.9958C43.2393 -31.4257 43.7293 -31.6357 44.0093 -31.3357L-100.861 143.189Z" fill="white"/>
<path d="M-96.1998 143.189H-97.0498L47.5302 -30.9958C47.8902 -31.4257 48.3802 -31.6357 48.6602 -31.3357L-96.1998 143.189Z" fill="white"/>
<path d="M-91.5502 143.189H-92.4102L52.1898 -30.9958C52.5498 -31.4257 53.0399 -31.6357 53.3199 -31.3357L-91.5502 143.189Z" fill="white"/>
<path d="M164.47 143.19H163.62L308.39 -31.2152C308.6 -31.4651 309.09 -31.5051 309.37 -31.3851L164.46 143.18L164.47 143.19Z" fill="white"/>
<path d="M-82.2406 143.189H-83.1006L61.4994 -30.9958C61.8594 -31.4257 62.3494 -31.6357 62.6294 -31.3357L-82.2406 143.189Z" fill="white"/>
<path d="M-77.5807 143.189H-78.4307L66.1493 -30.9958C66.5093 -31.4257 66.9993 -31.6357 67.2793 -31.3357L-77.5807 143.189Z" fill="white"/>
<path d="M-72.93 143.19H-73.79L70.9 -31.1051C71.21 -31.4751 71.75 -31.595 71.93 -31.3251L-72.93 143.19Z" fill="white"/>
<path d="M159.82 143.19H158.96L303.83 -31.3256C303.99 -31.5155 304.72 -31.4855 304.67 -31.3256L159.82 143.18V143.19Z" fill="white"/>
<path d="M-63.6205 143.189H-64.4805L80.1195 -30.9958C80.4795 -31.4257 80.9695 -31.6357 81.2495 -31.3357L-63.6205 143.189Z" fill="white"/>
<path d="M-58.9605 143.189H-59.8105L84.7695 -30.9958C85.1295 -31.4257 85.6195 -31.6357 85.8995 -31.3357L-58.9605 143.189Z" fill="white"/>
<path d="M-54.3099 143.189H-55.1699L89.4301 -30.9958C89.7901 -31.4257 90.2801 -31.6357 90.5601 -31.3357L-54.3099 143.189Z" fill="white"/>
<path d="M150.509 143.189H149.649L294.749 -31.5958C295.119 -32.0357 295.449 -31.3958 295.389 -31.3258C295.349 -31.2758 295.339 -31.2458 295.179 -31.0558L150.579 142.929L150.509 143.189Z" fill="white"/>
<path d="M-45.0004 143.19H-45.8604L99.0096 -31.3256C99.1696 -31.5155 99.8996 -31.4855 99.8496 -31.3256L-45.0004 143.19Z" fill="white"/>
<path d="M-40.3502 143.189H-41.2002L103.39 -30.9958C103.75 -31.4257 104.24 -31.6357 104.52 -31.3357L-40.3502 143.189Z" fill="white"/>
<path d="M-35.6898 143.19H-36.5498L108.32 -31.3256C108.48 -31.5155 109.21 -31.4855 109.16 -31.3256L-35.6898 143.19Z" fill="white"/>
<path d="M145.85 143.189H145L290.09 -31.5958C290.46 -32.0357 290.79 -31.3958 290.73 -31.3258C290.69 -31.2758 290.68 -31.2458 290.52 -31.0558L145.91 142.939L145.84 143.199L145.85 143.189Z" fill="white"/>
<path d="M-26.3802 143.189H-27.2402L117.36 -30.9958C117.72 -31.4257 118.21 -31.6357 118.49 -31.3357L-26.3802 143.189Z" fill="white"/>
<path d="M-21.7301 143.189H-22.5801L122.01 -30.9958C122.37 -31.4257 122.86 -31.6357 123.14 -31.3357L-21.7301 143.189Z" fill="white"/>
<path d="M-17.0707 143.189H-17.9307L126.669 -30.9958C127.029 -31.4257 127.519 -31.6357 127.799 -31.3357L-17.0707 143.189Z" fill="white"/>
<path d="M131.889 143.19H131.029L275.899 -31.3255L276.619 -31.5654L276.639 -31.1955L131.889 143.19Z" fill="white"/>
<path d="M-7.76012 143.189H-8.62012L136.48 -31.5958C136.85 -32.0357 137.18 -31.3958 137.12 -31.3258C137.08 -31.2758 137.07 -31.2458 136.91 -31.0558L-7.23012 142.369C-7.49012 142.679 -7.64012 142.949 -7.76012 143.179V143.189Z" fill="white"/>
<path d="M-3.10996 143.189H-3.95996L140.63 -30.9958C140.99 -31.4257 141.48 -31.6357 141.76 -31.3357L-3.10996 143.189Z" fill="white"/>
<path d="M1.54945 143.19H0.689453L145.379 -31.1051C145.689 -31.4751 146.229 -31.595 146.409 -31.3251L1.54945 143.19Z" fill="white"/>
<path d="M-114.82 143.189H-115.67L28.9201 -30.9958C29.2801 -31.4257 29.7701 -31.6357 30.0501 -31.3357L-114.82 143.189Z" fill="white"/>
<path d="M10.86 143.189H10L154.6 -30.9958C154.96 -31.4257 155.45 -31.6357 155.73 -31.3357L10.86 143.189Z" fill="white"/>
<path d="M15.5102 143.19H14.6602L159.53 -31.3256C159.69 -31.5155 160.42 -31.4855 160.37 -31.3256L15.5102 143.19Z" fill="white"/>
<path d="M20.1696 143.189H19.3096L163.91 -30.9958C164.27 -31.4257 164.76 -31.6357 165.04 -31.3357L20.1696 143.189Z" fill="white"/>
<path d="M127.23 143.19H126.38L271.07 -31.1054C271.68 -31.8453 271.92 -31.3854 272.03 -31.4454C272.11 -31.4954 272.03 -31.2454 271.97 -31.1654L271.7 -30.8455L127.23 143.19Z" fill="white"/>
<path d="M122.58 143.19H121.72L266.31 -30.995C267.01 -31.8449 267.49 -31.365 267.49 -31.365L267.25 -31.065L122.65 142.92L122.58 143.18V143.19Z" fill="white"/>
<path d="M178.44 143.19H177.58L322.68 -31.5954C323.05 -32.0354 323.36 -31.4155 323.31 -31.3455L323.15 -31.1055L322.93 -30.8355L178.97 142.38C178.71 142.69 178.56 142.96 178.44 143.19Z" fill="white"/>
<path d="M183.09 143.189H182.24L326.93 -31.1059C327.54 -31.8458 327.78 -31.3759 327.89 -31.4459C327.97 -31.4959 327.89 -31.2459 327.83 -31.1759L327.56 -30.8559L183.09 143.189Z" fill="white"/>
<path d="M187.74 143.19H186.88L331.58 -31.1152C331.84 -31.0952 331.92 -31.0952 331.92 -31.0952L331.87 -30.4053L187.82 142.91L187.75 143.17L187.74 143.19Z" fill="white"/>
<path d="M-128.53 142.38V141.37C-128.3 141.29 -128.07 141.13 -127.81 140.82L14.9697 -30.9753C15.2797 -31.4353 15.8197 -31.6552 16.0997 -31.3053L-127.8 141.83C-128.05 142.13 -128.3 142.29 -128.53 142.38Z" fill="white"/>
<path d="M-128.53 136.721V135.711C-128.41 135.731 -128.44 135.961 -127.75 135.131L10.1797 -30.805C10.7997 -31.5449 10.9297 -31.5749 11.4897 -31.365L-127.86 136.301C-128.06 136.551 -128.35 136.691 -128.53 136.721Z" fill="white"/>
<path d="M-128.53 131.271V130.261C-128.46 130.221 -128.15 130.031 -128.03 129.881L5.65973 -30.9757C6.00973 -31.3957 6.30973 -31.5856 6.82973 -31.3657L-127.84 130.681C-128.08 130.971 -128.33 131.151 -128.53 131.281V131.271Z" fill="white"/>
<path d="M-128.53 125.622V124.612C-128.37 124.542 -128.11 124.382 -127.91 124.142L1.00972 -30.9759C1.34972 -31.3859 1.66972 -31.5759 2.17972 -31.3659L-127.91 125.152C-128.11 125.392 -128.37 125.552 -128.53 125.612V125.622Z" fill="white"/>
</g>
</g>
<path d="M37.9805 29.7959H58.6105V36.045H51.7505V54.9223H44.8105V36.045H37.9805V29.7959Z" fill="white"/>
<path d="M66.4407 53.8627C64.3307 52.7229 62.6807 51.1631 61.5007 49.1634C60.3107 47.1637 59.7207 44.894 59.7207 42.3644C59.7207 39.8347 60.3107 37.565 61.5007 35.5653C62.6907 33.5656 64.3307 31.9958 66.4407 30.866C68.5507 29.7262 70.9307 29.1562 73.5907 29.1562C76.2507 29.1562 78.6307 29.7162 80.7207 30.846C82.8207 31.9758 84.4507 33.5356 85.6207 35.5453C86.7907 37.555 87.3807 39.8247 87.3807 42.3644C87.3807 44.904 86.7907 47.1737 85.6207 49.1834C84.4507 51.1931 82.8107 52.7629 80.7207 53.8827C78.6207 55.0026 76.2507 55.5725 73.5907 55.5725C70.9307 55.5725 68.5507 55.0026 66.4407 53.8627ZM76.9607 48.2435C77.9707 47.6736 78.7507 46.8637 79.3107 45.8339C79.8707 44.804 80.1507 43.6442 80.1507 42.3544C80.1507 41.0645 79.8707 39.9047 79.3107 38.8749C78.7507 37.845 77.9607 37.0451 76.9607 36.4652C75.9607 35.8853 74.8307 35.6053 73.5807 35.6053C72.3307 35.6053 71.1707 35.8953 70.1707 36.4652C69.1607 37.0351 68.3707 37.845 67.8007 38.8749C67.2307 39.9047 66.9407 41.0645 66.9407 42.3544C66.9407 43.6442 67.2307 44.804 67.8007 45.8339C68.3807 46.8637 69.1707 47.6636 70.1707 48.2435C71.1807 48.8134 72.3107 49.1034 73.5807 49.1034C74.8507 49.1034 75.9507 48.8134 76.9607 48.2435Z" fill="white"/>
<path d="M101.65 29.7959C103.4 29.7959 104.98 30.1858 106.39 30.9657C107.8 31.7456 108.92 32.8255 109.73 34.2153C110.54 35.6051 110.95 37.1548 110.95 38.8846C110.95 40.6144 110.54 42.1641 109.73 43.5539C108.92 44.9437 107.8 46.0336 106.39 46.8235C104.98 47.6134 103.4 48.0033 101.65 48.0033H97.8802V54.9323H90.9502V29.8059H101.66L101.65 29.7959ZM100.82 41.9342C101.71 41.9342 102.43 41.6542 102.99 41.0943C103.55 40.5344 103.83 39.7945 103.83 38.8846C103.83 37.9747 103.55 37.2648 102.99 36.6949C102.43 36.125 101.7 35.835 100.82 35.835H97.8702V41.9342H100.82Z" fill="white"/>
<path d="M119.65 36.4759V31.0566H129.6V54.9232H123.17V36.4759H119.65Z" fill="white"/>
<path d="M150.881 49.2534V54.9226H133.091V53.4828C136.471 49.4833 138.881 46.5838 140.331 44.764C141.781 42.9443 142.761 41.5845 143.261 40.6946C143.761 39.7947 144.011 38.9848 144.011 38.2749C144.011 37.625 143.821 37.1051 143.451 36.7152C143.081 36.3152 142.581 36.1252 141.961 36.1252C141.291 36.1252 140.761 36.3352 140.361 36.7552C139.961 37.1751 139.771 37.745 139.771 38.4649V38.9348H133.481V38.4649C133.481 36.0453 134.231 34.1155 135.731 32.6457C137.231 31.186 139.271 30.4561 141.861 30.4561C143.541 30.4561 145.021 30.776 146.321 31.4259C147.611 32.0758 148.631 32.9657 149.361 34.1155C150.091 35.2654 150.461 36.5752 150.461 38.065C150.461 39.1148 150.291 40.1147 149.961 41.0645C149.621 42.0144 149.011 43.1242 148.131 44.4041C147.241 45.6839 145.951 47.3036 144.251 49.2634H150.901L150.881 49.2534Z" fill="white"/>
<path d="M158.76 54.023C157.19 52.9931 155.98 51.5333 155.11 49.6436C154.25 47.7539 153.82 45.5442 153.82 43.0045C153.82 40.4649 154.25 38.2652 155.11 36.3855C155.97 34.5058 157.19 33.056 158.76 32.0261C160.33 30.9963 162.17 30.4863 164.28 30.4863C166.39 30.4863 168.23 30.9963 169.8 32.0261C171.37 33.056 172.58 34.5058 173.45 36.3855C174.31 38.2652 174.74 40.4749 174.74 43.0045C174.74 45.5342 174.31 47.7539 173.45 49.6436C172.59 51.5333 171.37 52.9931 169.8 54.023C168.23 55.0528 166.39 55.5627 164.28 55.5627C162.17 55.5627 160.33 55.0428 158.76 54.023ZM167.17 48.1038C167.85 46.934 168.19 45.2442 168.19 43.0445C168.19 40.8448 167.85 39.1451 167.17 37.9453C166.49 36.7454 165.52 36.1555 164.28 36.1555C163.04 36.1555 162.07 36.7454 161.39 37.9353C160.71 39.1151 160.37 40.8149 160.37 43.0145C160.37 45.2142 160.71 46.914 161.38 48.0938C162.05 49.2836 163.02 49.8736 164.29 49.8736C165.56 49.8736 166.5 49.2836 167.18 48.1138L167.17 48.1038Z" fill="white"/>
</g>
<defs>
<clipPath id="clip0_2061_6104">
<rect width="191" height="70" fill="white"/>
</clipPath>
</defs>
</svg>
