<svg width="183" height="40" viewBox="0 0 183 40" fill="none" xmlns="http://www.w3.org/2000/svg">
<path d="M34.1997 10.0658C34.1997 10.0658 34.1811 10.0099 34.1718 9.98195C34.1718 9.98195 34.1718 9.98195 34.1718 9.97264C34.1718 9.97264 34.1718 9.97264 34.1718 9.96333C34.1625 9.9447 34.1439 9.93539 34.1346 9.92607C34.116 9.89813 34.0974 9.8795 34.0694 9.86088C34.0508 9.84225 34.0415 9.83294 34.0229 9.82362C34.0229 9.82362 34.0229 9.81431 34.0043 9.80499L17.3417 0.0628675C17.2022 -0.0209558 17.0254 -0.0209558 16.8766 0.0628675L0.213981 9.78637C0.213981 9.78637 0.213981 9.79568 0.195374 9.80499C0.176767 9.81431 0.15816 9.83294 0.148856 9.84225C0.120946 9.86088 0.102339 9.88882 0.0837316 9.91676C0.0744281 9.93539 0.055821 9.9447 0.0465175 9.95401C0.0465175 9.95401 0.0465175 9.95401 0.0465175 9.96333C0.0465175 9.96333 0.0465175 9.96333 0.0465175 9.97264C0.037214 10.0006 0.0279105 10.0285 0.018607 10.0565C0.018607 10.0844 0 10.1123 0 10.1496C0 10.1589 0 10.1682 0 10.1775V29.8201C0 29.8201 0 29.8574 0.00930351 29.876C0.00930351 29.904 0.00930351 29.9412 0.0279105 29.9691C0.0279105 29.9878 0.0465175 30.0064 0.055821 30.025C0.055821 30.0343 0.0651246 30.053 0.0744281 30.0623C0.0837316 30.0809 0.102339 30.0995 0.111642 30.1182C0.130249 30.1461 0.15816 30.1647 0.176767 30.1834C0.195374 30.1927 0.204677 30.2113 0.223284 30.2206L16.8766 39.9441H16.8952C16.9603 39.9814 17.0254 40 17.0998 40C17.1743 40 17.2487 39.9721 17.3045 39.9441H17.3231L33.9764 30.2206C33.9764 30.2206 34.0043 30.1927 34.0229 30.1834C34.0508 30.1647 34.0694 30.1461 34.0881 30.1182C34.1067 30.0995 34.116 30.0809 34.1253 30.0623C34.1253 30.053 34.1439 30.0343 34.1439 30.025C34.1532 30.0064 34.1625 29.9878 34.1718 29.9691C34.1811 29.9412 34.1904 29.904 34.1904 29.876C34.1904 29.8574 34.1997 29.8388 34.1997 29.8201V10.1775C34.1997 10.1775 34.1997 10.1589 34.1997 10.1496C34.1997 10.1217 34.1904 10.0937 34.1811 10.0565L34.1997 10.0658ZM0.911744 10.9878L16.6533 20.2643V38.7426L0.911744 29.5593V10.9878ZM33.3066 29.5593L17.565 38.752V20.2736L33.3066 10.9971V29.5687V29.5593ZM17.1092 0.984923L32.86 10.1775L17.1092 19.4633L1.35831 10.1869L17.1092 0.984923Z" fill="white"/>
<path d="M22.8306 29.8294L26.7009 27.5942C28.5988 26.4951 29.6035 25.2098 29.6035 24.0084C29.6035 23.1888 29.1291 22.8721 28.329 23.0491C28.9523 22.3692 29.2779 21.652 29.2779 21.0094C29.2779 19.9662 28.3941 19.7241 26.4962 20.8138L22.8213 22.9373V29.8201L22.8306 29.8294ZM27.2684 25.0981C27.2684 25.452 27.0172 25.7873 26.5055 26.0853L25.11 26.8956V25.8152L26.5055 25.0049C27.0172 24.7069 27.2684 24.7442 27.2684 25.1074V25.0981ZM26.1799 22.6206C26.7009 22.3226 26.9334 22.3599 26.9334 22.6951C26.9334 23.0304 26.7009 23.3471 26.1799 23.6451L25.1006 24.2692V23.2447L26.1799 22.6206Z" fill="white"/>
<path d="M10.6429 26.5231C10.4196 26.6348 10.1684 26.6814 9.88001 26.6535C9.5916 26.6255 9.3311 26.5417 9.07991 26.3927C8.67055 26.1505 8.32632 25.7966 8.05652 25.3402C7.78672 24.8839 7.65647 24.4182 7.65647 23.9618C7.65647 23.5054 7.78672 23.2074 8.05652 23.0677C8.32632 22.928 8.66125 22.9839 9.07991 23.226C9.34971 23.3844 9.62881 23.6265 9.90792 23.9618C10.1963 24.2971 10.4382 24.6697 10.6429 25.0701L11.9547 24.2785C11.6012 23.6917 11.1546 23.1236 10.6243 22.5834C10.094 22.0432 9.56369 21.6148 9.04269 21.3074C7.96348 20.6741 7.07035 20.4785 6.37259 20.7206C5.67482 20.9628 5.32129 21.5961 5.32129 22.6206C5.32129 23.6545 5.66552 24.7069 6.35398 25.7873C7.04244 26.8677 7.91697 27.7152 8.96826 28.3393C9.49856 28.6559 10.0289 28.8422 10.5685 28.9074C11.1081 28.9726 11.5732 28.9074 11.9547 28.7211L10.6336 26.5324L10.6429 26.5231Z" fill="white"/>
<path d="M13.0811 11.4069L14.6533 12.3942L16.7652 11.1462L18.5608 12.2824L20.4122 11.1834L18.6073 10.0565L20.7192 8.80842L19.1469 7.81186L17.035 9.05989L15.2395 7.93294L13.3881 9.02264L15.193 10.1589L13.0811 11.4069Z" fill="white"/>
<path d="M59.1615 24.4275C58.38 24.7907 57.6264 24.9677 56.9007 24.9677C55.5331 24.9677 54.3888 24.4834 53.4677 23.5054C52.5467 22.5368 52.0815 21.3167 52.0815 19.8731C52.0815 18.4295 52.5467 17.2653 53.4677 16.2966C54.3888 15.328 55.5331 14.853 56.9007 14.853C57.6729 14.853 58.4544 15.0579 59.2359 15.4584C60.0174 15.8589 60.6872 16.4084 61.2454 17.1069L63.7946 14.0893C62.9201 13.1952 61.8595 12.4873 60.6221 11.9658C59.3754 11.4349 58.1102 11.1741 56.8263 11.1741C54.1934 11.1741 51.9884 12.0123 50.2301 13.6888C48.4717 15.3653 47.5879 17.4422 47.5879 19.9383C47.5879 22.4344 48.4531 24.5951 50.1836 26.2995C51.914 27.9946 54.0817 28.8515 56.6774 28.8515C57.9427 28.8515 59.2173 28.5628 60.4919 27.9853C61.7664 27.4079 62.8736 26.6442 63.8132 25.6848L61.2454 22.9652C60.6314 23.5893 59.9429 24.0829 59.1615 24.4461V24.4275Z" fill="white"/>
<path d="M80.1679 17.3491C80.1679 15.4212 79.5446 13.931 78.2886 12.8878C77.0327 11.8447 75.265 11.3138 72.9763 11.3138H65.2451V28.628H69.6457V23.7569H73.1066L75.6743 28.628H80.6703L77.042 22.9094C79.1353 21.8662 80.1772 20.0128 80.1772 17.3398L80.1679 17.3491ZM75.1999 19.5751C74.6696 20.0501 73.9346 20.2922 72.9763 20.2922H69.6364V14.7785H72.9763C73.9346 14.7785 74.6696 15.0114 75.1999 15.4677C75.7302 15.9334 75.9907 16.604 75.9907 17.4981C75.9907 18.3922 75.7302 19.1001 75.1999 19.5751Z" fill="white"/>
<path d="M89.5464 11.3138L82.085 28.628H86.6065L87.8624 25.4334H95.4262L96.6636 28.628H101.362L94.0679 11.3138H89.5464ZM89.1556 22.0991L91.6769 15.6913L94.1516 22.0991H89.1649H89.1556Z" fill="white"/>
<path d="M102.785 28.6373H107.186V22.2481H114.945V18.7834H107.186V14.7785H115.605V11.3138H102.785V28.6373Z" fill="white"/>
<path d="M117.038 14.853H122.202V28.6373H126.593V14.853H131.812V11.2952H117.038V14.853Z" fill="white"/>
<path d="M144.837 19.454C145.758 19.1932 146.483 18.7182 147.014 18.029C147.544 17.3491 147.805 16.5481 147.805 15.6447C147.805 14.3221 147.228 13.2697 146.083 12.4873C144.939 11.705 143.395 11.3138 141.45 11.3138H133.272V28.628H141.748C143.795 28.628 145.404 28.1995 146.604 27.3334C147.795 26.4672 148.4 25.303 148.4 23.8314C148.4 22.7138 148.074 21.7545 147.432 20.9628C146.79 20.1711 145.925 19.6682 144.837 19.454ZM137.645 14.6854H141.199C141.841 14.6854 142.353 14.8437 142.734 15.1511C143.116 15.4677 143.302 15.8962 143.302 16.4363C143.302 16.9765 143.116 17.4422 142.734 17.7589C142.353 18.0756 141.841 18.2432 141.199 18.2432H137.645V14.6854ZM143.143 24.7255C142.678 25.0701 142.027 25.2471 141.199 25.2471H137.645V21.4099H141.199C142.027 21.4099 142.669 21.5775 143.143 21.9128C143.609 22.2481 143.851 22.7045 143.851 23.2819C143.851 23.8966 143.618 24.3716 143.143 24.7162V24.7255Z" fill="white"/>
<path d="M165.147 13.6795C163.37 12.003 161.137 11.1648 158.448 11.1648C155.759 11.1648 153.554 11.9937 151.778 13.6609C150.001 15.328 149.107 17.4236 149.107 19.9476C149.107 22.4716 150.001 24.6045 151.778 26.2902C153.554 27.9853 155.778 28.8236 158.448 28.8236C161.118 28.8236 163.342 27.976 165.128 26.2716C166.914 24.5765 167.807 22.4623 167.807 19.9383C167.807 17.4143 166.914 15.3373 165.137 13.6702L165.147 13.6795ZM161.9 23.6451C160.969 24.6417 159.834 25.1447 158.504 25.1447C157.174 25.1447 156.02 24.6417 155.052 23.6451C154.085 22.6486 153.61 21.4192 153.61 19.9756C153.61 18.5319 154.085 17.3118 155.043 16.3246C156.001 15.3466 157.155 14.853 158.504 14.853C159.853 14.853 160.969 15.3466 161.9 16.3246C162.83 17.3025 163.295 18.5226 163.295 19.9756C163.295 21.4285 162.83 22.6486 161.9 23.6451Z" fill="white"/>
<path d="M176.795 19.5751L182.507 11.3138H177.344L174.004 16.3618L170.664 11.3138H165.556L171.334 19.78L165.156 28.6373H170.273L174.004 23.1143L177.735 28.6373H183L176.795 19.5751Z" fill="white"/>
</svg>
