<svg width="169" height="40" viewBox="0 0 169 40" fill="none" xmlns="http://www.w3.org/2000/svg">
<g clip-path="url(#clip0_2173_55741)">
<path d="M19.0336 4.44555C18.5792 4.10167 18.015 3.93222 17.4408 3.96711C16.8716 3.95714 16.3174 4.1216 15.848 4.44555C15.4735 4.61999 15.2289 4.98879 15.2139 5.39746C15.2139 5.71642 15.5335 6.0304 15.848 6.34936L17.4408 6.66833L19.0336 6.34936C19.4081 6.17493 19.6527 5.80613 19.6677 5.39746C19.7626 4.96885 19.4929 4.54523 19.0635 4.45054C19.0536 4.45054 19.0436 4.45054 19.0336 4.44555ZM18.5592 5.87092H16.3323C16.1726 5.71144 16.0128 5.55196 16.0128 5.39247C16.0128 5.23299 16.0128 4.91403 16.3323 4.75953H18.5592C18.8788 4.91901 19.0386 5.07849 19.0386 5.39247C19.0386 5.70645 18.8788 5.71144 18.5592 5.87092ZM17.7604 0.478445H17.1262V1.58983H15.3787V0.478445H14.7446V3.49365H17.7654V0.478445H17.7604ZM17.1262 3.0152H15.3787V2.06329H17.1262V3.0152ZM13.7859 0H13.3066V3.80763H13.7859V0ZM9.01752 4.91901V6.66334H13.9457V6.0304H9.65164V5.55196H13.7859V4.12161H9.01252V4.60005H13.1468V4.91901H9.01252H9.01752ZM23.9667 6.66833H24.4461V4.12659H27.3071V3.49365H21.1057V4.12659H23.9667V6.66833ZM91.393 17.7772H87.4185L88.2124 14.2836H91.393L92.5064 8.0937H68.9692V14.2836H72.4693L71.8352 17.7772H68.9741V23.9671H90.2845L91.398 17.7772H91.393ZM81.2171 17.7772H77.8768L78.6707 14.2836H82.011L81.2171 17.7772ZM136.88 40H169.005V8.0937H136.88V40ZM165.345 30.0025C165.999 29.9028 166.618 30.3165 166.778 30.9544H165.984C165.824 30.6354 165.665 30.476 165.35 30.476C165.175 30.476 165.031 30.6205 165.031 30.7949C165.031 30.9544 165.35 31.1139 165.824 31.2734C166.379 31.3531 166.783 31.8266 166.778 32.3848C166.778 33.0177 166.299 33.3367 165.505 33.3367C164.826 33.3915 164.187 33.0077 163.912 32.3848L164.706 32.0658C164.851 32.3947 165.15 32.629 165.5 32.6987C165.819 32.6987 165.979 32.5392 165.979 32.3798C165.979 32.2203 165.5 32.0608 165.026 31.7468C164.551 31.4328 164.072 31.4279 164.072 30.7949C164.072 30.162 164.706 29.843 165.345 29.843M158.03 29.843H158.824V31.2734H160.097V29.843H161.051V33.3367H160.097V32.0658H158.824V33.3367H158.03V29.843ZM153.097 29.843H153.891V33.3367H153.097V29.843ZM149.442 29.843H150.236L150.87 30.7949L151.664 31.9063V30.0025H152.458V33.4961H151.664L151.03 32.5442L150.236 31.4328V33.4961H149.442V29.843ZM142.921 29.843H144.195C144.894 29.7533 145.528 30.2467 145.618 30.9444C145.623 30.9993 145.628 31.0591 145.628 31.1139C145.608 31.5226 145.363 31.8914 144.993 32.0658L145.787 33.3367H144.834L144.2 32.2253H143.72V33.3367H142.926V29.843H142.921ZM140.694 29.843H141.488L142.762 33.3367H141.968V32.8582H140.535V33.3367H139.581L140.694 29.843ZM142.287 38.2557H139.266V34.2886H142.287V35.2405H140.22V35.8734H141.813V36.6658H140.22V37.4583H142.287V38.2507V38.2557ZM146.581 38.2557H145.628L144.674 37.1443L143.88 35.7139V38.2557H142.767V34.2886H143.72L144.674 35.4C144.884 35.8535 145.153 36.2821 145.468 36.6708V34.2886H146.581V38.2557ZM146.896 32.2253V33.3367H145.942V30.0025H146.896V31.2734L147.215 30.7949L148.169 30.0025H149.123L147.69 31.4328L149.123 33.4961H148.169L147.056 32.0658L146.896 32.2253ZM148.963 38.2557H147.215V34.2886H148.963C150.106 34.2886 151.03 35.2106 151.03 36.3519C151.03 37.4931 150.106 38.4152 148.963 38.4152M154.37 35.2405H152.303V36.0329H153.896V36.8253H152.303V38.4152H151.35V34.2886H154.37V35.2405ZM155.644 38.4152H154.69V34.2886H155.644V38.4152ZM154.211 31.7468C154.171 30.7849 154.925 29.9726 155.888 29.9327C156.597 29.9028 157.256 30.3065 157.551 30.9544H156.597C156.448 30.755 156.213 30.6354 155.963 30.6354C155.534 30.5358 155.109 30.7999 155.01 31.2285C154.985 31.3481 154.985 31.4677 155.01 31.5873C155.01 32.1156 155.439 32.5392 155.963 32.5392C156.343 32.5542 156.702 32.3748 156.917 32.0608H155.963V31.4279H157.556V33.3317H156.922V33.0127C156.672 33.2619 156.318 33.3815 155.968 33.3317C155.094 33.4214 154.315 32.7835 154.226 31.9113C154.221 31.8565 154.216 31.8016 154.216 31.7468M159.304 38.4152H156.283V34.2886H159.304V35.2405H157.236V35.8734H158.829V36.6658H157.236V37.4583H159.304V38.4102V38.4152ZM162.799 38.4152H159.938V34.2886H160.891V37.4632H162.799V38.4152ZM163.118 33.4912H162.165V30.7949H161.211V30.0025H164.072V30.7949H163.118V33.4912ZM164.866 38.4152H163.118V34.2886H164.866C166.009 34.2886 166.933 35.2106 166.933 36.3519C166.933 37.4931 166.009 38.4152 164.866 38.4152ZM132.426 25.238H110.002V14.2836H127.018L132.426 8.0937H103.96V31.2684H127.018L132.426 25.238ZM65.9484 25.238H42.4111V14.2836H60.5409L65.9484 8.0937H36.2097V31.2684H60.5409L65.9484 25.238ZM19.5129 2.22278H20.7862V1.58983H19.5129V0H19.0336V3.80763H19.5129V2.21779V2.22278ZM164.866 35.2405H164.072V37.4632H164.866C165.48 37.4632 165.979 36.9649 165.979 36.3519C165.979 35.7389 165.48 35.2405 164.866 35.2405ZM21.7398 2.54174C21.8497 2.73611 21.9046 2.95539 21.8996 3.17468C22.7884 2.98031 23.5773 2.47197 24.1265 1.74433C24.7407 2.47197 25.5795 2.97533 26.5132 3.17468L26.8327 2.54174C25.8791 2.39721 25.0253 1.88388 24.4461 1.11139H26.673V0.318963H21.7448V0.951906H23.9717C23.8119 1.74433 23.018 2.22278 21.7448 2.54174M102.847 40H134.813V33.9696H102.847V40ZM144.669 31.2734C144.669 30.9544 144.509 30.7949 144.349 30.7949H143.715V31.5873H144.349C144.524 31.5873 144.669 31.4428 144.669 31.2684M93.1455 23.9671H99.3469L101.094 16.0279V8.08871H96.6407L93.1405 23.9621L93.1455 23.9671ZM35.0963 40H67.2216V33.9696H40.5037L35.0963 40ZM68.9692 30.9544H81.5317L68.9692 34.6075V40.005H101.094V34.6075H88.3722L101.094 30.9544V25.5569H68.9692V30.9544ZM148.963 35.2405H148.169V37.4632H148.963C149.577 37.4632 150.076 36.9649 150.076 36.3519C150.076 35.7389 149.577 35.2405 148.963 35.2405ZM9.81141 3.65313C10.2808 3.67306 10.7401 3.49863 11.0846 3.17468C11.2844 2.78096 11.3892 2.34737 11.4042 1.90381C11.3842 1.49016 11.2145 1.09644 10.9249 0.792425C10.6403 0.478445 10.2358 0.304012 9.81141 0.31398C9.34207 0.294044 8.8827 0.468477 8.53818 0.792425C8.21364 1.13631 8.04387 1.58983 8.05885 2.06329C8.04387 2.48692 8.21863 2.89061 8.53818 3.17468C8.86773 3.51358 9.33707 3.68801 9.81141 3.65313ZM9.01752 1.27087L9.81141 0.951906L10.6053 1.27087C10.8 1.49016 10.9149 1.76925 10.9249 2.06329L10.6053 2.69624L9.81141 3.0152L9.01752 2.69624C8.75788 2.58659 8.57314 2.34239 8.53818 2.06329C8.50823 1.7244 8.70295 1.40543 9.01752 1.27087ZM141.174 31.5873V31.1089C141.174 31.2783 141.119 31.4478 141.014 31.5873V32.2203H141.493L141.174 31.5873ZM2.17703 5.39746C2.17703 5.71642 2.49658 6.0304 2.81115 6.34936L4.71849 6.66833L6.46606 6.34936C6.84054 6.17493 7.0852 5.80613 7.10018 5.39746C7.19505 4.96885 6.92543 4.54523 6.49602 4.45054C6.48604 4.45054 6.47605 4.45054 6.46606 4.44555C5.94179 4.1216 5.33264 3.95714 4.71849 3.96711C4.09936 3.95216 3.4952 4.11662 2.97093 4.44555C2.50657 4.52529 2.16704 4.92898 2.17703 5.39746ZM3.45026 4.76452H5.99672C6.31627 4.924 6.63084 5.08348 6.63084 5.39746C6.63084 5.71144 6.31128 5.71642 5.99672 5.8759H3.45026C2.97093 5.71642 2.81614 5.55694 2.81614 5.39746C2.81614 5.23798 2.97592 4.91901 3.45026 4.76452ZM4.72349 0.318963H1.38313V3.65313H4.72349V0.318963ZM4.08438 3.0152H2.01725V0.951906H4.08438V3.0152ZM6.63084 3.80763H7.11017V0H6.63084V1.11139H5.03805V1.74433H6.63084V2.22278H5.03805V2.85572H6.63084V3.80763ZM8.85774 30.0025H2.65636L1.22336 36.6708V40.005H27.7814L33.1889 33.9746H7.90406L8.85774 30.0075V30.0025ZM24.7606 30.0025H30.8022L33.3487 18.5746V8.09868H29.3742L24.7606 30.0025ZM8.85774 27.9392C12.6275 27.9591 16.0078 25.6068 17.286 22.0683H18.2397L16.6469 30.0075H22.6885L27.4619 8.10366H21.2605L19.6677 16.0429H17.281C15.6133 11.4229 10.5104 9.03065 5.88188 10.6952C1.25831 12.3548 -1.13836 17.4483 0.52932 22.0633C1.79756 25.5719 5.12293 27.9143 8.85774 27.9342M8.85774 15.7139C10.7002 15.7139 12.1981 17.2041 12.1981 19.0481C12.1981 20.8921 10.7052 22.3823 8.85774 22.3823C7.04526 22.3025 5.59727 20.8572 5.51738 19.0481C5.59727 17.239 7.04526 15.7937 8.85774 15.7139Z" fill="white"/>
</g>
<defs>
<clipPath id="clip0_2173_55741">
<rect width="169" height="40" fill="white"/>
</clipPath>
</defs>
</svg>
