<?xml version="1.0" encoding="UTF-8"?>
<svg id="Layer_2" data-name="Layer 2" xmlns="http://www.w3.org/2000/svg" xmlns:xlink="http://www.w3.org/1999/xlink" viewBox="0 0 319.02 70">
  <defs>
    <clipPath id="clippath">
      <path d="M319.02,0v70H85.38c-4.21,0-8.25-1.69-11.2-4.7h0c-6.15-6.26-16.24-6.26-22.39,0h0c-2.95,3-6.99,4.7-11.2,4.7h-4.91c-19.63,0-36.06-16.06-35.68-35.68C.37,15.3,15.9,0,35,0h5.6c4.21,0,8.25,1.69,11.2,4.7h0c6.15,6.26,16.24,6.26,22.39,0h0c2.95-3,6.99-4.7,11.2-4.7h233.64Z" fill="none"/>
    </clipPath>
  </defs>
  <g id="_图层_1" data-name="图层 1">
    <g>
      <g clip-path="url(#clippath)">
        <rect x="-5.37" y="-20.55" width="341.73" height="112" fill="#ff4723"/>
        <g opacity=".2">
          <path d="M163.9,121h-.86L308.39-54.28c.23.06.68.19.68.19s-.21.31-.31.43L163.97,120.74l-.07.26Z" fill="#fff"/>
          <path d="M182.55,121h-.86L326.56-53.7c.34-.4.71-.56,1.17-.39L182.55,121Z" fill="#fff"/>
          <path d="M201.21,121h-.86L345.4-53.92c.2-.24.72-.28.98-.16L201.21,121Z" fill="#fff"/>
          <path d="M238.52,121h-.86L383.01-54.28l.68.18c.06.02-.12.21-.22.33l-117.68,141.76-27.27,33.01Z" fill="#fff"/>
          <path d="M145.25,121h-.86L289.25-53.7c.35-.43.86-.63,1.13-.34L145.25,121Z" fill="#fff"/>
          <path d="M-41.29,121h-.86L102.71-53.7c.35-.43.86-.63,1.13-.34L-41.29,121Z" fill="#fff"/>
          <path d="M89.28,121h-.86L233.29-53.7c.35-.43.86-.63,1.13-.34L89.28,121Z" fill="#fff"/>
          <path d="M219.86,121h-.86L364.15-54.04c.15-.18.9-.15.84.01L219.86,121Z" fill="#fff"/>
          <path d="M126.59,121h-.86L270.79-53.93c.45-.54.78-.14.87-.22.04-.04.02.03-.04.25L126.59,121Z" fill="#fff"/>
          <path d="M-22.64,121h-.86L121.36-53.7c.35-.43.86-.63,1.13-.34L-22.64,121Z" fill="#fff"/>
          <path d="M-3.99,121h-.86L140.02-53.7c.35-.43.86-.63,1.13-.34L-3.99,121Z" fill="#fff"/>
          <path d="M14.67,121h-.86L158.67-53.7c.35-.43.86-.63,1.13-.34L14.67,121Z" fill="#fff"/>
          <path d="M33.32,121h-.86L177.33-53.7c.35-.43.86-.63,1.13-.34L33.32,121Z" fill="#fff"/>
          <path d="M51.98,121h-.86L195.98-53.7c.35-.43.86-.63,1.13-.34L51.98,121Z" fill="#fff"/>
          <path d="M70.63,121h-.86L215.12-54.27c.22.05.59.15.68.18.06.02-.15.19-.24.31L70.63,121Z" fill="#fff"/>
          <path d="M107.94,121h-.86L251.94-53.7c.35-.43.86-.63,1.13-.34L107.94,121Z" fill="#fff"/>
          <path d="M257.17,121h-.86L401.37-53.93c.45-.54.78-.14.87-.22.04-.04.02.03-.04.25l-145.02,174.9Z" fill="#fff"/>
          <path d="M196.54,121h-.86L340.82-54.03c.16-.19.89-.16.84,0L196.54,121Z" fill="#fff"/>
          <path d="M191.88,121h-.86L336.39-54.31c.37-.44.7.19.64.26-.04.05-.07.11-.18.24l-8.1,9.75L192.41,120.18c-.27.32-.41.58-.53.82Z" fill="#fff"/>
          <path d="M112.6,121h-.86L256.6-53.7c.36-.43.85-.64,1.13-.34L112.6,121Z" fill="#fff"/>
          <path d="M187.22,121h-.86L331.73-54.31c.37-.44.7.19.64.27-.04.05-.07.1-.19.25l-12.59,15.17L187.75,120.18c-.26.32-.41.58-.53.82Z" fill="#fff"/>
          <path d="M177.89,121h-.86L322.17-54.03c.16-.19.89-.16.84,0L177.89,121Z" fill="#fff"/>
          <path d="M173.23,121h-.86L317.33-53.82c.39-.46.48-.36.87-.46l.07.38-115.77,139.46-29.28,35.43Z" fill="#fff"/>
          <path d="M168.57,121h-.86L312.75-53.92c.43-.52.77-.18.87-.24.05-.03.04.02-.04.26L168.57,121Z" fill="#fff"/>
          <path d="M159.24,121h-.86L303.24-53.7c.36-.43.85-.64,1.13-.34L159.24,121Z" fill="#fff"/>
          <path d="M154.57,121h-.86L298.58-53.7c.36-.43.85-.64,1.13-.34L154.57,121Z" fill="#fff"/>
          <path d="M149.91,121h-.86L294.42-54.31c.37-.44.69.19.63.26l-.22.26L149.91,121Z" fill="#fff"/>
          <path d="M140.58,121h-.86L284.59-53.7c.36-.43.85-.64,1.13-.34L140.58,121Z" fill="#fff"/>
          <path d="M135.92,121h-.86L279.92-53.7c.22-.27.49-.41.84-.63.2.26.24.29.18.42L135.92,121Z" fill="#fff"/>
          <path d="M131.26,121h-.86L275.73-54.26l.69.15c.1.02-.2.31-.3.44L131.33,120.74l-.07.26Z" fill="#fff"/>
          <path d="M121.93,121h-.86L265.93-53.7c.36-.43.85-.64,1.13-.34L121.93,121Z" fill="#fff"/>
          <path d="M117.26,121h-.86L261.27-53.7c.36-.43.85-.64,1.13-.34L117.26,121Z" fill="#fff"/>
          <path d="M-36.63,121h-.86L107.46-53.81c.31-.37.85-.49,1.03-.22L-36.63,121Z" fill="#fff"/>
          <path d="M224.53,121h-.86L368.72-53.92c.43-.52.77-.18.87-.24.06-.03.04.02-.04.26L224.53,121Z" fill="#fff"/>
          <path d="M-27.3,121h-.86L116.7-53.7c.36-.43.85-.64,1.13-.34L-27.3,121Z" fill="#fff"/>
          <path d="M252.51,121h-.86L396.6-53.81c.12-.15.47-.35.6-.4s.57.13.34.29L252.51,121Z" fill="#fff"/>
          <path d="M-17.97,121h-.86L126.03-53.7c.36-.43.85-.64,1.13-.34L-17.97,121Z" fill="#fff"/>
          <path d="M-13.31,121h-.86L130.69-53.7c.36-.43.85-.64,1.13-.34L-13.31,121Z" fill="#fff"/>
          <path d="M-8.65,121h-.86L135.35-53.7c.36-.43.85-.64,1.13-.34L-8.65,121Z" fill="#fff"/>
          <path d="M247.84,121h-.86L392.03-53.92c.21-.25.7-.29.99-.17L247.84,121Z" fill="#fff"/>
          <path d="M.68,121H-.18L144.68-53.7c.36-.43.85-.64,1.13-.34L.68,121Z" fill="#fff"/>
          <path d="M5.34,121h-.86L149.34-53.7c.36-.43.85-.64,1.13-.34L5.34,121Z" fill="#fff"/>
          <path d="M10,121h-.86L154.1-53.81c.31-.37.85-.49,1.03-.22L10,121Z" fill="#fff"/>
          <path d="M243.18,121h-.86L387.46-54.03c.16-.19.89-.16.85,0L243.18,121Z" fill="#fff"/>
          <path d="M19.33,121h-.86L163.33-53.7c.36-.43.85-.64,1.13-.34L19.33,121Z" fill="#fff"/>
          <path d="M23.99,121h-.86L168-53.7c.36-.43.85-.64,1.13-.34L23.99,121Z" fill="#fff"/>
          <path d="M28.66,121h-.86L172.66-53.7c.36-.43.85-.64,1.13-.34L28.66,121Z" fill="#fff"/>
          <path d="M233.85,121h-.86L378.36-54.31c.37-.44.7.2.65.27-.04.05-.05.08-.21.27L233.93,120.74l-.07.26Z" fill="#fff"/>
          <path d="M37.99,121h-.86L182.26-54.03c.16-.19.89-.16.85,0L37.99,121Z" fill="#fff"/>
          <path d="M42.65,121h-.86L186.65-53.7c.36-.43.85-.64,1.13-.34L42.65,121Z" fill="#fff"/>
          <path d="M47.31,121h-.86L191.59-54.03c.16-.19.89-.16.84,0L47.31,121Z" fill="#fff"/>
          <path d="M229.19,121h-.86L373.7-54.31c.37-.44.7.2.64.27-.04.05-.05.08-.21.27L229.26,120.74l-.07.26Z" fill="#fff"/>
          <path d="M56.64,121h-.86L200.64-53.7c.36-.43.85-.64,1.13-.34L56.64,121Z" fill="#fff"/>
          <path d="M61.3,121h-.86L205.31-53.7c.36-.43.85-.64,1.13-.34L61.3,121Z" fill="#fff"/>
          <path d="M65.97,121h-.86L209.97-53.7c.36-.43.85-.64,1.13-.34L65.97,121Z" fill="#fff"/>
          <polygon points="215.2 121 214.34 121 359.48 -54.03 360.2 -54.28 360.22 -53.91 215.2 121" fill="#fff"/>
          <path d="M75.3,121h-.86L219.8-54.31c.37-.44.7.2.64.27-.04.05-.05.08-.21.27L75.83,120.18c-.26.32-.41.58-.53.82Z" fill="#fff"/>
          <path d="M79.96,121h-.86L223.96-53.7c.36-.43.85-.64,1.13-.34L79.96,121Z" fill="#fff"/>
          <path d="M84.62,121h-.86L228.72-53.81c.31-.37.85-.49,1.03-.22L84.62,121Z" fill="#fff"/>
          <path d="M-31.97,121h-.86L112.04-53.7c.36-.43.85-.64,1.13-.34L-31.97,121Z" fill="#fff"/>
          <path d="M93.95,121h-.86L237.95-53.7c.36-.43.85-.64,1.13-.34L93.95,121Z" fill="#fff"/>
          <path d="M98.61,121h-.86L242.89-54.03c.16-.19.89-.16.85,0L98.61,121Z" fill="#fff"/>
          <path d="M103.27,121h-.86L247.28-53.7c.36-.43.85-.64,1.13-.34L103.27,121Z" fill="#fff"/>
          <path d="M210.53,121h-.86L354.64-53.82c.61-.74.85-.28.96-.35.08-.05,0,.2-.06.28l-.27.32L210.53,121Z" fill="#fff"/>
          <path d="M205.87,121h-.86L349.87-53.7c.71-.85,1.18-.37,1.18-.37l-.24.3L205.95,120.74l-.07.26Z" fill="#fff"/>
          <path d="M261.83,121h-.86L406.34-54.31c.37-.44.68.18.63.25l-.16.24-.22.27-144.23,173.73c-.26.32-.41.58-.53.82Z" fill="#fff"/>
          <path d="M266.5,121h-.86L410.6-53.82c.61-.74.85-.28.96-.35.08-.05,0,.2-.06.28l-.27.32-144.74,174.56Z" fill="#fff"/>
          <path d="M271.16,121h-.86L415.26-53.82c.26.02.34.02.34.02l-.05.69-144.32,173.84-.07.26Z" fill="#fff"/>
          <path d="M-45.7,120.19v-1.01c.23-.08.47-.24.73-.56L98.07-53.69c.31-.47.85-.68,1.13-.33L-44.97,119.64c-.25.3-.51.46-.73.55Z" fill="#fff"/>
          <path d="M275.82,121h-.86L415.51-48.5c.08.32.09.91-.1,1.14l-139.58,168.35Z" fill="#fff"/>
          <path d="M-45.7,114.52v-1.01c.12.02.09.25.78-.58L93.26-53.52c.62-.74.75-.77,1.31-.56L-45.03,114.1c-.2.25-.49.39-.67.42Z" fill="#fff"/>
          <path d="M280.49,121h-.86L415.32-42.65l.34.07c-.08.42-.02.56-.18.75l-134.99,162.83Z" fill="#fff"/>
          <path d="M-45.7,109.05v-1.01c.07-.04.38-.23.5-.38L88.74-53.69c.35-.42.65-.61,1.17-.39L-45.01,108.45c-.24.29-.49.47-.69.6Z" fill="#fff"/>
          <path d="M285.15,121h-.86L415.38-37.11c.2.03.26.7.07.93l-130.31,157.18Z" fill="#fff"/>
          <path d="M-45.7,103.38v-1.01c.16-.07.42-.23.62-.47L84.08-53.69c.34-.42.67-.6,1.17-.39L-45.08,102.92c-.2.24-.46.4-.62.47Z" fill="#fff"/>
          <path d="M289.81,121h-.86L415.16-31.22c.05-.06.27-.22.33-.26s.19.45.16.52c-.2.43-.74,1.12-1.19,1.67l-124.56,150.04-.07.26Z" fill="#fff"/>
          <path d="M-45.7,97.71v-1.01c.17-.05.45-.21.65-.45L79.41-53.69c.35-.42.65-.61,1.17-.39L-45.05,97.26c-.2.24-.48.4-.65.45Z" fill="#fff"/>
          <path d="M294.48,121h-.86L415.5-26.02c.25.76-.08,1.13-.54,1.68l-120.48,145.34Z" fill="#fff"/>
          <path d="M-45.7,92.24v-1.22c.18-.03.47-.18.67-.42L74.75-53.69c.35-.42.65-.61,1.17-.39L-45.04,91.64c-.23.28-.48.47-.66.61Z" fill="#fff"/>
          <path d="M299.14,121h-.86L415.44-20.33c.15.32.16.82-.05,1.08l-116.25,140.25Z" fill="#fff"/>
          <path d="M-45.7,86.57v-1.01c.2-.13.45-.31.69-.6L70.18-53.8c.31-.39.81-.52,1.04-.22L-45.1,86.09c-.19.22-.46.4-.6.48Z" fill="#fff"/>
          <path d="M303.8,121h-.86L415.43-14.7c.17.36.17.82-.07,1.1l-111.56,134.6Z" fill="#fff"/>
          <path d="M-45.7,80.9v-1.01c.16-.07.42-.22.62-.46L65.42-53.69c.34-.42.66-.6,1.17-.39L-45.07,80.43c-.2.24-.47.4-.63.47Z" fill="#fff"/>
          <path d="M308.5,121h-.85L415.43-9.04c.36.68,0,1.03-.42,1.53l-106.51,128.51Z" fill="#fff"/>
          <path d="M-45.7,75.23v-1.01c.17-.05.45-.2.65-.45L60.76-53.69c.35-.42.65-.61,1.17-.39L-44.97,74.7c-.25.3-.5.46-.73.53Z" fill="#fff"/>
          <path d="M312.76,121h-.85L415.45-3.93c.27.6.06.95-.33,1.42l-102.36,123.51Z" fill="#fff"/>
          <path d="M-45.7,69.76v-1.01c.14-.1.38-.28.58-.51L56.1-53.69c.35-.42.65-.61,1.17-.39L-45.03,69.15c-.24.28-.48.47-.67.61Z" fill="#fff"/>
          <path d="M317.42,121h-.85L415.44,1.7c.3.62.05.97-.34,1.44l-97.67,117.86Z" fill="#fff"/>
          <path d="M-45.7,64.09v-1.01c.14-.08.42-.26.6-.48L51.43-53.69c.35-.42.65-.6,1.17-.39L-45,63.5c-.24.29-.5.47-.7.59Z" fill="#fff"/>
          <path d="M-45.7,58.42v-1.01c.22-.11.48-.28.72-.57L46.77-53.69c.36-.44.81-.66,1.13-.34L-45.09,57.98c-.2.24-.45.38-.62.44Z" fill="#fff"/>
          <path d="M-45.7,52.75v-1.01c.18-.05.46-.2.66-.45L42.11-53.69c.37-.44.8-.67,1.13-.34L-44.96,52.22c-.25.31-.5.46-.74.53Z" fill="#fff"/>
          <path d="M-45.7,47.28v-1.01c.19-.14.43-.33.67-.61L37.44-53.69c.37-.44.79-.67,1.13-.34L-45.02,46.68c-.24.29-.49.47-.68.61Z" fill="#fff"/>
          <path d="M-45.7,41.61v-1.01c.07-.03.4-.23.51-.36L32.78-53.69c.37-.44.79-.67,1.14-.34L-45.09,41.14c-.18.22-.47.4-.61.47Z" fill="#fff"/>
          <path d="M-45.7,35.94v-1.01c.17-.07.44-.23.64-.47L28.12-53.69c.36-.44.8-.65,1.14-.34L-45.08,35.5c-.19.23-.46.39-.63.44Z" fill="#fff"/>
          <path d="M-45.7,30.27v-1.01c.24-.07.48-.23.74-.53L23.45-53.69c.35-.42.64-.6,1.17-.39L-44.96,29.75c-.25.31-.5.46-.74.52Z" fill="#fff"/>
          <path d="M-45.7,24.8v-1.01c.19-.13.44-.32.67-.6L18.79-53.69c.35-.42.64-.6,1.17-.39L-45.12,24.32c-.18.22-.45.4-.59.49Z" fill="#fff"/>
          <path d="M-45.7,19.13v-1.01c.14-.07.43-.25.61-.47L14.13-53.69c.35-.42.64-.59,1.17-.39L-45.09,18.67c-.2.24-.45.4-.61.47Z" fill="#fff"/>
          <path d="M-45.7,13.46v-1.01c.16-.05.43-.21.62-.44L9.47-53.69c.34-.41.65-.58,1.17-.39L-45.08,13.03c-.19.22-.47.38-.63.43Z" fill="#fff"/>
          <path d="M-45.7,7.79v-1.01c.24-.07.49-.22.74-.52L4.8-53.69c.35-.42.64-.59,1.17-.39L-45.04,7.38c-.19.23-.49.38-.66.42Z" fill="#fff"/>
          <path d="M-45.7,2.32v-1.01c.19-.13.45-.32.68-.6L.14-53.69c.37-.44.78-.64,1.14-.35L-45.11,1.84c-.18.22-.45.4-.59.48Z" fill="#fff"/>
        </g>
      </g>
      <g>
        <path d="M31.6,32.15l-3.76-12.35h-11.74c-.78,1.36-.98,1.69-1.76,3.05l5.37,9.3h11.89Z" fill="#fff"/>
        <path d="M54.33,22.85c-.78-1.36-.98-1.69-1.76-3.05h-11.52l-3.89,12.35h11.8l5.37-9.3Z" fill="#fff"/>
        <path d="M32.57,54.44h3.52l7.41-12.83h-18.33l7.41,12.83Z" fill="#fff"/>
        <polygon points="44.87 33.64 43.4 33.64 43.4 40.12 47.83 40.12 47.83 38.75 44.87 38.75 44.87 33.64" fill="#fff"/>
        <rect x="36.54" y="33.64" width="1.47" height="6.48" fill="#fff"/>
        <polygon points="36.19 35.02 36.19 33.64 31.59 33.64 31.59 40.12 33.05 40.12 33.05 37.67 35.91 37.67 35.91 36.29 33.05 36.29 33.05 35.02 36.19 35.02" fill="#fff"/>
        <path d="M25.22,33.64v6.48h2.63c.95,0,1.8-.31,2.41-.86.64-.58.98-1.4.98-2.35,0-1.92-1.4-3.27-3.41-3.27h-2.62ZM29.77,36.91c0,1.35-1.03,1.84-1.99,1.84h-1.1v-3.73h1.08c1,0,2.01.58,2.01,1.89Z" fill="#fff"/>
        <path d="M50.8,33.64h-2.62v6.48h2.63c.95,0,1.8-.31,2.41-.86.64-.58.98-1.4.98-2.35,0-1.92-1.4-3.27-3.41-3.27ZM50.74,38.75h-1.1v-3.73h1.08c1,0,2.01.58,2.01,1.89s-1.03,1.84-1.99,1.84Z" fill="#fff"/>
        <polygon points="15.93 37.5 18.92 37.5 18.92 36.11 15.93 36.11 15.93 35.02 19.13 35.02 19.13 33.64 14.46 33.64 14.46 40.12 19.16 40.12 19.16 38.75 15.93 38.75 15.93 37.5" fill="#fff"/>
        <polygon points="43.02 35.02 43.02 33.64 38.35 33.64 38.35 40.12 43.05 40.12 43.05 38.75 39.82 38.75 39.82 37.5 42.81 37.5 42.81 36.11 39.82 36.11 39.82 35.02 43.02 35.02" fill="#fff"/>
        <polygon points="23.47 38.86 22 33.64 19.48 33.64 19.48 40.12 20.88 40.12 20.88 34.91 22.35 40.12 24.87 40.12 24.87 33.64 23.47 33.64 23.47 38.86" fill="#fff"/>
      </g>
      <g>
        <path d="M98.36,26.56c1.16.55,2.05,1.33,2.68,2.35.63,1.01.95,2.21.95,3.6s-.32,2.56-.95,3.59-1.52,1.8-2.68,2.35c-1.16.54-2.52.81-4.08.81h-3.57v5.15h-4.11v-18.67h7.68c1.56,0,2.92.28,4.08.83ZM96.87,34.9c.64-.56.96-1.36.96-2.39s-.32-1.83-.96-2.4c-.64-.57-1.58-.85-2.83-.85h-3.33v6.48h3.33c1.24,0,2.19-.28,2.83-.84Z" fill="#fff"/>
        <path d="M107.91,43.48c-1.46-.83-2.6-1.97-3.44-3.44s-1.25-3.12-1.25-4.97.42-3.51,1.25-4.97,1.99-2.61,3.45-3.44c1.47-.83,3.11-1.24,4.92-1.24,1.53,0,2.92.28,4.17.85,1.25.57,2.3,1.39,3.13,2.45l-2.64,2.56c-1.21-1.46-2.69-2.19-4.45-2.19-1.1,0-2.08.25-2.95.76s-1.53,1.21-2.01,2.12c-.48.91-.72,1.94-.72,3.09s.24,2.19.72,3.09c.48.91,1.15,1.61,2.01,2.12s1.84.76,2.95.76c1.76,0,3.24-.74,4.45-2.21l2.64,2.56c-.84,1.08-1.88,1.91-3.13,2.48-1.25.57-2.65.85-4.2.85-1.81,0-3.45-.41-4.91-1.24Z" fill="#fff"/>
        <path d="M121.51,35.63v-10.56h3.76v2.03h4.4v-2.03h3.73v10.56h-11.89ZM137.17,37.76c1.59.69,2.39,1.82,2.39,3.39s-.8,2.67-2.39,3.36c-1.59.69-3.72,1.04-6.39,1.04s-4.8-.35-6.39-1.04c-1.59-.69-2.39-1.81-2.39-3.36s.8-2.69,2.39-3.39c1.59-.69,3.72-1.04,6.39-1.04s4.8.35,6.39,1.04ZM129.67,30.27h-4.4v2.08h4.4v-2.08ZM134.13,42.08c.84-.2,1.27-.51,1.27-.93s-.42-.74-1.27-.93c-.84-.2-1.96-.29-3.35-.29s-2.53.1-3.37.29c-.84.2-1.27.51-1.27.93s.42.74,1.27.93c.84.2,1.97.29,3.37.29s2.5-.1,3.35-.29ZM141.67,32.3h-2.29v4.11h-3.84v-11.57h3.84v3.52h2.29v3.95Z" fill="#fff"/>
        <path d="M167.19,36.08h-19.71v-2.93h19.71v2.93ZM148.49,32.35v-2.8h2.99v-1.92h-2.77v-2.8h17.28v2.8h-2.8v1.92h2.99v2.8h-17.68ZM166.25,42.83v2.48h-17.6v-5.28h13.63v-.69h-13.68v-2.45h17.47v5.25h-13.63v.69h13.81ZM159.4,29.55v-1.92h-4.11v1.92h4.11Z" fill="#fff"/>
        <path d="M176.43,40.72c.83-.12,1.53-.29,2.12-.51v3.39c-.55.25-1.28.44-2.2.56-.92.12-1.82.19-2.71.19h-4.67v-11.25h4.59v-4.35h-4.59v-3.44h8.13v11.2h-4.56v4.4h1.47c.78,0,1.59-.06,2.41-.19ZM183.05,24.91v20.05h-3.57v-8.59h-1.57v-3.84h1.57v-7.63h3.57ZM187.99,45.31h-3.6v-20.48h3.6v20.48Z" fill="#fff"/>
        <path d="M200.92,27.5c1.08,1.62,1.63,4.06,1.63,7.33s-.54,5.72-1.63,7.33c-1.08,1.62-2.58,2.43-4.48,2.43s-3.42-.81-4.51-2.43c-1.08-1.62-1.63-4.06-1.63-7.33s.54-5.72,1.63-7.33c1.08-1.62,2.59-2.43,4.51-2.43s3.4.81,4.48,2.43ZM194.12,34.83c0,4.04.77,6.05,2.32,6.05s2.32-2.02,2.32-6.05c0-2.15-.21-3.7-.63-4.64s-.98-1.41-1.69-1.41c-1.55,0-2.32,2.02-2.32,6.05ZM204.71,45.31v-20.48h3.87v20.48h-3.87Z" fill="#fff"/>
        <path d="M224.81,33.52l5.79,8.45-3.15,2.35-4-6.11c-.84,1.97-1.86,3.48-3.08,4.53-1.22,1.05-2.57,1.58-4.07,1.6v-4.16c1.03-.12,1.95-.84,2.76-2.13.81-1.3,1.44-3.05,1.89-5.27.45-2.21.68-4.73.68-7.56l3.95.13c0,2.9-.26,5.62-.77,8.16ZM234.97,45.31h-3.87v-20.48h3.87v20.48Z" fill="#fff"/>
        <path d="M247.72,33.2c-1,1.32-2.36,2.3-4.11,2.95-1.74.65-3.74.97-6,.97v-3.57c1.51,0,2.84-.19,4-.56,1.16-.37,2.05-.9,2.69-1.59.64-.68.96-1.48.96-2.39v-.45h-7.65v-3.49h11.6v3.28c0,1.92-.5,3.54-1.49,4.85ZM255.83,41.68v3.63h-17.49v-7.09h3.92v3.47h13.57ZM257.83,32.83h-2.29v7.17h-3.84v-15.17h3.84v4.08h2.29v3.92Z" fill="#fff"/>
        <path d="M263.48,29.39v-3.17h4.67v-1.76h3.95v1.76h4.69v3.17h-13.31ZM265.87,37.3c-1.15-.74-1.72-1.77-1.72-3.11s.57-2.4,1.72-3.13c1.15-.74,2.57-1.11,4.28-1.11s3.13.37,4.27,1.12c1.14.75,1.71,1.79,1.71,3.12s-.57,2.37-1.71,3.11c-1.14.74-2.56,1.11-4.27,1.11s-3.13-.37-4.28-1.11ZM282.23,41.79v3.52h-17.49v-6.29h3.92v2.77h13.57ZM268.47,33.26c-.43.25-.64.56-.64.93s.21.68.64.92c.43.24.99.36,1.68.36s1.23-.12,1.65-.36c.43-.24.64-.55.64-.92s-.21-.68-.64-.93c-.43-.25-.98-.37-1.65-.37s-1.25.12-1.68.37ZM284.23,33.52h-2.29v6.59h-3.84v-15.28h3.84v4.75h2.29v3.95Z" fill="#fff"/>
        <path d="M288.85,35.06c-1.15.6-2.39.91-3.72.95v-3.55c1.19-.07,2.19-.5,3-1.28.81-.78,1.33-1.7,1.56-2.75h-4.32v-3.36h12.43v3.36h-4.21c-.05.45-.14.86-.27,1.25l5.2,3.12-1.84,2.99-4.91-3.09c-.8.98-1.77,1.76-2.92,2.36ZM301.45,37.66c1.62.71,2.43,1.85,2.43,3.41s-.81,2.7-2.43,3.41c-1.62.71-3.78,1.07-6.48,1.07s-4.86-.36-6.47-1.07-2.41-1.85-2.41-3.41.8-2.7,2.41-3.41c1.61-.71,3.76-1.07,6.47-1.07s4.86.36,6.48,1.07ZM298.43,42.06c.88-.21,1.32-.54,1.32-.99s-.44-.75-1.33-.97c-.89-.22-2.04-.33-3.44-.33s-2.52.11-3.4.33c-.88.22-1.32.55-1.32.97s.44.77,1.31.99,2.01.32,3.41.32,2.57-.11,3.45-.32ZM299.85,24.83h3.84v11.47h-3.84v-4.85h-2.61v-3.44h2.61v-3.17Z" fill="#fff"/>
      </g>
      <path d="M192.68,10.78h-1.41l3.51-4.93h1.36l-3.46,4.93Z" fill="#fff"/>
      <path d="M197.18,10.78h-1.41l3.51-4.93h1.36l-3.46,4.93Z" fill="#fff"/>
      <path d="M201.68,10.78h-1.41l3.51-4.93h1.36l-3.46,4.93Z" fill="#fff"/>
      <path d="M206.18,10.78h-1.41l3.51-4.93h1.36l-3.46,4.93Z" fill="#fff"/>
      <path d="M210.68,10.78h-1.41l3.51-4.93h1.36l-3.46,4.93Z" fill="#fff"/>
      <path d="M215.18,10.78h-1.41l3.51-4.93h1.36l-3.46,4.93Z" fill="#fff"/>
      <path d="M219.69,10.78h-1.41l3.51-4.93h1.36l-3.46,4.93Z" fill="#fff"/>
      <path d="M224.19,10.78h-1.41l3.51-4.93h1.36l-3.46,4.93Z" fill="#fff"/>
      <path d="M228.69,10.78h-1.41l3.51-4.93h1.36l-3.46,4.93Z" fill="#fff"/>
      <path d="M233.19,10.78h-1.41l3.51-4.93h1.36l-3.46,4.93Z" fill="#fff"/>
      <path d="M237.69,10.78h-1.41l3.51-4.93h1.36l-3.46,4.93Z" fill="#fff"/>
      <path d="M242.19,10.78h-1.41l3.51-4.93h1.36l-3.46,4.93Z" fill="#fff"/>
      <path d="M246.69,10.78h-1.41l3.51-4.93h1.36l-3.46,4.93Z" fill="#fff"/>
      <path d="M251.2,10.78h-1.41l3.51-4.93h1.36l-3.46,4.93Z" fill="#fff"/>
      <path d="M262.87,10.78h-1.41l3.51-4.93h1.36l-3.46,4.93Z" fill="#fff"/>
      <path d="M267.37,10.78h-1.41l3.51-4.93h1.36l-3.46,4.93Z" fill="#fff"/>
      <path d="M271.87,10.78h-1.41l3.51-4.93h1.36l-3.46,4.93Z" fill="#fff"/>
      <path d="M283.54,10.78h-1.41l3.51-4.93h1.36l-3.46,4.93Z" fill="#fff"/>
      <path d="M288.04,10.78h-1.41l3.51-4.93h1.36l-3.46,4.93Z" fill="#fff"/>
      <path d="M292.54,10.78h-1.41l3.51-4.93h1.36l-3.46,4.93Z" fill="#fff"/>
      <path d="M297.04,10.78h-1.41l3.51-4.93h1.36l-3.46,4.93Z" fill="#fff"/>
      <path d="M301.55,10.78h-1.41l3.51-4.93h1.36l-3.46,4.93Z" fill="#fff"/>
      <path d="M306.05,10.78h-1.41l3.51-4.93h1.36l-3.46,4.93Z" fill="#fff"/>
      <path d="M310.55,10.78h-1.41l3.51-4.93h1.36l-3.46,4.93Z" fill="#fff"/>
      <g>
        <path d="M86.6,65.2v-7.76h7.76v7.76h-7.76ZM87.31,58.15v6.35h6.35v-6.35h-6.35Z" fill="#fff"/>
        <path d="M96.46,65.2v-7.76h7.76v7.76h-7.76ZM97.17,58.15v6.35h6.35v-6.35h-6.35Z" fill="#fff"/>
      </g>
      <g>
        <rect x="113.86" y="58.66" width="3.21" height=".96" transform="translate(-8 98.97) rotate(-45)" fill="#fff"/>
        <rect x="109.49" y="63.03" width="3.21" height=".96" transform="translate(-12.37 97.16) rotate(-45)" fill="#fff"/>
        <rect x="114.99" y="61.9" width=".96" height="3.21" transform="translate(-11.09 100.25) rotate(-45)" fill="#fff"/>
        <rect x="110.62" y="57.53" width=".96" height="3.21" transform="translate(-9.28 95.88) rotate(-45)" fill="#fff"/>
      </g>
      <g>
        <rect x="122.39" y="58.66" width="3.21" height=".96" transform="translate(-5.5 105) rotate(-45)" fill="#fff"/>
        <rect x="118.02" y="63.03" width="3.21" height=".96" transform="translate(-9.87 103.19) rotate(-45)" fill="#fff"/>
        <rect x="123.51" y="61.9" width=".96" height="3.21" transform="translate(-8.59 106.28) rotate(-45)" fill="#fff"/>
        <rect x="119.14" y="57.53" width=".96" height="3.21" transform="translate(-6.78 101.91) rotate(-45)" fill="#fff"/>
      </g>
    </g>
  </g>
</svg>