<svg width="170" height="16" viewBox="0 0 170 16" fill="none" xmlns="http://www.w3.org/2000/svg">
<g clip-path="url(#clip0_2048_4322)">
<path d="M82.7247 3.57983H68.1755V6.74606H82.7247V3.57983Z" fill="#FFFA00"/>
<path d="M119.088 3.57983H86.3569V6.74606H119.088V3.57983Z" fill="#FFFA00"/>
<path d="M119.088 9.26221H68.1755V12.4284H119.088V9.26221Z" fill="#FFFA00"/>
<path d="M135.742 9.26221H132.11V12.4284H135.742V9.26221Z" fill="#FFFA00"/>
<path d="M145.452 9.26221H138.177V12.4284H145.452V9.26221Z" fill="#FFFA00"/>
<path d="M166.367 9.26221H163.753H162.725H151.818H150.8H148.176V12.4284H150.8H151.818H162.725H163.753H166.367H170V9.26221H166.367Z" fill="#FFFA00"/>
<path d="M133.627 6.74606H154.433V3.57983H133.627H132.619H122.72V6.74606H132.619H133.627Z" fill="#FFFA00"/>
<path d="M55.6921 0H44.3062C42.2306 0 40.5442 1.42691 40.5442 3.18311V12.8169C40.5442 14.5731 42.2306 16 44.3062 16H55.6921C57.7677 16 59.4541 14.5731 59.4541 12.8169V3.18311C59.4541 1.42691 57.7677 0 55.6921 0ZM56.8596 7.15989H52.6186L48.9963 10.2248V13.8132H43.1187V8.84011H47.3598L50.9821 5.7752V2.18681H56.8596V7.15989Z" fill="#FFFA00"/>
<path d="M33.8483 0H3.76203C1.68643 0 0 1.42691 0 3.18311V12.8169C0 14.5731 1.68643 16 3.76203 16H33.8483C35.9239 16 37.6104 14.5731 37.6104 12.8169V3.18311C37.6104 1.42691 35.9239 0 33.8483 0ZM35.2254 12.8169C35.2254 13.4586 34.6067 13.9821 33.8483 13.9821H3.76203C3.00364 13.9821 2.38495 13.4586 2.38495 12.8169V3.18311C2.38495 2.54142 3.00364 2.01794 3.76203 2.01794H33.8483C34.6067 2.01794 35.2254 2.54142 35.2254 3.18311V12.8169Z" fill="#FFFA00"/>
<path d="M28.4596 4.10335C27.1923 3.96826 26.0248 4.27222 25.1067 4.8548C25.1067 4.8548 24.3883 5.53027 23.3405 5.56404C22.8316 5.54715 22.3925 5.37829 22.0831 5.20942C21.7638 5.03211 21.5742 4.8548 21.5742 4.8548C20.8957 4.43264 20.0774 4.15401 19.1893 4.09491C19.0695 4.08647 18.9498 4.07802 18.83 4.07802H18.8101C18.6903 4.07802 18.5706 4.07802 18.4508 4.09491C18.351 4.09491 18.2513 4.1118 18.1515 4.12024C18.1415 4.12024 18.1215 4.12024 18.1116 4.12024C17.7324 4.1709 17.3631 4.26377 17.0239 4.38198C16.6047 4.53396 16.2256 4.74504 15.8863 4.9899C15.8064 5.049 15.6867 5.12499 15.557 5.20098C15.2476 5.36984 14.8086 5.54715 14.2996 5.55559C13.2518 5.53026 12.5334 4.84636 12.5334 4.84636C11.6153 4.27222 10.4378 3.96826 9.18047 4.10335C7.08491 4.32288 5.39848 5.75823 5.15899 7.53976C4.83966 9.91232 7.02503 11.9303 9.76922 11.9303C10.807 11.9303 11.765 11.6348 12.5433 11.145C12.5433 11.145 13.2618 10.4696 14.3096 10.4358C14.8185 10.4527 15.2576 10.6216 15.5669 10.7904C15.8863 10.9677 16.0759 11.1366 16.0759 11.1366C16.5149 11.4152 17.0239 11.6348 17.5727 11.7698C17.6625 11.7952 17.7523 11.8121 17.8421 11.8289C17.9319 11.8458 18.0317 11.8627 18.1315 11.8796C18.1415 11.8796 18.1515 11.8796 18.1615 11.8796C18.2612 11.8965 18.361 11.9049 18.4708 11.9134C18.5905 11.9218 18.7103 11.9303 18.83 11.9303H18.85C18.9697 11.9303 19.0895 11.9303 19.2092 11.9134C19.309 11.9049 19.4088 11.8965 19.5086 11.888C19.5186 11.888 19.5385 11.888 19.5485 11.888C19.6483 11.8712 19.7381 11.8627 19.8279 11.8458C20.4766 11.7192 21.0753 11.4828 21.5942 11.1535C21.5942 11.1535 21.7838 10.9846 22.1031 10.8073C22.4124 10.6384 22.8515 10.4611 23.3604 10.4527C24.0889 10.4696 24.6677 10.8158 24.9471 11.0099C25.2365 11.2126 25.5358 11.3983 25.8751 11.5419C26.4838 11.7952 27.1724 11.9387 27.9008 11.9387C30.645 11.9387 32.8304 9.92077 32.5111 7.54821C32.2716 5.77512 30.5851 4.33132 28.4796 4.1118L28.4596 4.10335Z" fill="#FFFA00"/>
</g>
<defs>
<clipPath id="clip0_2048_4322">
<rect width="170" height="16" fill="white"/>
</clipPath>
</defs>
</svg>
