<svg width="40" height="11" viewBox="0 0 40 11" fill="none" xmlns="http://www.w3.org/2000/svg">
<g clip-path="url(#clip0_2048_4373)">
<g opacity="0.5">
<path d="M4.58719 0H0V4.40909H4.58719V0Z" fill="white"/>
<path d="M11.6651 0H7.07788V4.40909H11.6651V0Z" fill="white"/>
<path d="M18.7508 0H14.1636V4.40909H18.7508V0Z" fill="white"/>
<path d="M25.8286 0H21.2415V4.40909H25.8286V0Z" fill="white"/>
<path d="M32.9143 0H28.3271V4.40909H32.9143V0Z" fill="white"/>
<path d="M39.9922 0H35.405V4.40909H39.9922V0Z" fill="white"/>
<path d="M4.58719 6.58325H0V10.9923H4.58719V6.58325Z" fill="white"/>
<path d="M11.6651 6.58325H7.07788V10.9923H11.6651V6.58325Z" fill="white"/>
<path d="M18.7508 6.58325H14.1636V10.9923H18.7508V6.58325Z" fill="white"/>
<path d="M25.8286 6.58325H21.2415V10.9923H25.8286V6.58325Z" fill="white"/>
</g>
</g>
<defs>
<clipPath id="clip0_2048_4373">
<rect width="40" height="11" fill="white"/>
</clipPath>
</defs>
</svg>
