<svg width="312" height="25" viewBox="0 0 312 25" fill="none" xmlns="http://www.w3.org/2000/svg">
<g clip-path="url(#clip0_2054_4979)">
<path d="M38.7402 5.54C38.7402 2.4 41.2202 0 44.2902 0C47.3602 0 49.8402 2.41 49.8402 5.54C49.8402 8.67 47.3602 11.08 44.2902 11.08C41.2202 11.08 38.7402 8.67 38.7402 5.54ZM47.3902 5.54C47.3902 3.64 46.0202 2.37 44.2802 2.37C42.5402 2.37 41.1702 3.63 41.1702 5.54C41.1702 7.45 42.5402 8.71 44.2802 8.71C46.0202 8.71 47.3902 7.45 47.3902 5.54Z" fill="#3F3F3F"/>
<path d="M50.0703 0.209961H52.7403L55.1003 8.04996L57.4603 0.209961H60.1303L56.6603 10.87H53.5503L50.0703 0.209961Z" fill="#3F3F3F"/>
<path d="M67.8799 8.52996V10.87H61.1699V0.209961H67.7999V2.54996H63.6099V4.31996H67.4199V6.62996H63.6099V8.51996H67.8799V8.52996Z" fill="#3F3F3F"/>
<path d="M73.2904 7.36996H72.1304V10.87H69.6904V0.209961H73.9604C75.9904 0.209961 77.6204 1.83996 77.6204 3.85996C77.6204 5.16996 76.8304 6.35996 75.6504 6.94996L77.9204 10.86H75.3004L73.2904 7.35996V7.36996ZM72.1304 5.23996H73.9604C74.6304 5.23996 75.1804 4.64996 75.1804 3.86996C75.1804 3.08996 74.6304 2.49996 73.9604 2.49996H72.1304V5.23996Z" fill="#3F3F3F"/>
<path d="M90.1905 2.55996H87.4505V10.87H85.0105V2.55996H82.2705V0.209961H90.2005V2.54996L90.1905 2.55996Z" fill="#3F3F3F"/>
<path d="M99.5406 0.209961V10.87H97.1005V6.63996H93.7505V10.87H91.3105V0.209961H93.7505V4.28996H97.1005V0.209961H99.5406Z" fill="#3F3F3F"/>
<path d="M108.38 8.52996V10.87H101.67V0.209961H108.3V2.54996H104.11V4.31996H107.92V6.62996H104.11V8.51996H108.38V8.52996Z" fill="#3F3F3F"/>
<path d="M116.161 2.55996V4.61996H120.121V6.95996H116.161V10.87H113.721V0.209961H120.201V2.54996H116.161V2.55996Z" fill="#3F3F3F"/>
<path d="M125.52 7.36996H124.36V10.87H121.92V0.209961H126.19C128.22 0.209961 129.85 1.83996 129.85 3.85996C129.85 5.16996 129.06 6.35996 127.88 6.94996L130.15 10.86H127.53L125.52 7.35996V7.36996ZM124.36 5.23996H126.19C126.86 5.23996 127.41 4.64996 127.41 3.86996C127.41 3.08996 126.86 2.49996 126.19 2.49996H124.36V5.23996Z" fill="#3F3F3F"/>
<path d="M130.891 5.54C130.891 2.4 133.371 0 136.441 0C139.511 0 141.991 2.41 141.991 5.54C141.991 8.67 139.511 11.08 136.441 11.08C133.371 11.08 130.891 8.67 130.891 5.54ZM139.551 5.54C139.551 3.64 138.181 2.37 136.441 2.37C134.701 2.37 133.331 3.63 133.331 5.54C133.331 7.45 134.701 8.71 136.441 8.71C138.181 8.71 139.551 7.45 139.551 5.54Z" fill="#3F3F3F"/>
<path d="M151.95 0.209961V10.87H150.12L146.01 5.07996V10.87H143.57V0.209961H145.4L149.52 5.99996V0.209961H151.96H151.95Z" fill="#3F3F3F"/>
<path d="M161 2.55996H158.26V10.87H155.82V2.55996H153.08V0.209961H161.01V2.54996L161 2.55996Z" fill="#3F3F3F"/>
<path d="M164.541 0.209961V10.87H162.101V0.209961H164.541Z" fill="#3F3F3F"/>
<path d="M173.37 8.52996V10.87H166.66V0.209961H173.29V2.54996H169.1V4.31996H172.91V6.62996H169.1V8.51996H173.37V8.52996Z" fill="#3F3F3F"/>
<path d="M178.781 7.36996H177.621V10.87H175.181V0.209961H179.451C181.481 0.209961 183.111 1.83996 183.111 3.85996C183.111 5.16996 182.321 6.35996 181.141 6.94996L183.411 10.86H180.791L178.781 7.35996V7.36996ZM177.621 5.23996H179.451C180.121 5.23996 180.671 4.64996 180.671 3.86996C180.671 3.08996 180.121 2.49996 179.451 2.49996H177.621V5.23996Z" fill="#3F3F3F"/>
<path d="M185.09 10.87L191.19 0.209961H192.71L186.61 10.87H185.09Z" fill="#3F3F3F"/>
<path d="M197.51 0.209961V10.87H195.07V0.209961H197.51Z" fill="#3F3F3F"/>
<path d="M208.02 0.209961V10.87H206.19L202.07 5.07996V10.87H199.63V0.209961H201.46L205.57 5.99996V0.209961H208.01H208.02Z" fill="#3F3F3F"/>
<path d="M217.061 2.55996H214.321V10.87H211.881V2.55996H209.141V0.209961H217.071V2.54996L217.061 2.55996Z" fill="#3F3F3F"/>
<path d="M217.61 5.54C217.61 2.4 220.09 0 223.16 0C226.23 0 228.71 2.41 228.71 5.54C228.71 8.67 226.23 11.08 223.16 11.08C220.09 11.08 217.61 8.67 217.61 5.54ZM226.26 5.54C226.26 3.64 224.89 2.37 223.15 2.37C221.41 2.37 220.04 3.63 220.04 5.54C220.04 7.45 221.41 8.71 223.15 8.71C224.89 8.71 226.26 7.45 226.26 5.54Z" fill="#3F3F3F"/>
<path d="M241.2 2.55996H238.46V10.87H236.02V2.55996H233.28V0.209961H241.21V2.54996L241.2 2.55996Z" fill="#3F3F3F"/>
<path d="M250.541 0.209961V10.87H248.101V6.63996H244.751V10.87H242.311V0.209961H244.751V4.28996H248.101V0.209961H250.541Z" fill="#3F3F3F"/>
<path d="M259.391 8.52996V10.87H252.681V0.209961H259.311V2.54996H255.121V4.31996H258.931V6.62996H255.121V8.51996H259.391V8.52996Z" fill="#3F3F3F"/>
<path d="M267.161 2.55996V4.61996H271.121V6.95996H267.161V10.87H264.721V0.209961H271.201V2.54996H267.161V2.55996Z" fill="#3F3F3F"/>
<path d="M276.52 7.36996H275.36V10.87H272.92V0.209961H277.19C279.22 0.209961 280.85 1.83996 280.85 3.85996C280.85 5.16996 280.06 6.35996 278.88 6.94996L281.15 10.86H278.53L276.52 7.35996V7.36996ZM275.36 5.23996H277.19C277.86 5.23996 278.41 4.64996 278.41 3.86996C278.41 3.08996 277.86 2.49996 277.19 2.49996H275.36V5.23996Z" fill="#3F3F3F"/>
<path d="M281.891 5.54C281.891 2.4 284.371 0 287.441 0C290.511 0 292.991 2.41 292.991 5.54C292.991 8.67 290.511 11.08 287.441 11.08C284.371 11.08 281.891 8.67 281.891 5.54ZM290.551 5.54C290.551 3.64 289.181 2.37 287.441 2.37C285.701 2.37 284.331 3.63 284.331 5.54C284.331 7.45 285.701 8.71 287.441 8.71C289.181 8.71 290.551 7.45 290.551 5.54Z" fill="#3F3F3F"/>
<path d="M302.96 0.209961V10.87H301.13L297.02 5.07996V10.87H294.58V0.209961H296.41L300.53 5.99996V0.209961H302.97H302.96Z" fill="#3F3F3F"/>
<path d="M312 2.55996H309.26V10.87H306.82V2.55996H304.08V0.209961H312.01V2.54996L312 2.55996Z" fill="#3F3F3F"/>
<path d="M62.5796 17.6402H59.4196V14.4502H46.8096V17.6402V19.6002H90.9596V17.6402V14.4502H62.5796V17.6402Z" fill="#3F3F3F"/>
<path d="M40.5 17.6402V19.6002H43.66V17.6402V14.4502H40.5V17.6402Z" fill="#3F3F3F"/>
<path d="M103.58 17.6401H100.42V19.6001H103.58V17.6401Z" fill="#3F3F3F"/>
<path d="M119.36 17.6401H116.2V19.6001H119.36V17.6401Z" fill="#3F3F3F"/>
<path d="M125.65 17.6401H122.5V19.6001H125.65V17.6401Z" fill="#3F3F3F"/>
<path d="M106.74 17.6402V19.6002H113.04V17.6402V14.4502H106.74V17.6402Z" fill="#3F3F3F"/>
<path d="M100.43 14.4502H94.1201V17.6402H100.43V14.4502Z" fill="#3F3F3F"/>
<path d="M131.96 14.4502V17.6402H128.81V19.6002H131.96H135.12V17.6402V14.4502H131.96Z" fill="#3F3F3F"/>
<path d="M7.2 12.46L14.4 0H0L7.2 12.46Z" fill="#3F3F3F"/>
<path d="M21.7 12.46L28.9 0H14.5L21.7 12.46Z" fill="#3F3F3F"/>
<path d="M14.4998 25L21.6998 12.54H7.2998L14.4998 25Z" fill="#3F3F3F"/>
</g>
<defs>
<clipPath id="clip0_2054_4979">
<rect width="312" height="25" fill="white"/>
</clipPath>
</defs>
</svg>
