<svg width="1167" height="170" viewBox="0 0 1167 170" fill="none" xmlns="http://www.w3.org/2000/svg">
<g clip-path="url(#clip0_2009_8930)">
<path d="M918.217 1.02869H883.823V169.04H997.293V137.015H918.217V1.02869Z" fill="#141414"/>
<path d="M735.514 1.02869H701.085V169.04H735.514V1.02869Z" fill="#141414"/>
<path d="M569.236 169.04H603.664V103.79H679.756V71.5249H603.664V33.0537H687.266V1.02869H569.236V169.04Z" fill="#141414"/>
<path d="M466.876 1.02869H399.528V169.04H467.356C491.977 169.04 514.267 161.085 530.075 146.65C546.638 131.529 555.416 110.476 555.416 85.7544C555.416 35.8653 518.999 1.02869 466.876 1.02869ZM433.922 33.0537H464.956C492.732 33.0537 520.748 49.3405 520.748 85.7544C520.748 122.168 492.183 137.015 465.436 137.015H433.957V33.0537H433.922Z" fill="#141414"/>
<path d="M1078.49 1.02869H1011.15V169.04H1078.97C1103.6 169.04 1125.88 161.085 1141.69 146.65C1158.26 131.529 1167.03 110.476 1167.03 85.7544C1167.03 35.8653 1130.62 1.02869 1078.49 1.02869ZM1045.54 137.015V33.0537H1076.57C1104.35 33.0537 1132.37 49.3405 1132.37 85.7544C1132.37 122.168 1103.8 137.015 1077.05 137.015H1045.57H1045.54Z" fill="#141414"/>
<path d="M147.454 99.0238H227.215V66.7588H147.454V33.0537H232.702V1.02869H113.025V169.04H233.662V137.015H147.454V99.0238Z" fill="#141414"/>
<path d="M783.761 99.0238H863.557V66.7588H783.761V33.0537H869.009V1.02869H749.333V169.04H869.97V137.015H783.761V99.0238Z" fill="#141414"/>
<path d="M352.995 140.032H348.915L309.823 1.02869H246.761V169.04H279.441V30.0364H283.521L322.613 169.04H385.675V1.02869H352.995V140.032Z" fill="#141414"/>
<path d="M-0.444378 170H-32.9524L53.3242 0H85.8323L-0.444378 170Z" fill="#141414"/>
<path d="M-47.4919 170H-80L6.2767 0H38.7848L-47.4919 170Z" fill="#141414"/>
</g>
<defs>
<clipPath id="clip0_2009_8930">
<rect width="1247" height="170" fill="white" transform="translate(-80)"/>
</clipPath>
</defs>
</svg>
