<svg width="337" height="57" viewBox="0 0 337 57" fill="none" xmlns="http://www.w3.org/2000/svg">
<g clip-path="url(#clip0_2088_10491)">
<path d="M15.5987 0H15.942V1.36978L11.2876 6.98993H10.9443V5.61007L15.5987 0Z" fill="#7F7F7F"/>
<path d="M19.4656 0H19.8089V1.36978L15.1545 6.98993H14.8112V5.61007L19.4656 0Z" fill="#7F7F7F"/>
<path d="M29.0267 0C29.4003 0 29.7234 0.130935 29.9859 0.402878C30.2484 0.664748 30.3897 0.976978 30.3897 1.34964V6.98993H29.0974V4.64317H24.6752V6.98993H23.393V1.35971C23.393 0.98705 23.5243 0.664748 23.7969 0.41295C24.0594 0.151079 24.3723 0.0100719 24.7459 0.0100719H29.0368L29.0267 0ZM29.0873 3.36403V1.35971C29.0873 1.35971 29.0671 1.28921 29.0166 1.28921H24.7257C24.7257 1.28921 24.655 1.30935 24.655 1.35971V3.36403H29.0772H29.0873Z" fill="#7F7F7F"/>
<path d="M38.4667 3.25324C38.4667 3.6259 38.3355 3.93813 38.0629 4.2C37.7903 4.46187 37.4773 4.60288 37.1037 4.60288H36.7201L38.4667 6.66762V7H37.0634L35.0441 4.60288H32.7523V7H31.47V0.0201416H37.1138C37.4874 0.0201416 37.8105 0.151077 38.073 0.412947C38.3355 0.674818 38.4768 0.99712 38.4768 1.35971V3.24316L38.4667 3.25324ZM37.1037 3.32374C37.1037 3.32374 37.1744 3.3036 37.1744 3.25324V1.36978C37.1744 1.36978 37.1542 1.29928 37.1037 1.29928H32.8128C32.8128 1.29928 32.7422 1.31942 32.7422 1.36978V3.25324C32.7422 3.25324 32.7624 3.32374 32.8128 3.32374H37.1037Z" fill="#7F7F7F"/>
<path d="M46.2509 0V0.342446L43.6057 3.49496L46.2509 6.64748V6.98993H44.8374L42.4446 4.13957H40.7888V6.98993H39.4965V0H40.7888V2.85036H42.4446C42.6062 2.64892 42.8081 2.41727 43.0403 2.14532L44.2519 0.705036C44.474 0.443165 44.6658 0.211511 44.8475 0H46.261H46.2509Z" fill="#7F7F7F"/>
<path d="M52.9649 0H54.2572V6.98993H52.8538L48.5327 1.86331V6.98993H47.2504V0H48.6538L52.9649 5.12662V0Z" fill="#7F7F7F"/>
<path d="M55.3375 0H56.6197V6.98993H55.3375V0Z" fill="#7F7F7F"/>
<path d="M64.5655 1.90366H63.2732V1.35977C63.2732 1.35977 63.253 1.28927 63.2025 1.28927H58.9116C58.9116 1.28927 58.8409 1.30941 58.8409 1.35977V5.65042C58.8409 5.65042 58.8611 5.72092 58.9116 5.72092H63.2025C63.2025 5.72092 63.2732 5.70078 63.2732 5.65042V4.331H61.6881V3.05186H64.5655V5.65042C64.5655 6.02308 64.4343 6.34538 64.1617 6.59718C63.8992 6.85905 63.5761 7.00006 63.2025 7.00006H58.9116C58.5381 7.00006 58.215 6.86912 57.9626 6.59718C57.7001 6.33531 57.5587 6.02308 57.5587 5.65042V1.35977C57.5587 0.98711 57.69 0.664808 57.9626 0.41301C58.2251 0.151139 58.5381 0.0101318 58.9116 0.0101318H63.2025C63.5761 0.0101318 63.8992 0.141067 64.1617 0.41301C64.4242 0.67488 64.5655 0.98711 64.5655 1.35977V1.90366Z" fill="#7F7F7F"/>
<path d="M72.7738 0V6.98993H71.4916V4.13957H66.8978V6.98993H65.6155V0H66.8978V2.85036H71.4916V0H72.7738Z" fill="#7F7F7F"/>
<path d="M80.6691 0V1.27914H77.8219V6.98993H76.5296V1.28921H73.6724V0H80.6792H80.6691Z" fill="#7F7F7F"/>
<path d="M88.5239 1.89359H87.2316V1.35977C87.2316 1.35977 87.2114 1.28927 87.171 1.28927H82.87C82.87 1.28927 82.7994 1.30941 82.7994 1.35977V2.80006C82.7994 2.80006 82.8195 2.87056 82.87 2.87056H87.171C87.5446 2.87056 87.8576 3.0015 88.1201 3.27344C88.3826 3.53531 88.5239 3.84754 88.5239 4.2202V5.66049C88.5239 6.03315 88.3927 6.35546 88.1201 6.60725C87.8576 6.86912 87.5345 7.01013 87.171 7.01013H82.87C82.4965 7.01013 82.1734 6.8792 81.921 6.60725C81.6585 6.34538 81.5272 6.03315 81.5272 5.66049V5.12668H82.8094V5.66049C82.8094 5.66049 82.8296 5.731 82.8801 5.731H87.1811C87.1811 5.731 87.2417 5.71085 87.2417 5.66049V4.2202C87.2417 4.2202 87.2215 4.1497 87.1811 4.1497H82.8801C82.5066 4.1497 82.1835 4.01876 81.9311 3.74682C81.6686 3.48495 81.5373 3.17272 81.5373 2.80006V1.35977C81.5373 0.98711 81.6686 0.664808 81.9311 0.41301C82.1936 0.151139 82.5066 0.0101318 82.8801 0.0101318H87.1811C87.5547 0.0101318 87.8677 0.141067 88.1302 0.41301C88.3927 0.67488 88.534 0.98711 88.534 1.35977V1.89359H88.5239Z" fill="#7F7F7F"/>
<path d="M90.8158 2.56832H89.5436V1.28918H90.8158V2.56832ZM90.8158 5.72084V6.9899H89.5436V5.72084H90.8158Z" fill="#7F7F7F"/>
<path d="M101.094 1.28921H95.9447V2.86043H100.084V4.13957H95.9447V5.71079H101.094V6.98993H94.6523V0H101.094V1.27914V1.28921Z" fill="#7F7F7F"/>
<path d="M107.808 0H109.1V6.98993H107.697L103.375 1.86331V6.98993H102.093V0H103.497L107.808 5.12662V0Z" fill="#7F7F7F"/>
<path d="M115.824 0C116.198 0 116.521 0.130935 116.783 0.402878C117.046 0.664748 117.187 0.976978 117.187 1.34964V5.64029C117.187 6.01295 117.056 6.33525 116.783 6.58705C116.521 6.84892 116.198 6.98993 115.824 6.98993H110.18V0H115.824ZM115.885 1.35971C115.885 1.35971 115.865 1.28921 115.814 1.28921H111.523C111.523 1.28921 111.452 1.30935 111.452 1.35971V5.65036C111.452 5.65036 111.473 5.72086 111.523 5.72086H115.814C115.814 5.72086 115.885 5.70072 115.885 5.65036V1.35971Z" fill="#7F7F7F"/>
<path d="M124.699 0V1.27914H119.55V2.85036H123.689V4.1295H119.55V6.97986H118.257V0H124.699Z" fill="#7F7F7F"/>
<path d="M125.496 0H126.779V6.98993H125.496V0Z" fill="#7F7F7F"/>
<path d="M134.179 1.28921H129.03V2.86043H133.17V4.13957H129.03V5.71079H134.179V6.98993H127.738V0H134.179V1.27914V1.28921Z" fill="#7F7F7F"/>
<path d="M135.189 0H136.471V5.71079H142.196V6.98993H135.189V0Z" fill="#7F7F7F"/>
<path d="M148.637 0C149.011 0 149.334 0.130935 149.596 0.402878C149.859 0.664748 150 0.976978 150 1.34964V5.64029C150 6.01295 149.869 6.33525 149.596 6.58705C149.334 6.84892 149.011 6.98993 148.637 6.98993H142.993V0H148.637ZM148.708 1.35971C148.708 1.35971 148.688 1.28921 148.637 1.28921H144.346C144.346 1.28921 144.275 1.30935 144.275 1.35971V5.65036C144.275 5.65036 144.296 5.72086 144.346 5.72086H148.637C148.637 5.72086 148.708 5.70072 148.708 5.65036V1.35971Z" fill="#7F7F7F"/>
<path d="M0 0.261841L5.37121 6.7381L10.7424 0.261841H0Z" fill="#7F7F7F"/>
</g>
<rect width="110" height="42" transform="translate(0 15)" fill="#D9D9D9"/>
<g clip-path="url(#clip1_2088_10491)">
<path d="M80 44.8161H98.8161V44.7847V26" stroke="#191919" stroke-width="2.25" stroke-miterlimit="10"/>
<path d="M81.3934 27.3411L98.8371 44.7952" stroke="#191919" stroke-width="2.25" stroke-miterlimit="10"/>
</g>
<path d="M135.964 50H121.348V24.296H135.964V28.148H125.956V34.7H135.316V38.552H125.956V46.112H135.964V50ZM158.99 24.296L150.098 50H145.166L136.274 24.296H140.99L146.174 40.028C146.342 40.46 146.51 41.024 146.678 41.72C146.87 42.392 147.05 43.088 147.218 43.808C147.41 44.504 147.554 45.128 147.65 45.68C147.722 45.128 147.842 44.504 148.01 43.808C148.202 43.088 148.394 42.392 148.586 41.72C148.778 41.024 148.946 40.46 149.09 40.028L154.274 24.296H158.99ZM175.149 50H160.533V24.296H175.149V28.148H165.141V34.7H174.501V38.552H165.141V46.112H175.149V50ZM200.659 50H194.935L182.767 29.84H182.623C182.647 30.368 182.671 30.932 182.695 31.532C182.743 32.108 182.779 32.708 182.803 33.332C182.827 33.932 182.851 34.544 182.875 35.168C182.899 35.792 182.923 36.416 182.947 37.04V50H178.807V24.296H184.495L196.627 44.312H196.735C196.711 43.832 196.687 43.316 196.663 42.764C196.639 42.188 196.615 41.6 196.591 41C196.591 40.4 196.579 39.788 196.555 39.164C196.531 38.54 196.507 37.94 196.483 37.364V24.296H200.659V50ZM214.77 50H210.162V28.184H202.782V24.296H222.15V28.184H214.77V50ZM252.861 36.896C252.861 39.776 252.309 42.188 251.205 44.132C250.125 46.076 248.553 47.54 246.489 48.524C244.449 49.508 241.977 50 239.073 50H231.837V24.296H239.829C242.493 24.296 244.797 24.776 246.741 25.736C248.685 26.696 250.185 28.112 251.241 29.984C252.321 31.832 252.861 34.136 252.861 36.896ZM248.037 37.04C248.037 35 247.725 33.32 247.101 32C246.477 30.68 245.553 29.708 244.329 29.084C243.105 28.436 241.605 28.112 239.829 28.112H236.445V46.148H239.217C242.193 46.148 244.401 45.392 245.841 43.88C247.305 42.344 248.037 40.064 248.037 37.04ZM271.718 50L269.378 43.196H259.694L257.39 50H252.494L261.926 24.188H267.182L276.614 50H271.718ZM265.958 32.612C265.862 32.276 265.718 31.82 265.526 31.244C265.334 30.668 265.142 30.08 264.95 29.48C264.782 28.856 264.65 28.34 264.554 27.932C264.434 28.412 264.278 28.964 264.086 29.588C263.918 30.212 263.75 30.8 263.582 31.352C263.438 31.904 263.318 32.324 263.222 32.612L260.954 39.236H268.19L265.958 32.612ZM284.879 50H280.271V28.184H272.891V24.296H292.259V28.184H284.879V50ZM309.01 50H294.394V24.296H309.01V28.148H299.002V34.7H308.362V38.552H299.002V46.112H309.01V50ZM327.608 42.98C327.608 44.492 327.236 45.8 326.492 46.904C325.748 48.008 324.668 48.86 323.252 49.46C321.86 50.06 320.192 50.36 318.248 50.36C317.312 50.36 316.412 50.3 315.548 50.18C314.708 50.084 313.904 49.928 313.136 49.712C312.392 49.496 311.696 49.232 311.048 48.92V44.6C312.128 45.08 313.316 45.524 314.612 45.932C315.908 46.316 317.228 46.508 318.572 46.508C319.604 46.508 320.444 46.376 321.092 46.112C321.764 45.824 322.256 45.44 322.568 44.96C322.88 44.456 323.036 43.88 323.036 43.232C323.036 42.512 322.832 41.9 322.424 41.396C322.016 40.892 321.416 40.424 320.624 39.992C319.832 39.56 318.848 39.104 317.672 38.624C316.88 38.288 316.1 37.916 315.332 37.508C314.588 37.076 313.916 36.56 313.316 35.96C312.716 35.36 312.236 34.652 311.876 33.836C311.516 33.02 311.336 32.06 311.336 30.956C311.336 29.492 311.684 28.232 312.38 27.176C313.1 26.12 314.096 25.316 315.368 24.764C316.664 24.212 318.164 23.936 319.868 23.936C321.236 23.936 322.52 24.08 323.72 24.368C324.92 24.656 326.108 25.064 327.284 25.592L325.808 29.3C324.752 28.844 323.732 28.484 322.748 28.22C321.764 27.956 320.756 27.824 319.724 27.824C318.908 27.824 318.212 27.956 317.636 28.22C317.06 28.46 316.628 28.808 316.34 29.264C316.052 29.72 315.908 30.248 315.908 30.848C315.908 31.544 316.088 32.132 316.448 32.612C316.808 33.092 317.36 33.548 318.104 33.98C318.872 34.388 319.856 34.856 321.056 35.384C322.448 35.984 323.624 36.608 324.584 37.256C325.544 37.904 326.288 38.684 326.816 39.596C327.344 40.508 327.608 41.636 327.608 42.98Z" fill="#191919"/>
<defs>
<clipPath id="clip0_2088_10491">
<rect width="150" height="7" fill="white"/>
</clipPath>
<clipPath id="clip1_2088_10491">
<rect width="20" height="20" fill="white" transform="translate(80 26)"/>
</clipPath>
</defs>
</svg>
