<svg width="337" height="57" viewBox="0 0 337 57" fill="none" xmlns="http://www.w3.org/2000/svg">
<g clip-path="url(#clip0_2092_38320)">
<path d="M15.5987 0H15.942V1.36978L11.2876 6.98993H10.9443V5.61007L15.5987 0Z" fill="#7F7F7F"/>
<path d="M19.4655 0H19.8088V1.36978L15.1544 6.98993H14.8112V5.61007L19.4655 0Z" fill="#7F7F7F"/>
<path d="M29.0268 0C29.4003 0 29.7234 0.130935 29.9859 0.402878C30.2484 0.664748 30.3898 0.976978 30.3898 1.34964V6.98993H29.0974V4.64317H24.6753V6.98993H23.3931V1.35971C23.3931 0.98705 23.5243 0.664748 23.7969 0.41295C24.0594 0.151079 24.3724 0.0100719 24.746 0.0100719H29.0369L29.0268 0ZM29.0874 3.36403V1.35971C29.0874 1.35971 29.0672 1.28921 29.0167 1.28921H24.7258C24.7258 1.28921 24.6551 1.30935 24.6551 1.35971V3.36403H29.0773H29.0874Z" fill="#7F7F7F"/>
<path d="M38.4667 3.25336C38.4667 3.62602 38.3354 3.93825 38.0628 4.20012C37.7902 4.46199 37.4772 4.603 37.1037 4.603H36.72L38.4667 6.66775V7.00012H37.0633L35.044 4.603H32.7522V7.00012H31.47V0.0202637H37.1138C37.4873 0.0202637 37.8104 0.151199 38.0729 0.413069C38.3354 0.67494 38.4768 0.997242 38.4768 1.35983V3.24329L38.4667 3.25336ZM37.1037 3.32386C37.1037 3.32386 37.1744 3.30372 37.1744 3.25336V1.3699C37.1744 1.3699 37.1542 1.2994 37.1037 1.2994H32.8128C32.8128 1.2994 32.7421 1.31954 32.7421 1.3699V3.25336C32.7421 3.25336 32.7623 3.32386 32.8128 3.32386H37.1037Z" fill="#7F7F7F"/>
<path d="M46.251 0V0.342446L43.6058 3.49496L46.251 6.64748V6.98993H44.8375L42.4447 4.13957H40.7889V6.98993H39.4966V0H40.7889V2.85036H42.4447C42.6062 2.64892 42.8082 2.41727 43.0404 2.14532L44.2519 0.705036C44.474 0.443165 44.6659 0.211511 44.8476 0H46.2611H46.251Z" fill="#7F7F7F"/>
<path d="M52.965 0H54.2573V6.98993H52.8539L48.5327 1.86331V6.98993H47.2505V0H48.6539L52.965 5.12662V0Z" fill="#7F7F7F"/>
<path d="M55.3375 0H56.6197V6.98993H55.3375V0Z" fill="#7F7F7F"/>
<path d="M64.5655 1.90354H63.2732V1.35965C63.2732 1.35965 63.253 1.28915 63.2025 1.28915H58.9116C58.9116 1.28915 58.8409 1.30929 58.8409 1.35965V5.6503C58.8409 5.6503 58.8611 5.7208 58.9116 5.7208H63.2025C63.2025 5.7208 63.2732 5.70066 63.2732 5.6503V4.33087H61.6881V3.05174H64.5655V5.6503C64.5655 6.02296 64.4343 6.34526 64.1617 6.59706C63.8992 6.85893 63.5761 6.99994 63.2025 6.99994H58.9116C58.5381 6.99994 58.215 6.869 57.9626 6.59706C57.7001 6.33519 57.5587 6.02296 57.5587 5.6503V1.35965C57.5587 0.986988 57.69 0.664686 57.9626 0.412887C58.2251 0.151017 58.5381 0.0100098 58.9116 0.0100098H63.2025C63.5761 0.0100098 63.8992 0.140945 64.1617 0.412887C64.4242 0.674758 64.5655 0.986988 64.5655 1.35965V1.90354Z" fill="#7F7F7F"/>
<path d="M72.7737 0V6.98993H71.4915V4.13957H66.8977V6.98993H65.6155V0H66.8977V2.85036H71.4915V0H72.7737Z" fill="#7F7F7F"/>
<path d="M80.6691 0V1.27914H77.8219V6.98993H76.5296V1.28921H73.6724V0H80.6792H80.6691Z" fill="#7F7F7F"/>
<path d="M88.5239 1.89346H87.2316V1.35965C87.2316 1.35965 87.2114 1.28915 87.171 1.28915H82.87C82.87 1.28915 82.7994 1.30929 82.7994 1.35965V2.79994C82.7994 2.79994 82.8195 2.87044 82.87 2.87044H87.171C87.5446 2.87044 87.8576 3.00138 88.1201 3.27332C88.3826 3.53519 88.5239 3.84742 88.5239 4.22008V5.66037C88.5239 6.03303 88.3927 6.35533 88.1201 6.60713C87.8576 6.869 87.5345 7.01001 87.171 7.01001H82.87C82.4965 7.01001 82.1734 6.87907 81.921 6.60713C81.6585 6.34526 81.5272 6.03303 81.5272 5.66037V5.12656H82.8094V5.66037C82.8094 5.66037 82.8296 5.73087 82.8801 5.73087H87.1811C87.1811 5.73087 87.2417 5.71073 87.2417 5.66037V4.22008C87.2417 4.22008 87.2215 4.14958 87.1811 4.14958H82.8801C82.5066 4.14958 82.1835 4.01864 81.9311 3.7467C81.6686 3.48483 81.5373 3.1726 81.5373 2.79994V1.35965C81.5373 0.986988 81.6686 0.664686 81.9311 0.412887C82.1936 0.151017 82.5066 0.0100098 82.8801 0.0100098H87.1811C87.5547 0.0100098 87.8677 0.140945 88.1302 0.412887C88.3927 0.674758 88.534 0.986988 88.534 1.35965V1.89346H88.5239Z" fill="#7F7F7F"/>
<path d="M90.8158 2.56844H89.5437V1.28931H90.8158V2.56844ZM90.8158 5.72096V6.99003H89.5437V5.72096H90.8158Z" fill="#7F7F7F"/>
<path d="M101.094 1.28921H95.9447V2.86043H100.084V4.13957H95.9447V5.71079H101.094V6.98993H94.6523V0H101.094V1.27914V1.28921Z" fill="#7F7F7F"/>
<path d="M107.808 0H109.1V6.98993H107.697L103.375 1.86331V6.98993H102.093V0H103.497L107.808 5.12662V0Z" fill="#7F7F7F"/>
<path d="M115.824 0C116.198 0 116.521 0.130935 116.783 0.402878C117.046 0.664748 117.187 0.976978 117.187 1.34964V5.64029C117.187 6.01295 117.056 6.33525 116.783 6.58705C116.521 6.84892 116.198 6.98993 115.824 6.98993H110.18V0H115.824ZM115.885 1.35971C115.885 1.35971 115.865 1.28921 115.814 1.28921H111.523C111.523 1.28921 111.453 1.30935 111.453 1.35971V5.65036C111.453 5.65036 111.473 5.72086 111.523 5.72086H115.814C115.814 5.72086 115.885 5.70072 115.885 5.65036V1.35971Z" fill="#7F7F7F"/>
<path d="M124.699 0V1.27914H119.55V2.85036H123.689V4.1295H119.55V6.97986H118.257V0H124.699Z" fill="#7F7F7F"/>
<path d="M125.496 0H126.779V6.98993H125.496V0Z" fill="#7F7F7F"/>
<path d="M134.179 1.28921H129.03V2.86043H133.17V4.13957H129.03V5.71079H134.179V6.98993H127.738V0H134.179V1.27914V1.28921Z" fill="#7F7F7F"/>
<path d="M135.189 0H136.471V5.71079H142.196V6.98993H135.189V0Z" fill="#7F7F7F"/>
<path d="M148.637 0C149.011 0 149.334 0.130935 149.596 0.402878C149.859 0.664748 150 0.976978 150 1.34964V5.64029C150 6.01295 149.869 6.33525 149.596 6.58705C149.334 6.84892 149.011 6.98993 148.637 6.98993H142.993V0H148.637ZM148.708 1.35971C148.708 1.35971 148.687 1.28921 148.637 1.28921H144.346C144.346 1.28921 144.275 1.30935 144.275 1.35971V5.65036C144.275 5.65036 144.296 5.72086 144.346 5.72086H148.637C148.637 5.72086 148.708 5.70072 148.708 5.65036V1.35971Z" fill="#7F7F7F"/>
<path d="M0 0.261963L5.37121 6.73822L10.7424 0.261963H0Z" fill="#7F7F7F"/>
</g>
<rect width="110" height="42" transform="translate(0 15)" fill="#D9D9D9"/>
<g clip-path="url(#clip1_2092_38320)">
<path d="M80 44.8161H98.8161V44.7847V26" stroke="#191919" stroke-width="2.25" stroke-miterlimit="10"/>
<path d="M81.3934 27.3411L98.8371 44.7952" stroke="#191919" stroke-width="2.25" stroke-miterlimit="10"/>
</g>
<path d="M132.4 50L125.344 28.94H125.2C125.224 29.42 125.26 30.104 125.308 30.992C125.356 31.856 125.392 32.804 125.416 33.836C125.464 34.844 125.488 35.792 125.488 36.68V50H121.348V24.296H127.756L134.524 44.492H134.668L141.724 24.296H148.132V50H143.74V36.464C143.74 35.648 143.752 34.76 143.776 33.8C143.824 32.816 143.86 31.892 143.884 31.028C143.932 30.14 143.968 29.456 143.992 28.976H143.848L136.504 50H132.4ZM161.694 50H150.894V47.372L153.99 46.22V28.112L150.894 26.924V24.296H161.694V26.924L158.598 28.112V46.22L161.694 47.372V50ZM179.446 42.98C179.446 44.492 179.074 45.8 178.33 46.904C177.586 48.008 176.506 48.86 175.09 49.46C173.698 50.06 172.03 50.36 170.086 50.36C169.15 50.36 168.25 50.3 167.386 50.18C166.546 50.084 165.742 49.928 164.974 49.712C164.23 49.496 163.534 49.232 162.886 48.92V44.6C163.966 45.08 165.154 45.524 166.45 45.932C167.746 46.316 169.066 46.508 170.41 46.508C171.442 46.508 172.282 46.376 172.93 46.112C173.602 45.824 174.094 45.44 174.406 44.96C174.718 44.456 174.874 43.88 174.874 43.232C174.874 42.512 174.67 41.9 174.262 41.396C173.854 40.892 173.254 40.424 172.462 39.992C171.67 39.56 170.686 39.104 169.51 38.624C168.718 38.288 167.938 37.916 167.17 37.508C166.426 37.076 165.754 36.56 165.154 35.96C164.554 35.36 164.074 34.652 163.714 33.836C163.354 33.02 163.174 32.06 163.174 30.956C163.174 29.492 163.522 28.232 164.218 27.176C164.938 26.12 165.934 25.316 167.206 24.764C168.502 24.212 170.002 23.936 171.706 23.936C173.074 23.936 174.358 24.08 175.558 24.368C176.758 24.656 177.946 25.064 179.122 25.592L177.646 29.3C176.59 28.844 175.57 28.484 174.586 28.22C173.602 27.956 172.594 27.824 171.562 27.824C170.746 27.824 170.05 27.956 169.474 28.22C168.898 28.46 168.466 28.808 168.178 29.264C167.89 29.72 167.746 30.248 167.746 30.848C167.746 31.544 167.926 32.132 168.286 32.612C168.646 33.092 169.198 33.548 169.942 33.98C170.71 34.388 171.694 34.856 172.894 35.384C174.286 35.984 175.462 36.608 176.422 37.256C177.382 37.904 178.126 38.684 178.654 39.596C179.182 40.508 179.446 41.636 179.446 42.98ZM197.439 42.98C197.439 44.492 197.067 45.8 196.323 46.904C195.579 48.008 194.499 48.86 193.083 49.46C191.691 50.06 190.023 50.36 188.079 50.36C187.143 50.36 186.243 50.3 185.379 50.18C184.539 50.084 183.735 49.928 182.967 49.712C182.223 49.496 181.527 49.232 180.879 48.92V44.6C181.959 45.08 183.147 45.524 184.443 45.932C185.739 46.316 187.059 46.508 188.403 46.508C189.435 46.508 190.275 46.376 190.923 46.112C191.595 45.824 192.087 45.44 192.399 44.96C192.711 44.456 192.867 43.88 192.867 43.232C192.867 42.512 192.663 41.9 192.255 41.396C191.847 40.892 191.247 40.424 190.455 39.992C189.663 39.56 188.679 39.104 187.503 38.624C186.711 38.288 185.931 37.916 185.163 37.508C184.419 37.076 183.747 36.56 183.147 35.96C182.547 35.36 182.067 34.652 181.707 33.836C181.347 33.02 181.167 32.06 181.167 30.956C181.167 29.492 181.515 28.232 182.211 27.176C182.931 26.12 183.927 25.316 185.199 24.764C186.495 24.212 187.995 23.936 189.699 23.936C191.067 23.936 192.351 24.08 193.551 24.368C194.751 24.656 195.939 25.064 197.115 25.592L195.639 29.3C194.583 28.844 193.563 28.484 192.579 28.22C191.595 27.956 190.587 27.824 189.555 27.824C188.739 27.824 188.043 27.956 187.467 28.22C186.891 28.46 186.459 28.808 186.171 29.264C185.883 29.72 185.739 30.248 185.739 30.848C185.739 31.544 185.919 32.132 186.279 32.612C186.639 33.092 187.191 33.548 187.935 33.98C188.703 34.388 189.687 34.856 190.887 35.384C192.279 35.984 193.455 36.608 194.415 37.256C195.375 37.904 196.119 38.684 196.647 39.596C197.175 40.508 197.439 41.636 197.439 42.98ZM209.204 50H198.404V47.372L201.5 46.22V28.112L198.404 26.924V24.296H209.204V26.924L206.108 28.112V46.22L209.204 47.372V50ZM234.984 37.112C234.984 39.104 234.732 40.916 234.228 42.548C233.748 44.156 233.004 45.548 231.996 46.724C231.012 47.9 229.752 48.8 228.216 49.424C226.704 50.048 224.928 50.36 222.888 50.36C220.824 50.36 219.024 50.048 217.488 49.424C215.976 48.776 214.728 47.876 213.744 46.724C212.76 45.548 212.016 44.144 211.512 42.512C211.032 40.88 210.792 39.068 210.792 37.076C210.792 34.412 211.224 32.096 212.088 30.128C212.976 28.16 214.308 26.636 216.084 25.556C217.884 24.452 220.164 23.9 222.924 23.9C225.636 23.9 227.88 24.452 229.656 25.556C231.432 26.636 232.764 28.172 233.652 30.164C234.54 32.132 234.984 34.448 234.984 37.112ZM215.652 37.112C215.652 39.056 215.904 40.724 216.408 42.116C216.936 43.508 217.728 44.576 218.784 45.32C219.864 46.064 221.232 46.436 222.888 46.436C224.592 46.436 225.972 46.064 227.028 45.32C228.084 44.576 228.864 43.508 229.368 42.116C229.872 40.724 230.124 39.056 230.124 37.112C230.124 34.208 229.56 31.928 228.432 30.272C227.304 28.616 225.468 27.788 222.924 27.788C221.244 27.788 219.864 28.16 218.784 28.904C217.728 29.648 216.936 30.716 216.408 32.108C215.904 33.5 215.652 35.168 215.652 37.112ZM260.509 50H254.785L242.617 29.84H242.473C242.497 30.368 242.521 30.932 242.545 31.532C242.593 32.108 242.629 32.708 242.653 33.332C242.677 33.932 242.701 34.544 242.725 35.168C242.749 35.792 242.773 36.416 242.797 37.04V50H238.657V24.296H244.345L256.477 44.312H256.585C256.561 43.832 256.537 43.316 256.513 42.764C256.489 42.188 256.465 41.6 256.441 41C256.441 40.4 256.429 39.788 256.405 39.164C256.381 38.54 256.357 37.94 256.333 37.364V24.296H260.509V50ZM288.688 37.112C288.688 39.2 288.532 41.06 288.22 42.692C287.908 44.324 287.392 45.716 286.672 46.868C285.976 47.996 285.064 48.86 283.936 49.46C282.832 50.06 281.476 50.36 279.868 50.36C277.852 50.36 276.196 49.832 274.9 48.776C273.604 47.72 272.644 46.208 272.02 44.24C271.396 42.248 271.084 39.872 271.084 37.112C271.084 34.352 271.372 31.988 271.948 30.02C272.524 28.052 273.448 26.54 274.72 25.484C276.016 24.428 277.732 23.9 279.868 23.9C281.884 23.9 283.54 24.428 284.836 25.484C286.132 26.516 287.092 28.028 287.716 30.02C288.364 31.988 288.688 34.352 288.688 37.112ZM275.656 37.148C275.656 39.236 275.788 40.988 276.052 42.404C276.316 43.796 276.748 44.852 277.348 45.572C277.972 46.268 278.812 46.616 279.868 46.616C280.924 46.616 281.752 46.268 282.352 45.572C282.976 44.876 283.42 43.82 283.684 42.404C283.972 40.988 284.116 39.236 284.116 37.148C284.116 35.036 283.972 33.284 283.684 31.892C283.42 30.476 282.976 29.42 282.352 28.724C281.752 28.004 280.924 27.644 279.868 27.644C278.812 27.644 277.972 28.004 277.348 28.724C276.748 29.42 276.316 30.464 276.052 31.856C275.788 33.248 275.656 35.012 275.656 37.148ZM307.561 50H289.957V46.652L296.509 40.028C297.805 38.708 298.861 37.58 299.677 36.644C300.517 35.684 301.129 34.796 301.513 33.98C301.921 33.164 302.125 32.276 302.125 31.316C302.125 30.14 301.789 29.264 301.117 28.688C300.445 28.088 299.557 27.788 298.453 27.788C297.373 27.788 296.365 28.016 295.429 28.472C294.493 28.904 293.521 29.528 292.513 30.344L290.029 27.356C290.749 26.732 291.517 26.168 292.333 25.664C293.149 25.136 294.073 24.716 295.105 24.404C296.137 24.092 297.337 23.936 298.705 23.936C300.361 23.936 301.777 24.236 302.953 24.836C304.153 25.412 305.077 26.216 305.725 27.248C306.373 28.28 306.697 29.48 306.697 30.848C306.697 31.904 306.541 32.888 306.229 33.8C305.917 34.688 305.461 35.564 304.861 36.428C304.261 37.292 303.529 38.168 302.665 39.056C301.801 39.944 300.829 40.904 299.749 41.936L295.681 45.86V46.076H307.561V50Z" fill="#191919"/>
<defs>
<clipPath id="clip0_2092_38320">
<rect width="150" height="7" fill="white"/>
</clipPath>
<clipPath id="clip1_2092_38320">
<rect width="20" height="20" fill="white" transform="translate(80 26)"/>
</clipPath>
</defs>
</svg>
