<svg width="160" height="70" viewBox="0 0 160 70" fill="none" xmlns="http://www.w3.org/2000/svg">
<g filter="url(#filter0_d_2070_7839)">
<path d="M48.67 48.9503H20V43.4203H31.52V37.5803H37.15V43.4203H48.67V48.9503ZM28.32 37.1403C26.01 38.1903 23.55 38.7303 20.97 38.7503V33.3003C23.35 33.2503 25.52 32.5903 27.49 31.3203C29.45 30.0503 30.83 28.3403 31.6 26.1803H21.47V20.8203H47.19V26.1903H37.65C37.52 26.7603 37.3 27.4603 36.99 28.2903L48.43 34.2003L45.83 38.9903L34.23 32.8003C32.6 34.6403 30.63 36.0903 28.31 37.1403H28.32Z" fill="white"/>
<path d="M66.1703 39.3601C64.8303 42.3301 62.9204 44.6101 60.4704 46.2101C58.0204 47.8101 55.1404 48.6001 51.8604 48.6001V43.0001C55.2504 42.9701 57.8604 41.7201 59.6804 39.2301C61.5004 36.7401 62.4203 33.3001 62.4203 28.9201V26.2001H51.8704V20.8201H68.2004V28.9101C68.2004 32.9001 67.5304 36.3901 66.1804 39.3601H66.1703ZM72.5303 50.0001V20.1201H78.1604V50.0001H72.5303Z" fill="white"/>
<path d="M110.13 43.42V48.95H81.46V43.42H92.98V36.8H98.64V43.42H110.12H110.13ZM89.58 36.75C87.21 38.06 84.7 38.71 82.03 38.71V33.11C83.89 33.11 85.68 32.56 87.38 31.46C89.09 30.36 90.52 28.81 91.69 26.83C92.85 24.85 93.6 22.57 93.94 20L99.64 20.93C99.36 23.08 98.86 24.99 98.17 26.65L110.12 34L107.21 38.83L95.61 31.32C93.95 33.63 91.94 35.44 89.58 36.75Z" fill="white"/>
<path d="M118.35 36.6501C116.67 37.6101 114.83 38.1201 112.84 38.1701V32.8001C114.7 32.6501 116.24 31.8701 117.46 30.4901C118.68 29.1001 119.41 27.4401 119.67 25.4901H113.27V20.4701H131.58V25.4901H125.33C125.3 26.1701 125.15 27.0501 124.86 28.1401L132.74 33.7001L129.68 37.9401L122.62 32.8001C121.46 34.4101 120.03 35.6901 118.35 36.6501ZM140 50.0001H114.28V39.5301H119.98V44.7001H140V49.9901V50.0001ZM133.99 42.2601V20.1201H139.62V42.2601H133.99Z" fill="white"/>
</g>
<defs>
<filter id="filter0_d_2070_7839" x="0" y="0" width="160" height="70" filterUnits="userSpaceOnUse" color-interpolation-filters="sRGB">
<feFlood flood-opacity="0" result="BackgroundImageFix"/>
<feColorMatrix in="SourceAlpha" type="matrix" values="0 0 0 0 0 0 0 0 0 0 0 0 0 0 0 0 0 0 127 0" result="hardAlpha"/>
<feOffset/>
<feGaussianBlur stdDeviation="10"/>
<feComposite in2="hardAlpha" operator="out"/>
<feColorMatrix type="matrix" values="0 0 0 0 0 0 0 0 0 0 0 0 0 0 0 0 0 0 0.8 0"/>
<feBlend mode="normal" in2="BackgroundImageFix" result="effect1_dropShadow_2070_7839"/>
<feBlend mode="normal" in="SourceGraphic" in2="effect1_dropShadow_2070_7839" result="shape"/>
</filter>
</defs>
</svg>
